SplineFontDB: 3.0
FontName: ArchivoNarrowDeva-Regular
FullName: Archivo Narrow Devanagari-Regular
FamilyName: Archivo Narrow Devanagari
Weight: Regular
Copyright: Copyright (c) 2012-2014, Omnibus-Type (www.omnibus-type.com omnibus.type@gmail.com) with Reserved Font Name 'Archivo'
Version: 001.004
ItalicAngle: 0
UnderlinePosition: -50
UnderlineWidth: 50
Ascent: 800
Descent: 200
sfntRevision: 0x00010106
LayerCount: 2
Layer: 0 1 "Back"  1
Layer: 1 1 "Fore"  0
XUID: [1021 191 1600663927 2102813]
FSType: 8
OS2Version: 3
OS2_WeightWidthSlopeOnly: 0
OS2_UseTypoMetrics: 1
CreationTime: 1405248882
ModificationTime: 1405356276
PfmFamily: 81
TTFWeight: 400
TTFWidth: 5
LineGap: 0
VLineGap: 0
Panose: 0 0 5 0 0 0 0 0 0 0
OS2TypoAscent: 827
OS2TypoAOffset: 0
OS2TypoDescent: -404
OS2TypoDOffset: 0
OS2TypoLinegap: 0
OS2WinAscent: 827
OS2WinAOffset: 0
OS2WinDescent: 404
OS2WinDOffset: 0
HheadAscent: 827
HheadAOffset: 0
HheadDescent: -404
HheadDOffset: 0
OS2SubXSize: 650
OS2SubYSize: 600
OS2SubXOff: 0
OS2SubYOff: 75
OS2SupXSize: 650
OS2SupYSize: 600
OS2SupXOff: 0
OS2SupYOff: 350
OS2StrikeYSize: 50
OS2StrikeYPos: 279
OS2Vendor: 'Omni'
OS2CodePages: 20000093.00000000
OS2UnicodeRanges: 00008007.00000000.00000000.00000000
Lookup: 1 0 0 "'aalt' Access All Alternates lookup 0"  {"'aalt' Access All Alternates lookup 0 subtable"  } ['aalt' ('DFLT' <'dflt' > 'dev2' <'dflt' > 'grek' <'dflt' > 'latn' <'CAT ' 'MOL ' 'ROM ' 'dflt' > ) ]
Lookup: 1 0 0 "'locl' Localized Forms in Latin lookup 1"  {"'locl' Localized Forms in Latin lookup 1 subtable"  } ['locl' ('latn' <'ROM ' > ) ]
Lookup: 1 0 0 "'locl' Localized Forms in Latin lookup 2"  {"'locl' Localized Forms in Latin lookup 2 subtable"  } ['locl' ('latn' <'MOL ' > ) ]
Lookup: 6 0 0 "'locl' Localized Forms in Latin lookup 3"  {"'locl' Localized Forms in Latin lookup 3 contextual 0"  "'locl' Localized Forms in Latin lookup 3 contextual 1"  } ['locl' ('latn' <'CAT ' > ) ]

StartChar: .notdef
Encoding: 65536 -1 0
Width: 442
Flags: MW
HStem: 0 44<71 371 71 442> 575 44<71 371 71 71>
VStem: 0 44<84 535 84 619> 398 44<84 535 535 535>
LayerCount: 2
Fore
SplineSet
0 619 m 1,0,-1
 442 619 l 1,1,-1
 442 0 l 1,2,-1
 0 0 l 1,3,-1
 0 619 l 1,0,-1
371 575 m 1,4,-1
 71 575 l 1,5,-1
 221 349 l 1,6,-1
 371 575 l 1,4,-1
44 535 m 1,7,-1
 44 84 l 1,8,-1
 194 309 l 1,9,-1
 44 535 l 1,7,-1
398 535 m 1,10,-1
 248 309 l 1,11,-1
 398 84 l 1,12,-1
 398 535 l 1,10,-1
221 270 m 1,13,-1
 71 44 l 1,14,-1
 371 44 l 1,15,-1
 221 270 l 1,13,-1
EndSplineSet
EndChar

StartChar: A
Encoding: 65 65 1
Width: 484
Flags: MW
HStem: 135 71<140 337 140 359 118 337> 543 63<237 237 237 240>
VStem: -1 485<0 0>
LayerCount: 2
Fore
SplineSet
400 0 m 1,0,-1
 359 135 l 1,1,-1
 118 135 l 1,2,-1
 77 0 l 1,3,-1
 -1 0 l 1,4,-1
 192 606 l 1,5,-1
 292 606 l 1,6,-1
 484 0 l 1,7,-1
 400 0 l 1,0,-1
237 543 m 1,8,9
 229 495 229 495 223 476 c 2,10,-1
 140 206 l 1,11,-1
 337 206 l 1,12,-1
 255 476 l 1,13,-1
 240 543 l 1,14,-1
 237 543 l 1,8,9
EndSplineSet
Substitution2: "Single Substitution lookup 14 subtable" ordfeminine
Substitution2: "'aalt' Access All Alternates lookup 0 subtable" ordfeminine
Position2: "'cpsp' Capital Spacing lookup 0 subtable" dx=5 dy=0 dh=10 dv=0
EndChar

StartChar: Aacute
Encoding: 193 193 2
Width: 484
Flags: MW
HStem: 135 71<140 337 140 359 118 337> 543 63<237 237 237 240> 664 117<189 345 189 345>
VStem: -1 485<0 0>
LayerCount: 2
Fore
SplineSet
250 664 m 1,0,-1
 189 664 l 1,1,-1
 265 781 l 1,2,-1
 345 781 l 1,3,-1
 346 778 l 1,4,-1
 250 664 l 1,0,-1
400 0 m 1,5,-1
 359 135 l 1,6,-1
 118 135 l 1,7,-1
 77 0 l 1,8,-1
 -1 0 l 1,9,-1
 192 606 l 1,10,-1
 292 606 l 1,11,-1
 484 0 l 1,12,-1
 400 0 l 1,5,-1
237 543 m 1,13,14
 229 495 229 495 223 476 c 2,15,-1
 140 206 l 1,16,-1
 337 206 l 1,17,-1
 255 476 l 1,18,-1
 240 543 l 1,19,-1
 237 543 l 1,13,14
EndSplineSet
Position2: "'cpsp' Capital Spacing lookup 0 subtable" dx=5 dy=0 dh=10 dv=0
EndChar

StartChar: Abreve
Encoding: 258 258 3
Width: 484
Flags: MW
HStem: 135 71<140 337 140 359 118 337> 543 63<237 237 237 240> 695 56<226.5 256 226.5 275>
VStem: -1 485<0 0>
LayerCount: 2
Fore
SplineSet
351 781 m 1,0,1
 351 749 351 749 320 722 c 128,-1,2
 289 695 289 695 241 695 c 128,-1,3
 193 695 193 695 163 722 c 128,-1,4
 133 749 133 749 133 781 c 1,5,-1
 189 781 l 1,6,7
 192 770 192 770 206.5 760.5 c 128,-1,8
 221 751 221 751 241.5 751 c 0,9,10
 262 751 262 751 277.5 760.5 c 128,-1,11
 293 770 293 770 294 781 c 1,12,-1
 351 781 l 1,0,1
400 0 m 1,13,-1
 359 135 l 1,14,-1
 118 135 l 1,15,-1
 77 0 l 1,16,-1
 -1 0 l 1,17,-1
 192 606 l 1,18,-1
 292 606 l 1,19,-1
 484 0 l 1,20,-1
 400 0 l 1,13,-1
237 543 m 1,21,22
 229 495 229 495 223 476 c 2,23,-1
 140 206 l 1,24,-1
 337 206 l 1,25,-1
 255 476 l 1,26,-1
 240 543 l 1,27,-1
 237 543 l 1,21,22
EndSplineSet
Position2: "'cpsp' Capital Spacing lookup 0 subtable" dx=5 dy=0 dh=10 dv=0
EndChar

StartChar: Acircumflex
Encoding: 194 194 4
Width: 484
Flags: MW
HStem: 135 71<140 337 140 359 118 337> 543 63<237 237 237 240> 660 120<132 277 132 277 208 352 208 281>
VStem: -1 485<0 0>
LayerCount: 2
Fore
SplineSet
281 660 m 1,0,-1
 242 730 l 1,1,-1
 202 660 l 1,2,-1
 132 660 l 1,3,-1
 208 780 l 1,4,-1
 277 780 l 1,5,-1
 352 660 l 1,6,-1
 281 660 l 1,0,-1
400 0 m 1,7,-1
 359 135 l 1,8,-1
 118 135 l 1,9,-1
 77 0 l 1,10,-1
 -1 0 l 1,11,-1
 192 606 l 1,12,-1
 292 606 l 1,13,-1
 484 0 l 1,14,-1
 400 0 l 1,7,-1
237 543 m 1,15,16
 229 495 229 495 223 476 c 2,17,-1
 140 206 l 1,18,-1
 337 206 l 1,19,-1
 255 476 l 1,20,-1
 240 543 l 1,21,-1
 237 543 l 1,15,16
EndSplineSet
Position2: "'cpsp' Capital Spacing lookup 0 subtable" dx=5 dy=0 dh=10 dv=0
EndChar

StartChar: Adieresis
Encoding: 196 196 5
Width: 484
Flags: MW
HStem: 135 71<140 337 140 359 118 337> 543 63<237 237 237 240> 697 84<137 214 137 214 270 347 137 270>
VStem: 137 77<697 781 697 781> 270 77<697 781 697 781>
LayerCount: 2
Fore
SplineSet
137 697 m 1,0,-1
 137 781 l 1,1,-1
 214 781 l 1,2,-1
 214 697 l 1,3,-1
 137 697 l 1,0,-1
270 697 m 1,4,-1
 270 781 l 1,5,-1
 347 781 l 1,6,-1
 347 697 l 1,7,-1
 270 697 l 1,4,-1
400 0 m 1,8,-1
 359 135 l 1,9,-1
 118 135 l 1,10,-1
 77 0 l 1,11,-1
 -1 0 l 1,12,-1
 192 606 l 1,13,-1
 292 606 l 1,14,-1
 484 0 l 1,15,-1
 400 0 l 1,8,-1
237 543 m 1,16,17
 229 495 229 495 223 476 c 2,18,-1
 140 206 l 1,19,-1
 337 206 l 1,20,-1
 255 476 l 1,21,-1
 240 543 l 1,22,-1
 237 543 l 1,16,17
EndSplineSet
Position2: "'cpsp' Capital Spacing lookup 0 subtable" dx=5 dy=0 dh=10 dv=0
EndChar

StartChar: Agrave
Encoding: 192 192 6
Width: 484
Flags: MW
HStem: 135 71<140 337 140 359 118 337> 543 63<237 237 237 240> 664 117<139 233 139 294>
VStem: -1 485<0 0>
LayerCount: 2
Fore
SplineSet
233 664 m 1,0,-1
 138 778 l 1,1,-1
 139 781 l 1,2,-1
 218 781 l 1,3,-1
 294 664 l 1,4,-1
 233 664 l 1,0,-1
400 0 m 1,5,-1
 359 135 l 1,6,-1
 118 135 l 1,7,-1
 77 0 l 1,8,-1
 -1 0 l 1,9,-1
 192 606 l 1,10,-1
 292 606 l 1,11,-1
 484 0 l 1,12,-1
 400 0 l 1,5,-1
237 543 m 1,13,14
 229 495 229 495 223 476 c 2,15,-1
 140 206 l 1,16,-1
 337 206 l 1,17,-1
 255 476 l 1,18,-1
 240 543 l 1,19,-1
 237 543 l 1,13,14
EndSplineSet
Position2: "'cpsp' Capital Spacing lookup 0 subtable" dx=5 dy=0 dh=10 dv=0
EndChar

StartChar: Amacron
Encoding: 256 256 7
Width: 484
Flags: MW
HStem: 135 71<140 337 140 359 118 337> 543 63<237 237 237 240> 671 64<131 353 131 353>
VStem: 131 222<671 735 671 735>
LayerCount: 2
Fore
SplineSet
131 671 m 1,0,-1
 131 735 l 1,1,-1
 353 735 l 1,2,-1
 353 671 l 1,3,-1
 131 671 l 1,0,-1
400 0 m 1,4,-1
 359 135 l 1,5,-1
 118 135 l 1,6,-1
 77 0 l 1,7,-1
 -1 0 l 1,8,-1
 192 606 l 1,9,-1
 292 606 l 1,10,-1
 484 0 l 1,11,-1
 400 0 l 1,4,-1
237 543 m 1,12,13
 229 495 229 495 223 476 c 2,14,-1
 140 206 l 1,15,-1
 337 206 l 1,16,-1
 255 476 l 1,17,-1
 240 543 l 1,18,-1
 237 543 l 1,12,13
EndSplineSet
Position2: "'cpsp' Capital Spacing lookup 0 subtable" dx=5 dy=0 dh=10 dv=0
EndChar

StartChar: Aogonek
Encoding: 260 260 8
Width: 484
Flags: MW
HStem: -161 58<458 531> 135 71<140 337 140 359 118 337> 543 63<237 240 237 237>
VStem: 394 69<-67.5 -61>
LayerCount: 2
Fore
SplineSet
531 -103 m 1,0,-1
 531 -149 l 1,1,2
 500 -161 500 -161 471.5 -161 c 0,3,4
 443 -161 443 -161 418.5 -142 c 128,-1,5
 394 -123 394 -123 394 -81 c 0,6,7
 394 -62 394 -62 400 -45.5 c 128,-1,8
 406 -29 406 -29 411 -22.5 c 128,-1,9
 416 -16 416 -16 429 0 c 1,10,-1
 400 0 l 1,11,-1
 359 135 l 1,12,-1
 118 135 l 1,13,-1
 77 0 l 1,14,-1
 -1 0 l 1,15,-1
 192 606 l 1,16,-1
 292 606 l 1,17,-1
 484 0 l 1,18,19
 463 -30 463 -30 463 -55 c 0,20,21
 463 -103 463 -103 504 -103 c 2,22,-1
 531 -103 l 1,0,-1
337 206 m 1,23,-1
 255 476 l 1,24,-1
 240 543 l 1,25,-1
 237 543 l 1,26,27
 229 495 229 495 223 476 c 2,28,-1
 140 206 l 1,29,-1
 337 206 l 1,23,-1
EndSplineSet
Position2: "'cpsp' Capital Spacing lookup 0 subtable" dx=5 dy=0 dh=10 dv=0
EndChar

StartChar: Aring
Encoding: 197 197 9
Width: 484
Flags: MW
HStem: 135 71<140 337 140 359 118 337> 543 63<237 237 237 240> 639 40<229 253 229 265> 769 40<229 253>
VStem: 156 40<711.5 736.5 711.5 747.5> 286 40<711.5 736.5>
LayerCount: 2
Fore
SplineSet
181 784 m 128,-1,1
 206 809 206 809 241.5 809 c 128,-1,2
 277 809 277 809 301.5 784 c 128,-1,3
 326 759 326 759 326 724 c 128,-1,4
 326 689 326 689 301.5 664 c 128,-1,5
 277 639 277 639 241.5 639 c 128,-1,6
 206 639 206 639 181 663.5 c 128,-1,7
 156 688 156 688 156 723.5 c 128,-1,0
 156 759 156 759 181 784 c 128,-1,1
241 769 m 128,-1,9
 223 769 223 769 209.5 756 c 128,-1,10
 196 743 196 743 196 724 c 128,-1,11
 196 705 196 705 209.5 692 c 128,-1,12
 223 679 223 679 241 679 c 128,-1,13
 259 679 259 679 272.5 692 c 128,-1,14
 286 705 286 705 286 724 c 128,-1,15
 286 743 286 743 272.5 756 c 128,-1,8
 259 769 259 769 241 769 c 128,-1,9
400 0 m 1,16,-1
 359 135 l 1,17,-1
 118 135 l 1,18,-1
 77 0 l 1,19,-1
 -1 0 l 1,20,-1
 192 606 l 1,21,-1
 292 606 l 1,22,-1
 484 0 l 1,23,-1
 400 0 l 1,16,-1
237 543 m 1,24,25
 229 495 229 495 223 476 c 2,26,-1
 140 206 l 1,27,-1
 337 206 l 1,28,-1
 255 476 l 1,29,-1
 240 543 l 1,30,-1
 237 543 l 1,24,25
EndSplineSet
Position2: "'cpsp' Capital Spacing lookup 0 subtable" dx=5 dy=0 dh=10 dv=0
EndChar

StartChar: Aringacute
Encoding: 506 506 10
Width: 484
Flags: MW
HStem: 135 71<140 337 140 359 118 337> 543 58<237 237 237 240> 688 38<229.5 254> 750 96<215 357 215 357>
VStem: 157 40<632.5 656 632.5 667> 287 40<632.5 656>
LayerCount: 2
Fore
SplineSet
215 750 m 1,0,-1
 278 846 l 1,1,-1
 357 846 l 1,2,-1
 358 842 l 1,3,-1
 276 750 l 1,4,-1
 215 750 l 1,0,-1
185 584 m 1,5,6
 157 607 157 607 157 642.5 c 128,-1,7
 157 678 157 678 182 702 c 128,-1,8
 207 726 207 726 242.5 726 c 128,-1,9
 278 726 278 726 302.5 702 c 128,-1,10
 327 678 327 678 327 643 c 128,-1,11
 327 608 327 608 299 583 c 1,12,-1
 484 0 l 1,13,-1
 400 0 l 1,14,-1
 359 135 l 1,15,-1
 118 135 l 1,16,-1
 77 0 l 1,17,-1
 -1 0 l 1,18,-1
 185 584 l 1,5,6
273.5 675 m 128,-1,20
 260 688 260 688 241.5 688 c 128,-1,21
 223 688 223 688 210 675 c 128,-1,22
 197 662 197 662 197 644.5 c 128,-1,23
 197 627 197 627 210 614 c 128,-1,24
 223 601 223 601 241.5 601 c 128,-1,25
 260 601 260 601 273.5 614 c 128,-1,26
 287 627 287 627 287 644.5 c 128,-1,19
 287 662 287 662 273.5 675 c 128,-1,20
237 543 m 1,27,28
 229 495 229 495 223 476 c 2,29,-1
 140 206 l 1,30,-1
 337 206 l 1,31,-1
 255 476 l 1,32,-1
 240 543 l 1,33,-1
 237 543 l 1,27,28
EndSplineSet
Position2: "'cpsp' Capital Spacing lookup 0 subtable" dx=5 dy=0 dh=10 dv=0
EndChar

StartChar: Atilde
Encoding: 195 195 11
Width: 484
Flags: MW
HStem: 135 71<140 337 140 359 118 337> 543 63<237 237 237 240> 689 65<276 297 272 322> 716 65<186 206 160.5 211>
VStem: -1 485<0 0>
LayerCount: 2
Fore
SplineSet
370 781 m 1,0,1
 370 745 370 745 351 717 c 128,-1,2
 332 689 332 689 295 689 c 0,3,4
 276 689 276 689 243 702.5 c 128,-1,5
 210 716 210 716 194 716 c 0,6,7
 167 716 167 716 164 689 c 1,8,-1
 112 689 l 1,9,10
 112 724 112 724 131.5 752.5 c 128,-1,11
 151 781 151 781 187 781 c 0,12,13
 206 781 206 781 239 767.5 c 128,-1,14
 272 754 272 754 289 754 c 0,15,16
 315 754 315 754 319 781 c 1,17,-1
 370 781 l 1,0,1
400 0 m 1,18,-1
 359 135 l 1,19,-1
 118 135 l 1,20,-1
 77 0 l 1,21,-1
 -1 0 l 1,22,-1
 192 606 l 1,23,-1
 292 606 l 1,24,-1
 484 0 l 1,25,-1
 400 0 l 1,18,-1
237 543 m 1,26,27
 229 495 229 495 223 476 c 2,28,-1
 140 206 l 1,29,-1
 337 206 l 1,30,-1
 255 476 l 1,31,-1
 240 543 l 1,32,-1
 237 543 l 1,26,27
EndSplineSet
Position2: "'cpsp' Capital Spacing lookup 0 subtable" dx=5 dy=0 dh=10 dv=0
EndChar

StartChar: AE
Encoding: 198 198 12
Width: 725
Flags: MW
HStem: 0 71<468 692 468 692 400 692> 135 71<156 355 156 370 129 355> 275 71<422 648 422 422> 536 70<362 362 362 687>
VStem: -1 693<0 71>
LayerCount: 2
Fore
SplineSet
362 536 m 1,0,-1
 406 346 l 1,1,-1
 648 346 l 1,2,-1
 648 275 l 1,3,-1
 422 275 l 1,4,-1
 468 71 l 1,5,-1
 692 71 l 1,6,-1
 692 0 l 1,7,-1
 400 0 l 1,8,-1
 370 135 l 1,9,-1
 129 135 l 1,10,-1
 77 0 l 1,11,-1
 -1 0 l 1,12,-1
 247 606 l 1,13,-1
 687 606 l 1,14,-1
 687 536 l 1,15,-1
 362 536 l 1,0,-1
282 535 m 1,16,17
 270 496 270 496 263 480 c 2,18,-1
 156 206 l 1,19,-1
 355 206 l 1,20,-1
 295 480 l 2,21,22
 294 486 294 486 286 535 c 1,23,-1
 282 535 l 1,16,17
EndSplineSet
Position2: "'cpsp' Capital Spacing lookup 0 subtable" dx=5 dy=0 dh=10 dv=0
EndChar

StartChar: AEacute
Encoding: 508 508 13
Width: 725
Flags: MW
HStem: 0 71<468 692 468 692 400 692> 135 71<156 355 156 370 129 355> 275 71<422 648 422 422> 536 70<362 362 362 687> 664 117<396 552 396 552>
VStem: -1 693<0 71>
LayerCount: 2
Fore
SplineSet
457 664 m 1,0,-1
 396 664 l 1,1,-1
 472 781 l 1,2,-1
 552 781 l 1,3,-1
 552 778 l 1,4,-1
 457 664 l 1,0,-1
362 536 m 1,5,-1
 406 346 l 1,6,-1
 648 346 l 1,7,-1
 648 275 l 1,8,-1
 422 275 l 1,9,-1
 468 71 l 1,10,-1
 692 71 l 1,11,-1
 692 0 l 1,12,-1
 400 0 l 1,13,-1
 370 135 l 1,14,-1
 129 135 l 1,15,-1
 77 0 l 1,16,-1
 -1 0 l 1,17,-1
 247 606 l 1,18,-1
 687 606 l 1,19,-1
 687 536 l 1,20,-1
 362 536 l 1,5,-1
282 535 m 1,21,22
 270 496 270 496 263 480 c 2,23,-1
 156 206 l 1,24,-1
 355 206 l 1,25,-1
 295 480 l 2,26,27
 294 486 294 486 286 535 c 1,28,-1
 282 535 l 1,21,22
EndSplineSet
Position2: "'cpsp' Capital Spacing lookup 0 subtable" dx=5 dy=0 dh=10 dv=0
EndChar

StartChar: B
Encoding: 66 66 14
Width: 484
Flags: MW
HStem: 0 71<135 277 277 287> 275 71<135 264 264 271 135 264> 536 70<135 270 135 135>
VStem: 57 78<71 275 346 536> 362 82<423 473> 377 81<138.5 198.5>
LayerCount: 2
Fore
SplineSet
287 606 m 2,0,1
 355 606 355 606 399.5 565 c 128,-1,2
 444 524 444 524 444 465.5 c 0,3,4
 444 407 444 407 418 370 c 128,-1,5
 392 333 392 333 351 318 c 1,6,-1
 351 315 l 1,7,8
 398 300 398 300 428 259 c 128,-1,9
 458 218 458 218 458 161 c 0,10,11
 458 87 458 87 409 43.5 c 128,-1,12
 360 0 360 0 287 0 c 2,13,-1
 57 0 l 1,14,-1
 57 606 l 1,15,-1
 287 606 l 2,0,1
264 346 m 2,16,17
 308 346 308 346 335 373.5 c 128,-1,18
 362 401 362 401 362 444.5 c 0,19,20
 362 488 362 488 337.5 512 c 128,-1,21
 313 536 313 536 270 536 c 2,22,-1
 135 536 l 1,23,-1
 135 346 l 1,24,-1
 264 346 l 2,16,17
277 71 m 2,25,26
 321 71 321 71 349 97.5 c 128,-1,27
 377 124 377 124 377 169 c 0,28,29
 377 214 377 214 347.5 244.5 c 128,-1,30
 318 275 318 275 271 275 c 2,31,-1
 135 275 l 1,32,-1
 135 71 l 1,33,-1
 277 71 l 2,25,26
EndSplineSet
Position2: "'cpsp' Capital Spacing lookup 0 subtable" dx=5 dy=0 dh=10 dv=0
EndChar

StartChar: C
Encoding: 67 67 15
Width: 523
Flags: MW
HStem: -11 72<223 316.5 223 338> 545 72<223 315.5>
VStem: 37 81<207 281 281 325 207 408.5> 410 77<164.5 217>
LayerCount: 2
Fore
SplineSet
487 217 m 1,0,1
 487 104 487 104 430 46.5 c 128,-1,2
 373 -11 373 -11 276 -11 c 0,3,4
 37 -11 37 -11 37 303 c 128,-1,5
 37 617 37 617 276 617 c 0,6,7
 372 617 372 617 429.5 558.5 c 128,-1,8
 487 500 487 500 487 387 c 1,9,-1
 408 387 l 1,10,11
 408 464 408 464 372.5 504.5 c 128,-1,12
 337 545 337 545 276 545 c 0,13,14
 118 545 118 545 118 325 c 2,15,-1
 118 281 l 2,16,17
 118 61 118 61 276 61 c 0,18,19
 338 61 338 61 374 100.5 c 128,-1,20
 410 140 410 140 410 217 c 1,21,-1
 487 217 l 1,0,1
EndSplineSet
Position2: "'cpsp' Capital Spacing lookup 0 subtable" dx=5 dy=0 dh=10 dv=0
EndChar

StartChar: Cacute
Encoding: 262 262 16
Width: 523
Flags: MW
HStem: -11 72<223 316.5 223 338> 545 72<223 315.5> 664 117<222 377 222 377>
VStem: 37 81<207 281 281 325 207 408.5> 410 77<164.5 217>
LayerCount: 2
Fore
SplineSet
283 664 m 1,0,-1
 222 664 l 1,1,-1
 298 781 l 1,2,-1
 377 781 l 1,3,-1
 378 778 l 1,4,-1
 283 664 l 1,0,-1
487 217 m 1,5,6
 487 104 487 104 430 46.5 c 128,-1,7
 373 -11 373 -11 276 -11 c 0,8,9
 37 -11 37 -11 37 303 c 128,-1,10
 37 617 37 617 276 617 c 0,11,12
 372 617 372 617 429.5 558.5 c 128,-1,13
 487 500 487 500 487 387 c 1,14,-1
 408 387 l 1,15,16
 408 464 408 464 372.5 504.5 c 128,-1,17
 337 545 337 545 276 545 c 0,18,19
 118 545 118 545 118 325 c 2,20,-1
 118 281 l 2,21,22
 118 61 118 61 276 61 c 0,23,24
 338 61 338 61 374 100.5 c 128,-1,25
 410 140 410 140 410 217 c 1,26,-1
 487 217 l 1,5,6
EndSplineSet
Position2: "'cpsp' Capital Spacing lookup 0 subtable" dx=5 dy=0 dh=10 dv=0
EndChar

StartChar: Ccaron
Encoding: 268 268 17
Width: 523
Flags: MW
HStem: -11 72<223 316.5 223 338> 545 72<223 315.5> 661 120<151 295 151 226>
VStem: 37 81<207 281 281 325 207 408.5> 410 77<164.5 217>
LayerCount: 2
Fore
SplineSet
151 781 m 1,0,-1
 222 781 l 1,1,-1
 262 711 l 1,2,-1
 301 781 l 1,3,-1
 372 781 l 1,4,-1
 295 661 l 1,5,-1
 226 661 l 1,6,-1
 151 781 l 1,0,-1
487 217 m 1,7,8
 487 104 487 104 430 46.5 c 128,-1,9
 373 -11 373 -11 276 -11 c 0,10,11
 37 -11 37 -11 37 303 c 128,-1,12
 37 617 37 617 276 617 c 0,13,14
 372 617 372 617 429.5 558.5 c 128,-1,15
 487 500 487 500 487 387 c 1,16,-1
 408 387 l 1,17,18
 408 464 408 464 372.5 504.5 c 128,-1,19
 337 545 337 545 276 545 c 0,20,21
 118 545 118 545 118 325 c 2,22,-1
 118 281 l 2,23,24
 118 61 118 61 276 61 c 0,25,26
 338 61 338 61 374 100.5 c 128,-1,27
 410 140 410 140 410 217 c 1,28,-1
 487 217 l 1,7,8
EndSplineSet
Position2: "'cpsp' Capital Spacing lookup 0 subtable" dx=5 dy=0 dh=10 dv=0
EndChar

StartChar: Ccedilla
Encoding: 199 199 18
Width: 523
Flags: MW
HStem: -161 50<240.5 246 246 255.5 179 271> -68 36<218 273> -11 72<276 316.5 223 338> 545 72<223 315.5>
VStem: 37 81<209 281 281 325 207 408.5> 278 67<-97.5 -82> 410 77<164.5 217>
LayerCount: 2
Fore
SplineSet
228 -7 m 1,0,1
 37 22 37 22 37 303 c 0,2,3
 37 617 37 617 276 617 c 0,4,5
 372 617 372 617 429.5 558.5 c 128,-1,6
 487 500 487 500 487 387 c 1,7,-1
 408 387 l 1,8,9
 408 464 408 464 372.5 504.5 c 128,-1,10
 337 545 337 545 276 545 c 0,11,12
 118 545 118 545 118 325 c 2,13,-1
 118 281 l 2,14,15
 118 61 118 61 276 61 c 0,16,17
 338 61 338 61 374 100.5 c 128,-1,18
 410 140 410 140 410 217 c 1,19,-1
 487 217 l 1,20,21
 487 104 487 104 430 46.5 c 128,-1,22
 373 -11 373 -11 276 -11 c 1,23,-1
 273 -32 l 1,24,25
 345 -36 345 -36 345 -89 c 0,26,27
 345 -129 345 -129 317 -145 c 128,-1,28
 289 -161 289 -161 252.5 -161 c 0,29,30
 216 -161 216 -161 179 -154 c 1,31,-1
 179 -111 l 1,32,-1
 246 -111 l 2,33,34
 278 -111 278 -111 278 -89.5 c 0,35,36
 278 -68 278 -68 248 -68 c 2,37,-1
 218 -68 l 1,38,-1
 228 -7 l 1,0,1
EndSplineSet
Position2: "'cpsp' Capital Spacing lookup 0 subtable" dx=5 dy=0 dh=10 dv=0
EndChar

StartChar: Ccircumflex
Encoding: 264 264 19
Width: 523
Flags: MW
HStem: -11 72<223 316.5 223 338> 545 72<223 315.5> 660 120<151 296 151 296 227 301 227 372>
VStem: 37 81<207 281 281 325 207 408.5> 410 77<164.5 217>
LayerCount: 2
Fore
SplineSet
263 730 m 1,0,-1
 222 660 l 1,1,-1
 151 660 l 1,2,-1
 227 780 l 1,3,-1
 296 780 l 1,4,-1
 372 660 l 1,5,-1
 301 660 l 1,6,-1
 263 730 l 1,0,-1
487 217 m 1,7,8
 487 104 487 104 430 46.5 c 128,-1,9
 373 -11 373 -11 276 -11 c 0,10,11
 37 -11 37 -11 37 303 c 128,-1,12
 37 617 37 617 276 617 c 0,13,14
 372 617 372 617 429.5 558.5 c 128,-1,15
 487 500 487 500 487 387 c 1,16,-1
 408 387 l 1,17,18
 408 464 408 464 372.5 504.5 c 128,-1,19
 337 545 337 545 276 545 c 0,20,21
 118 545 118 545 118 325 c 2,22,-1
 118 281 l 2,23,24
 118 61 118 61 276 61 c 0,25,26
 338 61 338 61 374 100.5 c 128,-1,27
 410 140 410 140 410 217 c 1,28,-1
 487 217 l 1,7,8
EndSplineSet
Position2: "'cpsp' Capital Spacing lookup 0 subtable" dx=5 dy=0 dh=10 dv=0
EndChar

StartChar: Cdotaccent
Encoding: 266 266 20
Width: 523
Flags: MW
HStem: -11 72<223 316.5 223 338> 545 72<223 315.5> 697 84<223 301 223 301>
VStem: 37 81<207 281 281 325 207 408.5> 223 78<697 781 697 781> 410 77<164.5 217>
LayerCount: 2
Fore
SplineSet
223 781 m 1,0,-1
 301 781 l 1,1,-1
 301 697 l 1,2,-1
 223 697 l 1,3,-1
 223 781 l 1,0,-1
487 217 m 1,4,5
 487 104 487 104 430 46.5 c 128,-1,6
 373 -11 373 -11 276 -11 c 0,7,8
 37 -11 37 -11 37 303 c 128,-1,9
 37 617 37 617 276 617 c 0,10,11
 372 617 372 617 429.5 558.5 c 128,-1,12
 487 500 487 500 487 387 c 1,13,-1
 408 387 l 1,14,15
 408 464 408 464 372.5 504.5 c 128,-1,16
 337 545 337 545 276 545 c 0,17,18
 118 545 118 545 118 325 c 2,19,-1
 118 281 l 2,20,21
 118 61 118 61 276 61 c 0,22,23
 338 61 338 61 374 100.5 c 128,-1,24
 410 140 410 140 410 217 c 1,25,-1
 487 217 l 1,4,5
EndSplineSet
Position2: "'cpsp' Capital Spacing lookup 0 subtable" dx=5 dy=0 dh=10 dv=0
EndChar

StartChar: D
Encoding: 68 68 21
Width: 523
Flags: MW
HStem: 0 71<140 243 243 250> 536 70<140 243 140 140>
VStem: 62 78<71 536 71 606 71 606> 399 81<290 334 334 401.5>
LayerCount: 2
Fore
SplineSet
250 606 m 2,0,1
 359 606 359 606 419.5 531 c 128,-1,2
 480 456 480 456 480 307.5 c 0,3,4
 480 159 480 159 419.5 79.5 c 128,-1,5
 359 0 359 0 250 0 c 2,6,-1
 62 0 l 1,7,-1
 62 606 l 1,8,-1
 250 606 l 2,0,1
243 71 m 2,9,10
 317 71 317 71 358 126 c 128,-1,11
 399 181 399 181 399 290 c 2,12,-1
 399 334 l 2,13,14
 399 433 399 433 358 484.5 c 128,-1,15
 317 536 317 536 243 536 c 2,16,-1
 140 536 l 1,17,-1
 140 71 l 1,18,-1
 243 71 l 2,9,10
EndSplineSet
Position2: "'cpsp' Capital Spacing lookup 0 subtable" dx=5 dy=0 dh=10 dv=0
EndChar

StartChar: Eth
Encoding: 208 208 22
Width: 523
Flags: MW
HStem: 0 71<140 243 243 250> 286 56<4 62 4 62 140 278> 536 70<140 243 140 140>
VStem: 62 78<71 286 71 286 71 286 342 536> 399 81<290 334 334 401.5>
LayerCount: 2
Fore
SplineSet
62 606 m 1,0,-1
 250 606 l 2,1,2
 359 606 359 606 419.5 531 c 128,-1,3
 480 456 480 456 480 307.5 c 0,4,5
 480 159 480 159 419.5 79.5 c 128,-1,6
 359 0 359 0 250 0 c 2,7,-1
 62 0 l 1,8,-1
 62 286 l 1,9,-1
 4 286 l 1,10,-1
 4 342 l 1,11,-1
 62 342 l 1,12,-1
 62 606 l 1,0,-1
278 342 m 1,13,-1
 278 286 l 1,14,-1
 140 286 l 1,15,-1
 140 71 l 1,16,-1
 243 71 l 2,17,18
 317 71 317 71 358 126 c 128,-1,19
 399 181 399 181 399 290 c 2,20,-1
 399 334 l 2,21,22
 399 433 399 433 358 484.5 c 128,-1,23
 317 536 317 536 243 536 c 2,24,-1
 140 536 l 1,25,-1
 140 342 l 1,26,-1
 278 342 l 1,13,-1
EndSplineSet
Position2: "'cpsp' Capital Spacing lookup 0 subtable" dx=5 dy=0 dh=10 dv=0
EndChar

StartChar: Dcaron
Encoding: 270 270 23
Width: 523
Flags: MW
HStem: 0 71<140 243 243 250> 536 70<140 243 140 140> 661 120<151 295 151 226>
VStem: 62 78<71 536 71 606 71 606> 399 81<290 334 334 401.5>
LayerCount: 2
Fore
SplineSet
151 781 m 1,0,-1
 222 781 l 1,1,-1
 262 711 l 1,2,-1
 301 781 l 1,3,-1
 372 781 l 1,4,-1
 295 661 l 1,5,-1
 226 661 l 1,6,-1
 151 781 l 1,0,-1
250 606 m 2,7,8
 359 606 359 606 419.5 531 c 128,-1,9
 480 456 480 456 480 307.5 c 0,10,11
 480 159 480 159 419.5 79.5 c 128,-1,12
 359 0 359 0 250 0 c 2,13,-1
 62 0 l 1,14,-1
 62 606 l 1,15,-1
 250 606 l 2,7,8
243 71 m 2,16,17
 317 71 317 71 358 126 c 128,-1,18
 399 181 399 181 399 290 c 2,19,-1
 399 334 l 2,20,21
 399 433 399 433 358 484.5 c 128,-1,22
 317 536 317 536 243 536 c 2,23,-1
 140 536 l 1,24,-1
 140 71 l 1,25,-1
 243 71 l 2,16,17
EndSplineSet
Position2: "'cpsp' Capital Spacing lookup 0 subtable" dx=5 dy=0 dh=10 dv=0
EndChar

StartChar: Dcroat
Encoding: 272 272 24
Width: 523
Flags: MW
HStem: 0 71<140 243 243 250> 286 56<4 62 4 62 140 278> 536 70<140 243 140 140>
VStem: 62 78<71 286 71 286 71 286 342 536> 399 81<290 334 334 401.5>
LayerCount: 2
Fore
SplineSet
62 606 m 1,0,-1
 250 606 l 2,1,2
 359 606 359 606 419.5 531 c 128,-1,3
 480 456 480 456 480 307.5 c 0,4,5
 480 159 480 159 419.5 79.5 c 128,-1,6
 359 0 359 0 250 0 c 2,7,-1
 62 0 l 1,8,-1
 62 286 l 1,9,-1
 4 286 l 1,10,-1
 4 342 l 1,11,-1
 62 342 l 1,12,-1
 62 606 l 1,0,-1
278 342 m 1,13,-1
 278 286 l 1,14,-1
 140 286 l 1,15,-1
 140 71 l 1,16,-1
 243 71 l 2,17,18
 317 71 317 71 358 126 c 128,-1,19
 399 181 399 181 399 290 c 2,20,-1
 399 334 l 2,21,22
 399 433 399 433 358 484.5 c 128,-1,23
 317 536 317 536 243 536 c 2,24,-1
 140 536 l 1,25,-1
 140 342 l 1,26,-1
 278 342 l 1,13,-1
EndSplineSet
Position2: "'cpsp' Capital Spacing lookup 0 subtable" dx=5 dy=0 dh=10 dv=0
EndChar

StartChar: E
Encoding: 69 69 25
Width: 484
Flags: MW
HStem: 0 71<140 441 140 441> 275 71<140 397 140 397> 536 70<140 436 140 140>
VStem: 62 78<71 275 346 536>
LayerCount: 2
Fore
SplineSet
436 606 m 1,0,-1
 436 536 l 1,1,-1
 140 536 l 1,2,-1
 140 346 l 1,3,-1
 397 346 l 1,4,-1
 397 275 l 1,5,-1
 140 275 l 1,6,-1
 140 71 l 1,7,-1
 441 71 l 1,8,-1
 441 0 l 1,9,-1
 62 0 l 1,10,-1
 62 606 l 1,11,-1
 436 606 l 1,0,-1
EndSplineSet
Position2: "'cpsp' Capital Spacing lookup 0 subtable" dx=5 dy=0 dh=10 dv=0
EndChar

StartChar: Eacute
Encoding: 201 201 26
Width: 484
Flags: MW
HStem: 0 71<140 441 140 441> 275 71<140 397 140 397> 536 70<140 140 140 436> 664 117<189 345 189 345>
VStem: 62 78<71 275 346 536>
LayerCount: 2
Fore
SplineSet
250 664 m 1,0,-1
 189 664 l 1,1,-1
 265 781 l 1,2,-1
 345 781 l 1,3,-1
 346 778 l 1,4,-1
 250 664 l 1,0,-1
140 536 m 1,5,-1
 140 346 l 1,6,-1
 397 346 l 1,7,-1
 397 275 l 1,8,-1
 140 275 l 1,9,-1
 140 71 l 1,10,-1
 441 71 l 1,11,-1
 441 0 l 1,12,-1
 62 0 l 1,13,-1
 62 606 l 1,14,-1
 436 606 l 1,15,-1
 436 536 l 1,16,-1
 140 536 l 1,5,-1
EndSplineSet
Position2: "'cpsp' Capital Spacing lookup 0 subtable" dx=5 dy=0 dh=10 dv=0
EndChar

StartChar: Ebreve
Encoding: 276 276 27
Width: 484
Flags: MW
HStem: 0 71<140 441 140 441> 275 71<140 397 140 397> 536 70<140 436 140 140> 695 56<226.5 256 226.5 275>
VStem: 62 78<71 275 346 536>
LayerCount: 2
Fore
SplineSet
351 781 m 1,0,1
 351 749 351 749 320 722 c 128,-1,2
 289 695 289 695 241 695 c 128,-1,3
 193 695 193 695 163 722 c 128,-1,4
 133 749 133 749 133 781 c 1,5,-1
 189 781 l 1,6,7
 192 770 192 770 206.5 760.5 c 128,-1,8
 221 751 221 751 241.5 751 c 0,9,10
 262 751 262 751 277.5 760.5 c 128,-1,11
 293 770 293 770 294 781 c 1,12,-1
 351 781 l 1,0,1
436 606 m 1,13,-1
 436 536 l 1,14,-1
 140 536 l 1,15,-1
 140 346 l 1,16,-1
 397 346 l 1,17,-1
 397 275 l 1,18,-1
 140 275 l 1,19,-1
 140 71 l 1,20,-1
 441 71 l 1,21,-1
 441 0 l 1,22,-1
 62 0 l 1,23,-1
 62 606 l 1,24,-1
 436 606 l 1,13,-1
EndSplineSet
Position2: "'cpsp' Capital Spacing lookup 0 subtable" dx=5 dy=0 dh=10 dv=0
EndChar

StartChar: Ecaron
Encoding: 282 282 28
Width: 484
Flags: MW
HStem: 0 71<140 441 140 441> 275 71<140 397 140 397> 536 70<140 436 140 140> 661 120<132 276 132 207>
VStem: 62 78<71 275 346 536>
LayerCount: 2
Fore
SplineSet
132 781 m 1,0,-1
 202 781 l 1,1,-1
 241 711 l 1,2,-1
 281 781 l 1,3,-1
 352 781 l 1,4,-1
 276 661 l 1,5,-1
 207 661 l 1,6,-1
 132 781 l 1,0,-1
436 606 m 1,7,-1
 436 536 l 1,8,-1
 140 536 l 1,9,-1
 140 346 l 1,10,-1
 397 346 l 1,11,-1
 397 275 l 1,12,-1
 140 275 l 1,13,-1
 140 71 l 1,14,-1
 441 71 l 1,15,-1
 441 0 l 1,16,-1
 62 0 l 1,17,-1
 62 606 l 1,18,-1
 436 606 l 1,7,-1
EndSplineSet
Position2: "'cpsp' Capital Spacing lookup 0 subtable" dx=5 dy=0 dh=10 dv=0
EndChar

StartChar: Ecircumflex
Encoding: 202 202 29
Width: 484
Flags: MW
HStem: 0 71<140 441 140 441> 275 71<140 397 140 397> 536 70<140 436 140 140> 660 120<132 277 132 277 208 281 208 352>
VStem: 62 78<71 275 346 536>
LayerCount: 2
Fore
SplineSet
242 730 m 1,0,-1
 202 660 l 1,1,-1
 132 660 l 1,2,-1
 208 780 l 1,3,-1
 277 780 l 1,4,-1
 352 660 l 1,5,-1
 281 660 l 1,6,-1
 242 730 l 1,0,-1
436 606 m 1,7,-1
 436 536 l 1,8,-1
 140 536 l 1,9,-1
 140 346 l 1,10,-1
 397 346 l 1,11,-1
 397 275 l 1,12,-1
 140 275 l 1,13,-1
 140 71 l 1,14,-1
 441 71 l 1,15,-1
 441 0 l 1,16,-1
 62 0 l 1,17,-1
 62 606 l 1,18,-1
 436 606 l 1,7,-1
EndSplineSet
Position2: "'cpsp' Capital Spacing lookup 0 subtable" dx=5 dy=0 dh=10 dv=0
EndChar

StartChar: Edieresis
Encoding: 203 203 30
Width: 484
Flags: MW
HStem: 0 71<140 441 140 441> 275 71<140 397 140 397> 536 70<140 140 140 436> 697 84<137 214 137 214 270 347 137 270>
VStem: 62 78<71 275 346 536> 137 77<697 781 697 781> 270 77<697 781 697 781>
LayerCount: 2
Fore
SplineSet
137 697 m 1,0,-1
 137 781 l 1,1,-1
 214 781 l 1,2,-1
 214 697 l 1,3,-1
 137 697 l 1,0,-1
270 697 m 1,4,-1
 270 781 l 1,5,-1
 347 781 l 1,6,-1
 347 697 l 1,7,-1
 270 697 l 1,4,-1
140 536 m 1,8,-1
 140 346 l 1,9,-1
 397 346 l 1,10,-1
 397 275 l 1,11,-1
 140 275 l 1,12,-1
 140 71 l 1,13,-1
 441 71 l 1,14,-1
 441 0 l 1,15,-1
 62 0 l 1,16,-1
 62 606 l 1,17,-1
 436 606 l 1,18,-1
 436 536 l 1,19,-1
 140 536 l 1,8,-1
EndSplineSet
Position2: "'cpsp' Capital Spacing lookup 0 subtable" dx=5 dy=0 dh=10 dv=0
EndChar

StartChar: Edotaccent
Encoding: 278 278 31
Width: 484
Flags: MW
HStem: 0 71<140 441 140 441> 275 71<140 397 140 397> 536 70<140 436 140 140> 697 84<203 280 203 280>
VStem: 62 78<71 275 346 536> 203 77<697 781 697 781>
LayerCount: 2
Fore
SplineSet
203 781 m 1,0,-1
 280 781 l 1,1,-1
 280 697 l 1,2,-1
 203 697 l 1,3,-1
 203 781 l 1,0,-1
436 606 m 1,4,-1
 436 536 l 1,5,-1
 140 536 l 1,6,-1
 140 346 l 1,7,-1
 397 346 l 1,8,-1
 397 275 l 1,9,-1
 140 275 l 1,10,-1
 140 71 l 1,11,-1
 441 71 l 1,12,-1
 441 0 l 1,13,-1
 62 0 l 1,14,-1
 62 606 l 1,15,-1
 436 606 l 1,4,-1
EndSplineSet
Position2: "'cpsp' Capital Spacing lookup 0 subtable" dx=5 dy=0 dh=10 dv=0
EndChar

StartChar: Egrave
Encoding: 200 200 32
Width: 484
Flags: MW
HStem: 0 71<140 441 140 441> 275 71<140 397 140 397> 536 70<140 140 140 436> 664 117<139 233 139 294>
VStem: 62 78<71 275 346 536>
LayerCount: 2
Fore
SplineSet
233 664 m 1,0,-1
 138 778 l 1,1,-1
 139 781 l 1,2,-1
 218 781 l 1,3,-1
 294 664 l 1,4,-1
 233 664 l 1,0,-1
140 536 m 1,5,-1
 140 346 l 1,6,-1
 397 346 l 1,7,-1
 397 275 l 1,8,-1
 140 275 l 1,9,-1
 140 71 l 1,10,-1
 441 71 l 1,11,-1
 441 0 l 1,12,-1
 62 0 l 1,13,-1
 62 606 l 1,14,-1
 436 606 l 1,15,-1
 436 536 l 1,16,-1
 140 536 l 1,5,-1
EndSplineSet
Position2: "'cpsp' Capital Spacing lookup 0 subtable" dx=5 dy=0 dh=10 dv=0
EndChar

StartChar: Emacron
Encoding: 274 274 33
Width: 484
Flags: MW
HStem: 0 71<140 441 140 441> 275 71<140 397 140 397> 536 70<140 436 140 140> 671 64<131 353 131 353>
VStem: 62 78<71 275 346 536> 131 222<671 735 671 735>
LayerCount: 2
Fore
SplineSet
131 735 m 1,0,-1
 353 735 l 1,1,-1
 353 671 l 1,2,-1
 131 671 l 1,3,-1
 131 735 l 1,0,-1
436 606 m 1,4,-1
 436 536 l 1,5,-1
 140 536 l 1,6,-1
 140 346 l 1,7,-1
 397 346 l 1,8,-1
 397 275 l 1,9,-1
 140 275 l 1,10,-1
 140 71 l 1,11,-1
 441 71 l 1,12,-1
 441 0 l 1,13,-1
 62 0 l 1,14,-1
 62 606 l 1,15,-1
 436 606 l 1,4,-1
EndSplineSet
Position2: "'cpsp' Capital Spacing lookup 0 subtable" dx=5 dy=0 dh=10 dv=0
EndChar

StartChar: Eogonek
Encoding: 280 280 34
Width: 484
Flags: MW
HStem: -161 58<415 488> 0 71<140 384 140 441> 275 71<140 397 140 397> 536 70<140 436 140 140>
VStem: 62 78<71 275 346 536> 351 69<-67.5 -62.5>
LayerCount: 2
Fore
SplineSet
140 346 m 1,0,-1
 397 346 l 1,1,-1
 397 275 l 1,2,-1
 140 275 l 1,3,-1
 140 71 l 1,4,-1
 441 71 l 1,5,-1
 441 0 l 1,6,7
 420 -27 420 -27 420 -55 c 0,8,9
 420 -103 420 -103 461 -103 c 2,10,-1
 488 -103 l 1,11,-1
 488 -149 l 1,12,13
 455 -161 455 -161 427.5 -161 c 0,14,15
 400 -161 400 -161 375.5 -142 c 128,-1,16
 351 -123 351 -123 351 -79 c 0,17,18
 351 -35 351 -35 384 0 c 1,19,-1
 62 0 l 1,20,-1
 62 606 l 1,21,-1
 436 606 l 1,22,-1
 436 536 l 1,23,-1
 140 536 l 1,24,-1
 140 346 l 1,0,-1
EndSplineSet
Position2: "'cpsp' Capital Spacing lookup 0 subtable" dx=5 dy=0 dh=10 dv=0
EndChar

StartChar: F
Encoding: 70 70 35
Width: 443
Flags: MW
HStem: 269 70<140 380 140 380> 536 70<140 412 140 140>
VStem: 62 78<0 269 339 536>
LayerCount: 2
Fore
SplineSet
412 606 m 1,0,-1
 412 536 l 1,1,-1
 140 536 l 1,2,-1
 140 339 l 1,3,-1
 380 339 l 1,4,-1
 380 269 l 1,5,-1
 140 269 l 1,6,-1
 140 0 l 1,7,-1
 62 0 l 1,8,-1
 62 606 l 1,9,-1
 412 606 l 1,0,-1
EndSplineSet
Position2: "'cpsp' Capital Spacing lookup 0 subtable" dx=5 dy=0 dh=10 dv=0
EndChar

StartChar: G
Encoding: 71 71 36
Width: 564
Flags: MW
HStem: -11 72<231 314.5> 248 68<270 427 270 507> 545 72<236.5 328>
VStem: 43 82<207 281 281 325 207 408.5> 427 80<233 248 248 248 400 450>
LayerCount: 2
Fore
SplineSet
270 316 m 1,0,-1
 507 316 l 1,1,-1
 507 0 l 1,2,-1
 455 0 l 1,3,-1
 438 67 l 1,4,5
 386 -11 386 -11 276 -11 c 0,6,7
 166 -11 166 -11 104.5 68 c 128,-1,8
 43 147 43 147 43 302.5 c 0,9,10
 43 458 43 458 106.5 537.5 c 128,-1,11
 170 617 170 617 286 617 c 0,12,13
 385 617 385 617 446 561.5 c 128,-1,14
 507 506 507 506 507 400 c 1,15,-1
 427 400 l 1,16,17
 427 473 427 473 389.5 509 c 128,-1,18
 352 545 352 545 281 545 c 0,19,20
 210 545 210 545 167.5 489.5 c 128,-1,21
 125 434 125 434 125 325 c 2,22,-1
 125 281 l 2,23,24
 125 61 125 61 282 61 c 0,25,26
 357 61 357 61 392 103.5 c 128,-1,27
 427 146 427 146 427 233 c 2,28,-1
 427 248 l 1,29,-1
 270 248 l 1,30,-1
 270 316 l 1,0,-1
EndSplineSet
Position2: "'cpsp' Capital Spacing lookup 0 subtable" dx=5 dy=0 dh=10 dv=0
EndChar

StartChar: Gbreve
Encoding: 286 286 37
Width: 564
Flags: MW
HStem: -11 72<231 314.5> 248 68<270 427 270 507> 545 72<236.5 328> 695 56<267.5 297 267.5 316>
VStem: 43 82<207 281 281 325 207 408.5> 427 80<233 248 248 248 400 450>
LayerCount: 2
Fore
SplineSet
392 781 m 1,0,1
 392 749 392 749 361 722 c 128,-1,2
 330 695 330 695 282 695 c 128,-1,3
 234 695 234 695 203.5 722 c 128,-1,4
 173 749 173 749 173 781 c 1,5,-1
 230 781 l 1,6,7
 232 770 232 770 247 760.5 c 128,-1,8
 262 751 262 751 282.5 751 c 0,9,10
 303 751 303 751 318 760.5 c 128,-1,11
 333 770 333 770 335 781 c 1,12,-1
 392 781 l 1,0,1
270 316 m 1,13,-1
 507 316 l 1,14,-1
 507 0 l 1,15,-1
 455 0 l 1,16,-1
 438 67 l 1,17,18
 386 -11 386 -11 276 -11 c 0,19,20
 166 -11 166 -11 104.5 68 c 128,-1,21
 43 147 43 147 43 302.5 c 0,22,23
 43 458 43 458 106.5 537.5 c 128,-1,24
 170 617 170 617 286 617 c 0,25,26
 385 617 385 617 446 561.5 c 128,-1,27
 507 506 507 506 507 400 c 1,28,-1
 427 400 l 1,29,30
 427 473 427 473 389.5 509 c 128,-1,31
 352 545 352 545 281 545 c 0,32,33
 210 545 210 545 167.5 489.5 c 128,-1,34
 125 434 125 434 125 325 c 2,35,-1
 125 281 l 2,36,37
 125 61 125 61 282 61 c 0,38,39
 357 61 357 61 392 103.5 c 128,-1,40
 427 146 427 146 427 233 c 2,41,-1
 427 248 l 1,42,-1
 270 248 l 1,43,-1
 270 316 l 1,13,-1
EndSplineSet
Position2: "'cpsp' Capital Spacing lookup 0 subtable" dx=5 dy=0 dh=10 dv=0
EndChar

StartChar: Gcircumflex
Encoding: 284 284 38
Width: 564
Flags: MW
HStem: -11 72<231 314.5> 248 68<270 427 270 507> 545 72<236.5 328> 660 120<172 317 172 317 248 322 248 392>
VStem: 43 82<207 281 281 325 207 408.5> 427 80<233 248 248 248 400 450>
LayerCount: 2
Fore
SplineSet
243 660 m 1,0,-1
 172 660 l 1,1,-1
 248 780 l 1,2,-1
 317 780 l 1,3,-1
 392 660 l 1,4,-1
 322 660 l 1,5,-1
 283 730 l 1,6,-1
 243 660 l 1,0,-1
270 316 m 1,7,-1
 507 316 l 1,8,-1
 507 0 l 1,9,-1
 455 0 l 1,10,-1
 438 67 l 1,11,12
 386 -11 386 -11 276 -11 c 0,13,14
 166 -11 166 -11 104.5 68 c 128,-1,15
 43 147 43 147 43 302.5 c 0,16,17
 43 458 43 458 106.5 537.5 c 128,-1,18
 170 617 170 617 286 617 c 0,19,20
 385 617 385 617 446 561.5 c 128,-1,21
 507 506 507 506 507 400 c 1,22,-1
 427 400 l 1,23,24
 427 473 427 473 389.5 509 c 128,-1,25
 352 545 352 545 281 545 c 0,26,27
 210 545 210 545 167.5 489.5 c 128,-1,28
 125 434 125 434 125 325 c 2,29,-1
 125 281 l 2,30,31
 125 61 125 61 282 61 c 0,32,33
 357 61 357 61 392 103.5 c 128,-1,34
 427 146 427 146 427 233 c 2,35,-1
 427 248 l 1,36,-1
 270 248 l 1,37,-1
 270 316 l 1,7,-1
EndSplineSet
Position2: "'cpsp' Capital Spacing lookup 0 subtable" dx=5 dy=0 dh=10 dv=0
EndChar

StartChar: Gcommaaccent
Encoding: 290 290 39
Width: 564
Flags: MW
HStem: -133 80<245 275 245 320> -11 72<231 314.5> 248 68<270 427 270 507> 545 72<236.5 328>
VStem: 43 82<207 281 281 325 207 408.5> 245 75<-127 -53 -127 -53 -127 -53> 427 80<233 248 248 248 400 450>
LayerCount: 2
Fore
SplineSet
270 316 m 1,0,-1
 507 316 l 1,1,-1
 507 0 l 1,2,-1
 455 0 l 1,3,-1
 438 67 l 1,4,5
 386 -11 386 -11 276 -11 c 0,6,7
 166 -11 166 -11 104.5 68 c 128,-1,8
 43 147 43 147 43 302.5 c 0,9,10
 43 458 43 458 106.5 537.5 c 128,-1,11
 170 617 170 617 286 617 c 0,12,13
 385 617 385 617 446 561.5 c 128,-1,14
 507 506 507 506 507 400 c 1,15,-1
 427 400 l 1,16,17
 427 473 427 473 389.5 509 c 128,-1,18
 352 545 352 545 281 545 c 0,19,20
 210 545 210 545 167.5 489.5 c 128,-1,21
 125 434 125 434 125 325 c 2,22,-1
 125 281 l 2,23,24
 125 61 125 61 282 61 c 0,25,26
 357 61 357 61 392 103.5 c 128,-1,27
 427 146 427 146 427 233 c 2,28,-1
 427 248 l 1,29,-1
 270 248 l 1,30,-1
 270 316 l 1,0,-1
245 -53 m 1,31,-1
 320 -53 l 1,32,-1
 320 -127 l 1,33,-1
 294 -196 l 1,34,-1
 255 -196 l 1,35,-1
 275 -133 l 1,36,-1
 245 -133 l 1,37,-1
 245 -53 l 1,31,-1
EndSplineSet
Position2: "'cpsp' Capital Spacing lookup 0 subtable" dx=5 dy=0 dh=10 dv=0
EndChar

StartChar: Gdotaccent
Encoding: 288 288 40
Width: 564
Flags: MW
HStem: -11 72<231 314.5> 248 68<270 427 270 507> 545 72<236.5 328> 697 84<244 321 244 321>
VStem: 43 82<207 281 281 325 207 408.5> 244 77<697 781> 427 80<233 248 248 248 400 450>
LayerCount: 2
Fore
SplineSet
321 697 m 1,0,-1
 244 697 l 1,1,-1
 244 781 l 1,2,-1
 321 781 l 1,3,-1
 321 697 l 1,0,-1
270 316 m 1,4,-1
 507 316 l 1,5,-1
 507 0 l 1,6,-1
 455 0 l 1,7,-1
 438 67 l 1,8,9
 386 -11 386 -11 276 -11 c 0,10,11
 166 -11 166 -11 104.5 68 c 128,-1,12
 43 147 43 147 43 302.5 c 0,13,14
 43 458 43 458 106.5 537.5 c 128,-1,15
 170 617 170 617 286 617 c 0,16,17
 385 617 385 617 446 561.5 c 128,-1,18
 507 506 507 506 507 400 c 1,19,-1
 427 400 l 1,20,21
 427 473 427 473 389.5 509 c 128,-1,22
 352 545 352 545 281 545 c 0,23,24
 210 545 210 545 167.5 489.5 c 128,-1,25
 125 434 125 434 125 325 c 2,26,-1
 125 281 l 2,27,28
 125 61 125 61 282 61 c 0,29,30
 357 61 357 61 392 103.5 c 128,-1,31
 427 146 427 146 427 233 c 2,32,-1
 427 248 l 1,33,-1
 270 248 l 1,34,-1
 270 316 l 1,4,-1
EndSplineSet
Position2: "'cpsp' Capital Spacing lookup 0 subtable" dx=5 dy=0 dh=10 dv=0
EndChar

StartChar: H
Encoding: 72 72 41
Width: 523
Flags: MW
HStem: 275 71<140 384 140 384> 586 20G<62 140 140 140 384 461 461 461>
VStem: 62 78<0 275 0 346 346 606> 384 77<0 275 275 275 346 606 0 606>
LayerCount: 2
Fore
SplineSet
384 0 m 1,0,-1
 384 275 l 1,1,-1
 140 275 l 1,2,-1
 140 0 l 1,3,-1
 62 0 l 1,4,-1
 62 606 l 1,5,-1
 140 606 l 1,6,-1
 140 346 l 1,7,-1
 384 346 l 1,8,-1
 384 606 l 1,9,-1
 461 606 l 1,10,-1
 461 0 l 1,11,-1
 384 0 l 1,0,-1
EndSplineSet
Position2: "'cpsp' Capital Spacing lookup 0 subtable" dx=5 dy=0 dh=10 dv=0
EndChar

StartChar: Hbar
Encoding: 294 294 42
Width: 523
Flags: MW
HStem: 271 70<140 384 140 384> 433 64<18 62 18 62 140 384 461 506> 433 173<18 140 18 140 62 384 62 140>
VStem: 62 78<0 271 0 341 341 433 497 606> 384 77<0 271 271 271 341 433 497 606>
LayerCount: 2
Fore
SplineSet
461 0 m 1,0,-1
 384 0 l 1,1,-1
 384 271 l 1,2,-1
 140 271 l 1,3,-1
 140 0 l 1,4,-1
 62 0 l 1,5,-1
 62 433 l 1,6,-1
 18 433 l 1,7,-1
 18 497 l 1,8,-1
 62 497 l 1,9,-1
 62 606 l 1,10,-1
 140 606 l 1,11,-1
 140 497 l 1,12,-1
 384 497 l 1,13,-1
 384 606 l 1,14,-1
 461 606 l 1,15,-1
 461 497 l 1,16,-1
 506 497 l 1,17,-1
 506 433 l 1,18,-1
 461 433 l 1,19,-1
 461 0 l 1,0,-1
140 433 m 1,20,-1
 140 341 l 1,21,-1
 384 341 l 1,22,-1
 384 433 l 1,23,-1
 140 433 l 1,20,-1
EndSplineSet
Position2: "'cpsp' Capital Spacing lookup 0 subtable" dx=5 dy=0 dh=10 dv=0
EndChar

StartChar: Hcircumflex
Encoding: 292 292 43
Width: 523
Flags: MW
HStem: 275 71<140 384 140 384> 586 20G<62 140 140 140 384 461 461 461> 660 120<151 296 151 296 227 372 227 301>
VStem: 62 78<0 275 0 346 346 606> 384 77<0 275 275 275 346 606 0 606>
LayerCount: 2
Fore
SplineSet
301 660 m 1,0,-1
 263 730 l 1,1,-1
 222 660 l 1,2,-1
 151 660 l 1,3,-1
 227 780 l 1,4,-1
 296 780 l 1,5,-1
 372 660 l 1,6,-1
 301 660 l 1,0,-1
384 0 m 1,7,-1
 384 275 l 1,8,-1
 140 275 l 1,9,-1
 140 0 l 1,10,-1
 62 0 l 1,11,-1
 62 606 l 1,12,-1
 140 606 l 1,13,-1
 140 346 l 1,14,-1
 384 346 l 1,15,-1
 384 606 l 1,16,-1
 461 606 l 1,17,-1
 461 0 l 1,18,-1
 384 0 l 1,7,-1
EndSplineSet
Position2: "'cpsp' Capital Spacing lookup 0 subtable" dx=5 dy=0 dh=10 dv=0
EndChar

StartChar: I
Encoding: 73 73 44
Width: 202
Flags: MW
HStem: 586 20G<62 140 140 140>
VStem: 62 78<0 606 0 606>
LayerCount: 2
Fore
SplineSet
62 606 m 1,0,-1
 140 606 l 1,1,-1
 140 0 l 1,2,-1
 62 0 l 1,3,-1
 62 606 l 1,0,-1
EndSplineSet
Position2: "'cpsp' Capital Spacing lookup 0 subtable" dx=5 dy=0 dh=10 dv=0
EndChar

StartChar: IJ
Encoding: 306 306 45
Width: 564
Flags: MW
HStem: -11 72<338 382 338 406.5> 0 184<62 291 62 291> 586 20G<62 140 140 140 429 507 507 507>
VStem: 62 78<0 606 0 606> 213 78<144 184 114 184> 429 78<140 144 144 606>
LayerCount: 2
Fore
SplineSet
62 0 m 1,0,-1
 62 606 l 1,1,-1
 140 606 l 1,2,-1
 140 0 l 1,3,-1
 62 0 l 1,0,-1
507 144 m 2,4,5
 507 69 507 69 468.5 29 c 128,-1,6
 430 -11 430 -11 360 -11 c 128,-1,7
 290 -11 290 -11 251.5 29 c 128,-1,8
 213 69 213 69 213 144 c 2,9,-1
 213 184 l 1,10,-1
 291 184 l 1,11,-1
 291 140 l 2,12,13
 291 61 291 61 360 61 c 128,-1,14
 429 61 429 61 429 140 c 2,15,-1
 429 606 l 1,16,-1
 507 606 l 1,17,-1
 507 144 l 2,4,5
EndSplineSet
Position2: "'cpsp' Capital Spacing lookup 0 subtable" dx=5 dy=0 dh=10 dv=0
EndChar

StartChar: Iacute
Encoding: 205 205 46
Width: 202
Flags: MW
HStem: 586 20G<62 140 140 140> 664 117<49 203 49 203>
VStem: 62 78<0 606 0 606>
LayerCount: 2
Fore
SplineSet
110 664 m 1,0,-1
 49 664 l 1,1,-1
 125 781 l 1,2,-1
 203 781 l 1,3,-1
 204 778 l 1,4,-1
 110 664 l 1,0,-1
62 0 m 1,5,-1
 62 606 l 1,6,-1
 140 606 l 1,7,-1
 140 0 l 1,8,-1
 62 0 l 1,5,-1
EndSplineSet
Position2: "'cpsp' Capital Spacing lookup 0 subtable" dx=5 dy=0 dh=10 dv=0
EndChar

StartChar: Ibreve
Encoding: 300 300 47
Width: 202
Flags: MW
HStem: 586 20G<62 140 140 140> 695 56<86.5 116 86.5 135>
VStem: 62 78<0 606 0 606>
LayerCount: 2
Fore
SplineSet
210 781 m 1,0,1
 210 749 210 749 179.5 722 c 128,-1,2
 149 695 149 695 101 695 c 128,-1,3
 53 695 53 695 22 722 c 128,-1,4
 -9 749 -9 749 -9 781 c 1,5,-1
 49 781 l 1,6,7
 51 770 51 770 66 760.5 c 128,-1,8
 81 751 81 751 101.5 751 c 0,9,10
 122 751 122 751 137 760.5 c 128,-1,11
 152 770 152 770 154 781 c 1,12,-1
 210 781 l 1,0,1
62 606 m 1,13,-1
 140 606 l 1,14,-1
 140 0 l 1,15,-1
 62 0 l 1,16,-1
 62 606 l 1,13,-1
EndSplineSet
Position2: "'cpsp' Capital Spacing lookup 0 subtable" dx=5 dy=0 dh=10 dv=0
EndChar

StartChar: Icircumflex
Encoding: 206 206 48
Width: 202
Flags: MW
HStem: 586 20G<62 140 140 140> 660 120<-10 136 -10 136 67 141 67 211>
VStem: 62 78<0 606 0 606 0 660>
LayerCount: 2
Fore
SplineSet
102 730 m 1,0,-1
 62 660 l 1,1,-1
 -10 660 l 1,2,-1
 67 780 l 1,3,-1
 136 780 l 1,4,-1
 211 660 l 1,5,-1
 141 660 l 1,6,-1
 102 730 l 1,0,-1
62 606 m 1,7,-1
 140 606 l 1,8,-1
 140 0 l 1,9,-1
 62 0 l 1,10,-1
 62 606 l 1,7,-1
EndSplineSet
Position2: "'cpsp' Capital Spacing lookup 0 subtable" dx=5 dy=0 dh=10 dv=0
EndChar

StartChar: Idieresis
Encoding: 207 207 49
Width: 202
Flags: MW
HStem: 586 20G<62 140 140 140> 697 84<-4 73 -4 73 129 206 -4 129>
VStem: -4 77<697 781 697 781> 62 78<0 606 0 606> 129 77<697 781 697 781>
LayerCount: 2
Fore
SplineSet
-4 697 m 1,0,-1
 -4 781 l 1,1,-1
 73 781 l 1,2,-1
 73 697 l 1,3,-1
 -4 697 l 1,0,-1
129 697 m 1,4,-1
 129 781 l 1,5,-1
 206 781 l 1,6,-1
 206 697 l 1,7,-1
 129 697 l 1,4,-1
62 0 m 1,8,-1
 62 606 l 1,9,-1
 140 606 l 1,10,-1
 140 0 l 1,11,-1
 62 0 l 1,8,-1
EndSplineSet
Position2: "'cpsp' Capital Spacing lookup 0 subtable" dx=5 dy=0 dh=10 dv=0
EndChar

StartChar: Idotaccent
Encoding: 304 304 50
Width: 202
Flags: MW
HStem: 586 20G<62 140 140 140> 697 84<63 140 63 140>
VStem: 62 78<0 606 0 606>
LayerCount: 2
Fore
SplineSet
63 781 m 1,0,-1
 140 781 l 1,1,-1
 140 697 l 1,2,-1
 63 697 l 1,3,-1
 63 781 l 1,0,-1
62 606 m 1,4,-1
 140 606 l 1,5,-1
 140 0 l 1,6,-1
 62 0 l 1,7,-1
 62 606 l 1,4,-1
EndSplineSet
Position2: "'cpsp' Capital Spacing lookup 0 subtable" dx=5 dy=0 dh=10 dv=0
EndChar

StartChar: Igrave
Encoding: 204 204 51
Width: 202
Flags: MW
HStem: 586 20G<62 140 140 140> 664 117<-2 93 -2 154>
VStem: 62 78<0 606 0 606>
LayerCount: 2
Fore
SplineSet
93 664 m 1,0,-1
 -3 778 l 1,1,-1
 -2 781 l 1,2,-1
 78 781 l 1,3,-1
 154 664 l 1,4,-1
 93 664 l 1,0,-1
62 0 m 1,5,-1
 62 606 l 1,6,-1
 140 606 l 1,7,-1
 140 0 l 1,8,-1
 62 0 l 1,5,-1
EndSplineSet
Position2: "'cpsp' Capital Spacing lookup 0 subtable" dx=5 dy=0 dh=10 dv=0
EndChar

StartChar: Imacron
Encoding: 298 298 52
Width: 202
Flags: MW
HStem: 586 20G<62 140 140 140> 671 64<-10 212 -10 212>
VStem: 62 78<0 606 0 606>
LayerCount: 2
Fore
SplineSet
-10 735 m 1,0,-1
 212 735 l 1,1,-1
 212 671 l 1,2,-1
 -10 671 l 1,3,-1
 -10 735 l 1,0,-1
62 606 m 1,4,-1
 140 606 l 1,5,-1
 140 0 l 1,6,-1
 62 0 l 1,7,-1
 62 606 l 1,4,-1
EndSplineSet
Position2: "'cpsp' Capital Spacing lookup 0 subtable" dx=5 dy=0 dh=10 dv=0
EndChar

StartChar: Iogonek
Encoding: 302 302 53
Width: 202
Flags: MW
HStem: -161 58<114 187> 586 20G<62 140 140 140>
VStem: 62 78<0 606>
LayerCount: 2
Fore
SplineSet
140 0 m 1,0,1
 118 -32 118 -32 118 -53.5 c 0,2,3
 118 -75 118 -75 128.5 -89 c 128,-1,4
 139 -103 139 -103 159 -103 c 2,5,-1
 187 -103 l 1,6,-1
 187 -149 l 1,7,8
 156 -161 156 -161 127.5 -161 c 0,9,10
 99 -161 99 -161 74.5 -142 c 128,-1,11
 50 -123 50 -123 50 -79.5 c 0,12,13
 50 -36 50 -36 82 0 c 1,14,-1
 62 0 l 1,15,-1
 62 606 l 1,16,-1
 140 606 l 1,17,-1
 140 0 l 1,0,1
EndSplineSet
Position2: "'cpsp' Capital Spacing lookup 0 subtable" dx=5 dy=0 dh=10 dv=0
EndChar

StartChar: Itilde
Encoding: 296 296 54
Width: 202
Flags: MW
HStem: 586 20G<62 140 140 140> 689 65<136 156.5 131.5 181.5> 716 65<45 66 20.5 70.5>
VStem: 62 78<0 606 0 606>
LayerCount: 2
Fore
SplineSet
230 781 m 1,0,1
 230 746 230 746 211 717.5 c 128,-1,2
 192 689 192 689 155 689 c 0,3,4
 136 689 136 689 103 702.5 c 128,-1,5
 70 716 70 716 53 716 c 0,6,7
 27 716 27 716 23 689 c 1,8,-1
 -28 689 l 1,9,10
 -28 724 -28 724 -8.5 752.5 c 128,-1,11
 11 781 11 781 47 781 c 0,12,13
 66 781 66 781 99 767.5 c 128,-1,14
 132 754 132 754 149 754 c 0,15,16
 175 754 175 754 179 781 c 1,17,-1
 230 781 l 1,0,1
62 606 m 1,18,-1
 140 606 l 1,19,-1
 140 0 l 1,20,-1
 62 0 l 1,21,-1
 62 606 l 1,18,-1
EndSplineSet
Position2: "'cpsp' Capital Spacing lookup 0 subtable" dx=5 dy=0 dh=10 dv=0
EndChar

StartChar: J
Encoding: 74 74 55
Width: 362
Flags: MW
HStem: -11 72<136 180 136 204.5> 586 20G<227 305 305 305>
VStem: 11 78<144 184 114 184> 227 78<140 144 144 606>
LayerCount: 2
Fore
SplineSet
305 144 m 2,0,1
 305 69 305 69 266.5 29 c 128,-1,2
 228 -11 228 -11 158 -11 c 128,-1,3
 88 -11 88 -11 49.5 29 c 128,-1,4
 11 69 11 69 11 144 c 2,5,-1
 11 184 l 1,6,-1
 89 184 l 1,7,-1
 89 140 l 2,8,9
 89 61 89 61 158 61 c 128,-1,10
 227 61 227 61 227 140 c 2,11,-1
 227 606 l 1,12,-1
 305 606 l 1,13,-1
 305 144 l 2,0,1
EndSplineSet
Position2: "'cpsp' Capital Spacing lookup 0 subtable" dx=5 dy=0 dh=10 dv=0
EndChar

StartChar: Jcircumflex
Encoding: 308 308 56
Width: 362
Flags: MW
HStem: -11 72<136 180 136 204.5> 586 20G<227 305 305 305> 660 120<156 301 156 301 232 377 232 307>
VStem: 11 78<144 184 114 184> 227 78<140 144 144 606>
LayerCount: 2
Fore
SplineSet
307 660 m 1,0,-1
 268 730 l 1,1,-1
 227 660 l 1,2,-1
 156 660 l 1,3,-1
 232 780 l 1,4,-1
 301 780 l 1,5,-1
 377 660 l 1,6,-1
 307 660 l 1,0,-1
305 144 m 2,7,8
 305 69 305 69 266.5 29 c 128,-1,9
 228 -11 228 -11 158 -11 c 128,-1,10
 88 -11 88 -11 49.5 29 c 128,-1,11
 11 69 11 69 11 144 c 2,12,-1
 11 184 l 1,13,-1
 89 184 l 1,14,-1
 89 140 l 2,15,16
 89 61 89 61 158 61 c 128,-1,17
 227 61 227 61 227 140 c 2,18,-1
 227 606 l 1,19,-1
 305 606 l 1,20,-1
 305 144 l 2,7,8
EndSplineSet
Position2: "'cpsp' Capital Spacing lookup 0 subtable" dx=5 dy=0 dh=10 dv=0
EndChar

StartChar: K
Encoding: 75 75 57
Width: 484
Flags: MW
HStem: 586 20G<62 140 140 140 380 467 467 467>
VStem: 62 78<0 188 286 606>
LayerCount: 2
Fore
SplineSet
467 606 m 1,0,-1
 285 362 l 1,1,-1
 473 0 l 1,2,-1
 385 0 l 1,3,-1
 237 296 l 1,4,-1
 140 188 l 1,5,-1
 140 0 l 1,6,-1
 62 0 l 1,7,-1
 62 606 l 1,8,-1
 140 606 l 1,9,-1
 140 286 l 1,10,-1
 380 606 l 1,11,-1
 467 606 l 1,0,-1
EndSplineSet
Position2: "'cpsp' Capital Spacing lookup 0 subtable" dx=5 dy=0 dh=10 dv=0
EndChar

StartChar: Kcommaaccent
Encoding: 310 310 58
Width: 484
Flags: MW
HStem: -133 80<204 234 204 279> 586 20G<62 140 140 140 380 467 467 467>
VStem: 62 78<0 188 286 606> 204 75<-127 -53 -127 -53 -127 -53>
LayerCount: 2
Fore
SplineSet
467 606 m 1,0,-1
 285 362 l 1,1,-1
 473 0 l 1,2,-1
 385 0 l 1,3,-1
 237 296 l 1,4,-1
 140 188 l 1,5,-1
 140 0 l 1,6,-1
 62 0 l 1,7,-1
 62 606 l 1,8,-1
 140 606 l 1,9,-1
 140 286 l 1,10,-1
 380 606 l 1,11,-1
 467 606 l 1,0,-1
215 -196 m 1,12,-1
 234 -133 l 1,13,-1
 204 -133 l 1,14,-1
 204 -53 l 1,15,-1
 279 -53 l 1,16,-1
 279 -127 l 1,17,-1
 254 -196 l 1,18,-1
 215 -196 l 1,12,-1
EndSplineSet
Position2: "'cpsp' Capital Spacing lookup 0 subtable" dx=5 dy=0 dh=10 dv=0
EndChar

StartChar: L
Encoding: 76 76 59
Width: 403
Flags: MW
HStem: 0 71<140 387 140 387> 586 20G<62 140 140 140>
VStem: 62 78<71 606 71 606 71 606>
LayerCount: 2
Fore
SplineSet
387 71 m 1,0,-1
 387 0 l 1,1,-1
 62 0 l 1,2,-1
 62 606 l 1,3,-1
 140 606 l 1,4,-1
 140 71 l 1,5,-1
 387 71 l 1,0,-1
EndSplineSet
Position2: "'cpsp' Capital Spacing lookup 0 subtable" dx=5 dy=0 dh=10 dv=0
EndChar

StartChar: Lacute
Encoding: 313 313 60
Width: 403
Flags: MW
HStem: 0 71<140 387 140 387> 586 20G<62 140 140 140> 664 117<45 201 45 201>
VStem: 62 78<71 606 71 606 71 606>
LayerCount: 2
Fore
SplineSet
107 664 m 1,0,-1
 45 664 l 1,1,-1
 121 781 l 1,2,-1
 201 781 l 1,3,-1
 202 778 l 1,4,-1
 107 664 l 1,0,-1
387 71 m 1,5,-1
 387 0 l 1,6,-1
 62 0 l 1,7,-1
 62 606 l 1,8,-1
 140 606 l 1,9,-1
 140 71 l 1,10,-1
 387 71 l 1,5,-1
EndSplineSet
Position2: "'cpsp' Capital Spacing lookup 0 subtable" dx=5 dy=0 dh=10 dv=0
EndChar

StartChar: Lcaron
Encoding: 317 317 61
Width: 403
Flags: MW
HStem: 0 71<140 387 140 387> 511 95<282 317>
VStem: 62 78<71 606 71 606 71 606> 282 88<519 606 519 606 519 606>
LayerCount: 2
Fore
SplineSet
387 71 m 1,0,-1
 387 0 l 1,1,-1
 62 0 l 1,2,-1
 62 606 l 1,3,-1
 140 606 l 1,4,-1
 140 71 l 1,5,-1
 387 71 l 1,0,-1
328 401 m 1,6,-1
 282 401 l 1,7,-1
 317 511 l 1,8,-1
 282 511 l 1,9,-1
 282 606 l 1,10,-1
 370 606 l 1,11,-1
 370 519 l 1,12,-1
 328 401 l 1,6,-1
EndSplineSet
Position2: "'cpsp' Capital Spacing lookup 0 subtable" dx=5 dy=0 dh=10 dv=0
EndChar

StartChar: Lcommaaccent
Encoding: 315 315 62
Width: 403
Flags: MW
HStem: -133 80<164 194 164 240> 0 71<140 387 140 387> 586 20G<62 140 140 140>
VStem: 62 78<71 606 71 606 71 606> 164 76<-127 -53 -127 -53 -127 -53>
LayerCount: 2
Fore
SplineSet
387 71 m 1,0,-1
 387 0 l 1,1,-1
 62 0 l 1,2,-1
 62 606 l 1,3,-1
 140 606 l 1,4,-1
 140 71 l 1,5,-1
 387 71 l 1,0,-1
214 -196 m 1,6,-1
 174 -196 l 1,7,-1
 194 -133 l 1,8,-1
 164 -133 l 1,9,-1
 164 -53 l 1,10,-1
 240 -53 l 1,11,-1
 240 -127 l 1,12,-1
 214 -196 l 1,6,-1
EndSplineSet
Position2: "'cpsp' Capital Spacing lookup 0 subtable" dx=5 dy=0 dh=10 dv=0
EndChar

StartChar: Ldot
Encoding: 319 319 63
Width: 403
Flags: MW
HStem: 0 71<140 387 140 387> 366 98<261 350 261 350> 586 20G<62 140 140 140>
VStem: 62 78<71 606 71 606 71 606> 261 89<366 464 366 464>
LayerCount: 2
Fore
SplineSet
387 71 m 1,0,-1
 387 0 l 1,1,-1
 62 0 l 1,2,-1
 62 606 l 1,3,-1
 140 606 l 1,4,-1
 140 71 l 1,5,-1
 387 71 l 1,0,-1
261 366 m 1,6,-1
 261 464 l 1,7,-1
 350 464 l 1,8,-1
 350 366 l 1,9,-1
 261 366 l 1,6,-1
EndSplineSet
Ligature2: "Ligature Substitution lookup 13 subtable" L periodcentered
Position2: "'cpsp' Capital Spacing lookup 0 subtable" dx=5 dy=0 dh=10 dv=0
EndChar

StartChar: Lslash
Encoding: 321 321 64
Width: 403
Flags: MW
HStem: 0 71<140 387 140 387> 586 20G<62 140 140 140>
VStem: 62 78<71 217 217 217 280 286 71 349 349 606>
LayerCount: 2
Fore
SplineSet
261 457 m 1,0,-1
 261 392 l 1,1,-1
 140 286 l 1,2,-1
 140 71 l 1,3,-1
 387 71 l 1,4,-1
 387 0 l 1,5,-1
 62 0 l 1,6,-1
 62 217 l 1,7,-1
 0 163 l 1,8,-1
 0 225 l 1,9,-1
 62 280 l 1,10,-1
 62 606 l 1,11,-1
 140 606 l 1,12,-1
 140 349 l 1,13,-1
 261 457 l 1,0,-1
EndSplineSet
Position2: "'cpsp' Capital Spacing lookup 0 subtable" dx=5 dy=0 dh=10 dv=0
EndChar

StartChar: M
Encoding: 77 77 65
Width: 604
Flags: MW
HStem: 0 72<301 304 301 332 263 304> 534 72<119 123 119 119 474 477 474 474>
VStem: 55 70<0 440 0 606> 471 78<0 440 440 450.5>
LayerCount: 2
Fore
SplineSet
471 0 m 1,0,-1
 471 440 l 1,1,-1
 477 534 l 1,2,-1
 474 534 l 1,3,4
 473 531 473 531 465.5 494.5 c 128,-1,5
 458 458 458 458 453 440 c 2,6,-1
 332 0 l 1,7,-1
 263 0 l 1,8,-1
 141 440 l 2,9,10
 135.054054054 459.324324324 135.054054054 459.324324324 130.027027027 491.162162162 c 128,-1,11
 125 523 125 523 123 534 c 1,12,-1
 119 534 l 1,13,14
 125 458 125 458 125 440 c 2,15,-1
 125 0 l 1,16,-1
 55 0 l 1,17,-1
 55 606 l 1,18,-1
 173 606 l 1,19,-1
 280 209 l 2,20,21
 291.535714286 162.857142857 291.535714286 162.857142857 298.5 96 c 2,22,-1
 301 72 l 1,23,-1
 304 72 l 1,24,25
 312 166 312 166 324 209 c 2,26,-1
 431 606 l 1,27,-1
 549 606 l 1,28,-1
 549 0 l 1,29,-1
 471 0 l 1,0,-1
EndSplineSet
Position2: "'cpsp' Capital Spacing lookup 0 subtable" dx=5 dy=0 dh=10 dv=0
EndChar

StartChar: N
Encoding: 78 78 66
Width: 523
Flags: MW
HStem: 586 20G<62 129 129 129 392 461 461 461>
VStem: 62 70<0 386 0 606> 392 69<144 144 225 606 0 606>
LayerCount: 2
Fore
SplineSet
397 0 m 1,0,-1
 170 386 l 1,1,-1
 131 468 l 1,2,-1
 128 467 l 1,3,4
 132 411 132 411 132 386 c 2,5,-1
 132 0 l 1,6,-1
 62 0 l 1,7,-1
 62 606 l 1,8,-1
 129 606 l 1,9,-1
 354 225 l 1,10,-1
 392 144 l 1,11,-1
 394 145 l 1,12,13
 392 206 392 206 392 225 c 2,14,-1
 392 606 l 1,15,-1
 461 606 l 1,16,-1
 461 0 l 1,17,-1
 397 0 l 1,0,-1
EndSplineSet
Position2: "'cpsp' Capital Spacing lookup 0 subtable" dx=5 dy=0 dh=10 dv=0
EndChar

StartChar: Nacute
Encoding: 323 323 67
Width: 523
Flags: MW
HStem: 586 20G<62 129 129 129 392 461 461 461> 664 117<209 364 209 364>
VStem: 62 70<0 386 0 606> 392 69<144 144 225 606 0 606>
LayerCount: 2
Fore
SplineSet
271 664 m 1,0,-1
 209 664 l 1,1,-1
 285 781 l 1,2,-1
 364 781 l 1,3,-1
 365 778 l 1,4,-1
 271 664 l 1,0,-1
397 0 m 1,5,-1
 170 386 l 1,6,-1
 131 468 l 1,7,-1
 128 467 l 1,8,9
 132 411 132 411 132 386 c 2,10,-1
 132 0 l 1,11,-1
 62 0 l 1,12,-1
 62 606 l 1,13,-1
 129 606 l 1,14,-1
 354 225 l 1,15,-1
 392 144 l 1,16,-1
 394 145 l 1,17,18
 392 206 392 206 392 225 c 2,19,-1
 392 606 l 1,20,-1
 461 606 l 1,21,-1
 461 0 l 1,22,-1
 397 0 l 1,5,-1
EndSplineSet
Position2: "'cpsp' Capital Spacing lookup 0 subtable" dx=5 dy=0 dh=10 dv=0
EndChar

StartChar: Ncaron
Encoding: 327 327 68
Width: 523
Flags: MW
HStem: 586 20G<62 129 129 129 392 461 461 461> 661 120<151 226 151 295>
VStem: 62 70<0 386 0 606> 392 69<144 144 225 606 0 606>
LayerCount: 2
Fore
SplineSet
226 661 m 1,0,-1
 151 781 l 1,1,-1
 222 781 l 1,2,-1
 262 711 l 1,3,-1
 301 781 l 1,4,-1
 372 781 l 1,5,-1
 295 661 l 1,6,-1
 226 661 l 1,0,-1
397 0 m 1,7,-1
 170 386 l 1,8,-1
 131 468 l 1,9,-1
 128 467 l 1,10,11
 132 411 132 411 132 386 c 2,12,-1
 132 0 l 1,13,-1
 62 0 l 1,14,-1
 62 606 l 1,15,-1
 129 606 l 1,16,-1
 354 225 l 1,17,-1
 392 144 l 1,18,-1
 394 145 l 1,19,20
 392 206 392 206 392 225 c 2,21,-1
 392 606 l 1,22,-1
 461 606 l 1,23,-1
 461 0 l 1,24,-1
 397 0 l 1,7,-1
EndSplineSet
Position2: "'cpsp' Capital Spacing lookup 0 subtable" dx=5 dy=0 dh=10 dv=0
EndChar

StartChar: Ncommaaccent
Encoding: 325 325 69
Width: 523
Flags: MW
HStem: -133 80<224 255 224 300> 586 20G<62 129 129 129 392 461 461 461>
VStem: 62 70<0 386 0 606> 224 76<-127 -53 -127 -53 -127 -53> 392 69<144 144 225 606 0 606>
LayerCount: 2
Fore
SplineSet
397 0 m 1,0,-1
 170 386 l 1,1,-1
 131 468 l 1,2,-1
 128 467 l 1,3,4
 132 411 132 411 132 386 c 2,5,-1
 132 0 l 1,6,-1
 62 0 l 1,7,-1
 62 606 l 1,8,-1
 129 606 l 1,9,-1
 354 225 l 1,10,-1
 392 144 l 1,11,-1
 394 145 l 1,12,13
 392 206 392 206 392 225 c 2,14,-1
 392 606 l 1,15,-1
 461 606 l 1,16,-1
 461 0 l 1,17,-1
 397 0 l 1,0,-1
274 -196 m 1,18,-1
 234 -196 l 1,19,-1
 255 -133 l 1,20,-1
 224 -133 l 1,21,-1
 224 -53 l 1,22,-1
 300 -53 l 1,23,-1
 300 -127 l 1,24,-1
 274 -196 l 1,18,-1
EndSplineSet
Position2: "'cpsp' Capital Spacing lookup 0 subtable" dx=5 dy=0 dh=10 dv=0
EndChar

StartChar: Eng
Encoding: 330 330 70
Width: 523
Flags: MW
HStem: -161 61<359 361 309 405> 586 20G<62 129 129 129 389 461 461 461>
VStem: 62 70<0 386 0 606> 389 72<-57 -54 -54 13 13 13 225 606>
LayerCount: 2
Fore
SplineSet
461 -54 m 2,0,1
 461 -100 461 -100 439.5 -130.5 c 128,-1,2
 418 -161 418 -161 377.5 -161 c 0,3,4
 337 -161 337 -161 309 -150 c 1,5,-1
 309 -100 l 1,6,-1
 347 -100 l 2,7,8
 389 -100 389 -100 389 -57 c 2,9,-1
 389 13 l 1,10,-1
 170 386 l 1,11,-1
 131 468 l 1,12,-1
 128 467 l 1,13,14
 132 411 132 411 132 386 c 2,15,-1
 132 0 l 1,16,-1
 62 0 l 1,17,-1
 62 606 l 1,18,-1
 129 606 l 1,19,-1
 354 225 l 1,20,-1
 392 144 l 1,21,-1
 394 145 l 1,22,23
 392 206 392 206 389 225 c 1,24,-1
 389 606 l 1,25,-1
 461 606 l 1,26,-1
 461 -54 l 2,0,1
EndSplineSet
Position2: "'cpsp' Capital Spacing lookup 0 subtable" dx=5 dy=0 dh=10 dv=0
EndChar

StartChar: Ntilde
Encoding: 209 209 71
Width: 523
Flags: MW
HStem: 586 20G<62 129 129 129 392 461 461 461> 689 65<296.5 317 292 342.5> 716 65<206 227 181.5 231>
VStem: 62 70<0 386 0 606> 392 69<144 144 225 606 0 606>
LayerCount: 2
Fore
SplineSet
391 781 m 1,0,1
 391 746 391 746 372 717.5 c 128,-1,2
 353 689 353 689 316 689 c 0,3,4
 296 689 296 689 263 702.5 c 128,-1,5
 230 716 230 716 214 716 c 0,6,7
 188 716 188 716 184 689 c 1,8,-1
 133 689 l 1,9,10
 133 724 133 724 152.5 752.5 c 128,-1,11
 172 781 172 781 208 781 c 0,12,13
 228 781 228 781 260 767.5 c 128,-1,14
 292 754 292 754 309 754 c 0,15,16
 336 754 336 754 339 781 c 1,17,-1
 391 781 l 1,0,1
397 0 m 1,18,-1
 170 386 l 1,19,-1
 131 468 l 1,20,-1
 128 467 l 1,21,22
 132 411 132 411 132 386 c 2,23,-1
 132 0 l 1,24,-1
 62 0 l 1,25,-1
 62 606 l 1,26,-1
 129 606 l 1,27,-1
 354 225 l 1,28,-1
 392 144 l 1,29,-1
 394 145 l 1,30,31
 392 206 392 206 392 225 c 2,32,-1
 392 606 l 1,33,-1
 461 606 l 1,34,-1
 461 0 l 1,35,-1
 397 0 l 1,18,-1
EndSplineSet
Position2: "'cpsp' Capital Spacing lookup 0 subtable" dx=5 dy=0 dh=10 dv=0
EndChar

StartChar: O
Encoding: 79 79 72
Width: 564
Flags: MW
HStem: -11 72<233.5 330.5 233.5 356.5> 545 72<233.5 330.5>
VStem: 43 82<207 281 281 325 207 408.5> 439 82<281 325 325 399>
LayerCount: 2
Fore
SplineSet
282 617 m 128,-1,1
 396 617 396 617 458.5 537.5 c 128,-1,2
 521 458 521 458 521 303 c 128,-1,3
 521 148 521 148 458.5 68.5 c 128,-1,4
 396 -11 396 -11 282 -11 c 128,-1,5
 168 -11 168 -11 105.5 68.5 c 128,-1,6
 43 148 43 148 43 303 c 128,-1,7
 43 458 43 458 105.5 537.5 c 128,-1,0
 168 617 168 617 282 617 c 128,-1,1
439 325 m 2,8,9
 439 434 439 434 397.5 489.5 c 128,-1,10
 356 545 356 545 282 545 c 128,-1,11
 208 545 208 545 166.5 489.5 c 128,-1,12
 125 434 125 434 125 325 c 2,13,-1
 125 281 l 2,14,15
 125 172 125 172 166.5 116.5 c 128,-1,16
 208 61 208 61 282 61 c 128,-1,17
 356 61 356 61 397.5 116.5 c 128,-1,18
 439 172 439 172 439 281 c 2,19,-1
 439 325 l 2,8,9
EndSplineSet
Substitution2: "Single Substitution lookup 14 subtable" ordmasculine
Substitution2: "'aalt' Access All Alternates lookup 0 subtable" ordmasculine
Position2: "'cpsp' Capital Spacing lookup 0 subtable" dx=5 dy=0 dh=10 dv=0
EndChar

StartChar: Oacute
Encoding: 211 211 73
Width: 564
Flags: MW
HStem: -11 72<233.5 330.5 233.5 356.5> 545 72<233.5 330.5> 664 117<230 385 230 385>
VStem: 43 82<207 281 281 325 207 408.5> 439 82<281 325 325 399>
LayerCount: 2
Fore
SplineSet
291 664 m 1,0,-1
 230 664 l 1,1,-1
 306 781 l 1,2,-1
 385 781 l 1,3,-1
 386 778 l 1,4,-1
 291 664 l 1,0,-1
282 617 m 128,-1,6
 396 617 396 617 458.5 537.5 c 128,-1,7
 521 458 521 458 521 303 c 128,-1,8
 521 148 521 148 458.5 68.5 c 128,-1,9
 396 -11 396 -11 282 -11 c 128,-1,10
 168 -11 168 -11 105.5 68.5 c 128,-1,11
 43 148 43 148 43 303 c 128,-1,12
 43 458 43 458 105.5 537.5 c 128,-1,5
 168 617 168 617 282 617 c 128,-1,6
439 325 m 2,13,14
 439 434 439 434 397.5 489.5 c 128,-1,15
 356 545 356 545 282 545 c 128,-1,16
 208 545 208 545 166.5 489.5 c 128,-1,17
 125 434 125 434 125 325 c 2,18,-1
 125 281 l 2,19,20
 125 172 125 172 166.5 116.5 c 128,-1,21
 208 61 208 61 282 61 c 128,-1,22
 356 61 356 61 397.5 116.5 c 128,-1,23
 439 172 439 172 439 281 c 2,24,-1
 439 325 l 2,13,14
EndSplineSet
Position2: "'cpsp' Capital Spacing lookup 0 subtable" dx=5 dy=0 dh=10 dv=0
EndChar

StartChar: Obreve
Encoding: 334 334 74
Width: 564
Flags: MW
HStem: -11 72<233.5 330.5 233.5 356.5> 545 72<233.5 330.5> 695 56<267.5 297 267.5 316>
VStem: 43 82<207 281 281 325 207 408.5> 439 82<281 325 325 399>
LayerCount: 2
Fore
SplineSet
392 781 m 1,0,1
 392 749 392 749 361 722 c 128,-1,2
 330 695 330 695 282 695 c 128,-1,3
 234 695 234 695 203.5 722 c 128,-1,4
 173 749 173 749 173 781 c 1,5,-1
 230 781 l 1,6,7
 232 770 232 770 247 760.5 c 128,-1,8
 262 751 262 751 282.5 751 c 0,9,10
 303 751 303 751 318 760.5 c 128,-1,11
 333 770 333 770 335 781 c 1,12,-1
 392 781 l 1,0,1
282 617 m 128,-1,14
 396 617 396 617 458.5 537.5 c 128,-1,15
 521 458 521 458 521 303 c 128,-1,16
 521 148 521 148 458.5 68.5 c 128,-1,17
 396 -11 396 -11 282 -11 c 128,-1,18
 168 -11 168 -11 105.5 68.5 c 128,-1,19
 43 148 43 148 43 303 c 128,-1,20
 43 458 43 458 105.5 537.5 c 128,-1,13
 168 617 168 617 282 617 c 128,-1,14
439 325 m 2,21,22
 439 434 439 434 397.5 489.5 c 128,-1,23
 356 545 356 545 282 545 c 128,-1,24
 208 545 208 545 166.5 489.5 c 128,-1,25
 125 434 125 434 125 325 c 2,26,-1
 125 281 l 2,27,28
 125 172 125 172 166.5 116.5 c 128,-1,29
 208 61 208 61 282 61 c 128,-1,30
 356 61 356 61 397.5 116.5 c 128,-1,31
 439 172 439 172 439 281 c 2,32,-1
 439 325 l 2,21,22
EndSplineSet
Position2: "'cpsp' Capital Spacing lookup 0 subtable" dx=5 dy=0 dh=10 dv=0
EndChar

StartChar: Ocircumflex
Encoding: 212 212 75
Width: 564
Flags: MW
HStem: -11 72<233.5 330.5 233.5 356.5> 545 72<233.5 330.5> 660 120<172 317 172 317 248 322 248 392>
VStem: 43 82<207 281 281 325 207 408.5> 439 82<281 325 325 399>
LayerCount: 2
Fore
SplineSet
283 730 m 1,0,-1
 243 660 l 1,1,-1
 172 660 l 1,2,-1
 248 780 l 1,3,-1
 317 780 l 1,4,-1
 392 660 l 1,5,-1
 322 660 l 1,6,-1
 283 730 l 1,0,-1
282 617 m 128,-1,8
 396 617 396 617 458.5 537.5 c 128,-1,9
 521 458 521 458 521 303 c 128,-1,10
 521 148 521 148 458.5 68.5 c 128,-1,11
 396 -11 396 -11 282 -11 c 128,-1,12
 168 -11 168 -11 105.5 68.5 c 128,-1,13
 43 148 43 148 43 303 c 128,-1,14
 43 458 43 458 105.5 537.5 c 128,-1,7
 168 617 168 617 282 617 c 128,-1,8
439 325 m 2,15,16
 439 434 439 434 397.5 489.5 c 128,-1,17
 356 545 356 545 282 545 c 128,-1,18
 208 545 208 545 166.5 489.5 c 128,-1,19
 125 434 125 434 125 325 c 2,20,-1
 125 281 l 2,21,22
 125 172 125 172 166.5 116.5 c 128,-1,23
 208 61 208 61 282 61 c 128,-1,24
 356 61 356 61 397.5 116.5 c 128,-1,25
 439 172 439 172 439 281 c 2,26,-1
 439 325 l 2,15,16
EndSplineSet
Position2: "'cpsp' Capital Spacing lookup 0 subtable" dx=5 dy=0 dh=10 dv=0
EndChar

StartChar: Odieresis
Encoding: 214 214 76
Width: 564
Flags: MW
HStem: -11 72<233.5 330.5 233.5 356.5> 545 72<233.5 330.5> 697 84<178 255 178 255 310 387 178 310>
VStem: 43 82<207 281 281 325 207 408.5> 178 77<697 781 697 781> 310 77<697 781 697 781> 439 82<281 325 325 399>
LayerCount: 2
Fore
SplineSet
178 697 m 1,0,-1
 178 781 l 1,1,-1
 255 781 l 1,2,-1
 255 697 l 1,3,-1
 178 697 l 1,0,-1
310 697 m 1,4,-1
 310 781 l 1,5,-1
 387 781 l 1,6,-1
 387 697 l 1,7,-1
 310 697 l 1,4,-1
282 617 m 128,-1,9
 396 617 396 617 458.5 537.5 c 128,-1,10
 521 458 521 458 521 303 c 128,-1,11
 521 148 521 148 458.5 68.5 c 128,-1,12
 396 -11 396 -11 282 -11 c 128,-1,13
 168 -11 168 -11 105.5 68.5 c 128,-1,14
 43 148 43 148 43 303 c 128,-1,15
 43 458 43 458 105.5 537.5 c 128,-1,8
 168 617 168 617 282 617 c 128,-1,9
439 325 m 2,16,17
 439 434 439 434 397.5 489.5 c 128,-1,18
 356 545 356 545 282 545 c 128,-1,19
 208 545 208 545 166.5 489.5 c 128,-1,20
 125 434 125 434 125 325 c 2,21,-1
 125 281 l 2,22,23
 125 172 125 172 166.5 116.5 c 128,-1,24
 208 61 208 61 282 61 c 128,-1,25
 356 61 356 61 397.5 116.5 c 128,-1,26
 439 172 439 172 439 281 c 2,27,-1
 439 325 l 2,16,17
EndSplineSet
Position2: "'cpsp' Capital Spacing lookup 0 subtable" dx=5 dy=0 dh=10 dv=0
EndChar

StartChar: Ograve
Encoding: 210 210 77
Width: 564
Flags: MW
HStem: -11 72<233.5 330.5 233.5 356.5> 545 72<233.5 330.5> 664 117<179 274 179 335>
VStem: 43 82<207 281 281 325 207 408.5> 439 82<281 325 325 399>
LayerCount: 2
Fore
SplineSet
274 664 m 1,0,-1
 179 778 l 1,1,-1
 179 781 l 1,2,-1
 259 781 l 1,3,-1
 335 664 l 1,4,-1
 274 664 l 1,0,-1
282 617 m 128,-1,6
 396 617 396 617 458.5 537.5 c 128,-1,7
 521 458 521 458 521 303 c 128,-1,8
 521 148 521 148 458.5 68.5 c 128,-1,9
 396 -11 396 -11 282 -11 c 128,-1,10
 168 -11 168 -11 105.5 68.5 c 128,-1,11
 43 148 43 148 43 303 c 128,-1,12
 43 458 43 458 105.5 537.5 c 128,-1,5
 168 617 168 617 282 617 c 128,-1,6
439 325 m 2,13,14
 439 434 439 434 397.5 489.5 c 128,-1,15
 356 545 356 545 282 545 c 128,-1,16
 208 545 208 545 166.5 489.5 c 128,-1,17
 125 434 125 434 125 325 c 2,18,-1
 125 281 l 2,19,20
 125 172 125 172 166.5 116.5 c 128,-1,21
 208 61 208 61 282 61 c 128,-1,22
 356 61 356 61 397.5 116.5 c 128,-1,23
 439 172 439 172 439 281 c 2,24,-1
 439 325 l 2,13,14
EndSplineSet
Position2: "'cpsp' Capital Spacing lookup 0 subtable" dx=5 dy=0 dh=10 dv=0
EndChar

StartChar: Ohungarumlaut
Encoding: 336 336 78
Width: 564
Flags: MW
HStem: -11 72<233.5 330.5 233.5 356.5> 545 72<233.5 330.5> 664 117<253 258 198 331 313 313 313 331 368 374>
VStem: 43 82<207 281 281 325 207 408.5> 439 82<281 325 325 399>
LayerCount: 2
Fore
SplineSet
258 664 m 1,0,-1
 198 664 l 1,1,-1
 253 781 l 1,2,-1
 331 781 l 1,3,-1
 332 778 l 1,4,-1
 258 664 l 1,0,-1
374 664 m 1,5,-1
 313 664 l 1,6,-1
 368 781 l 1,7,-1
 447 781 l 1,8,-1
 448 778 l 1,9,-1
 374 664 l 1,5,-1
282 617 m 128,-1,11
 396 617 396 617 458.5 537.5 c 128,-1,12
 521 458 521 458 521 303 c 128,-1,13
 521 148 521 148 458.5 68.5 c 128,-1,14
 396 -11 396 -11 282 -11 c 128,-1,15
 168 -11 168 -11 105.5 68.5 c 128,-1,16
 43 148 43 148 43 303 c 128,-1,17
 43 458 43 458 105.5 537.5 c 128,-1,10
 168 617 168 617 282 617 c 128,-1,11
439 325 m 2,18,19
 439 434 439 434 397.5 489.5 c 128,-1,20
 356 545 356 545 282 545 c 128,-1,21
 208 545 208 545 166.5 489.5 c 128,-1,22
 125 434 125 434 125 325 c 2,23,-1
 125 281 l 2,24,25
 125 172 125 172 166.5 116.5 c 128,-1,26
 208 61 208 61 282 61 c 128,-1,27
 356 61 356 61 397.5 116.5 c 128,-1,28
 439 172 439 172 439 281 c 2,29,-1
 439 325 l 2,18,19
EndSplineSet
Position2: "'cpsp' Capital Spacing lookup 0 subtable" dx=5 dy=0 dh=10 dv=0
EndChar

StartChar: Omacron
Encoding: 332 332 79
Width: 564
Flags: MW
HStem: -11 72<233.5 330.5 233.5 356.5> 545 72<233.5 330.5> 671 64<171 393 171 393>
VStem: 43 82<207 281 281 325 207 408.5> 171 222<671 735 671 735> 439 82<281 325 325 399>
LayerCount: 2
Fore
SplineSet
171 735 m 1,0,-1
 393 735 l 1,1,-1
 393 671 l 1,2,-1
 171 671 l 1,3,-1
 171 735 l 1,0,-1
282 617 m 128,-1,5
 396 617 396 617 458.5 537.5 c 128,-1,6
 521 458 521 458 521 303 c 128,-1,7
 521 148 521 148 458.5 68.5 c 128,-1,8
 396 -11 396 -11 282 -11 c 128,-1,9
 168 -11 168 -11 105.5 68.5 c 128,-1,10
 43 148 43 148 43 303 c 128,-1,11
 43 458 43 458 105.5 537.5 c 128,-1,4
 168 617 168 617 282 617 c 128,-1,5
439 325 m 2,12,13
 439 434 439 434 397.5 489.5 c 128,-1,14
 356 545 356 545 282 545 c 128,-1,15
 208 545 208 545 166.5 489.5 c 128,-1,16
 125 434 125 434 125 325 c 2,17,-1
 125 281 l 2,18,19
 125 172 125 172 166.5 116.5 c 128,-1,20
 208 61 208 61 282 61 c 128,-1,21
 356 61 356 61 397.5 116.5 c 128,-1,22
 439 172 439 172 439 281 c 2,23,-1
 439 325 l 2,12,13
EndSplineSet
Position2: "'cpsp' Capital Spacing lookup 0 subtable" dx=5 dy=0 dh=10 dv=0
EndChar

StartChar: Oslash
Encoding: 216 216 80
Width: 564
Flags: MW
HStem: -11 72<261.5 330.5 261.5 356.5> 545 72<233.5 302> 619 20G<464 521 521 521>
VStem: 43 82<251.5 281 281 325 251.5 408.5> 439 82<281 325 325 354.5>
LayerCount: 2
Fore
SplineSet
457 538 m 1,0,1
 521 457 521 457 521 302.5 c 0,2,3
 521 148 521 148 458.5 68.5 c 128,-1,4
 396 -11 396 -11 282 -11 c 0,5,6
 199 -11 199 -11 141 33 c 1,7,-1
 101 -33 l 1,8,-1
 44 -33 l 1,9,-1
 107 67 l 1,10,11
 43 146 43 146 43 302 c 0,12,13
 43 458 43 458 105.5 537.5 c 128,-1,14
 168 617 168 617 282 617 c 0,15,16
 365 617 365 617 423 573 c 1,17,-1
 464 639 l 1,18,-1
 521 639 l 1,19,-1
 457 538 l 1,0,1
382 507 m 1,20,21
 343 545 343 545 275.5 545 c 0,22,23
 208 545 208 545 166.5 489.5 c 128,-1,24
 125 434 125 434 125 325 c 2,25,-1
 125 281 l 2,26,27
 125 192.5 125 192.5 152 140 c 1,28,-1
 382 507 l 1,20,21
182 98 m 1,29,30
 220 61 220 61 288 61 c 0,31,32
 356 61 356 61 397.5 116.5 c 128,-1,33
 439 172 439 172 439 281 c 2,34,-1
 439 325 l 2,35,36
 439 413.5 439 413.5 412 466 c 1,37,-1
 182 98 l 1,29,30
EndSplineSet
Position2: "'cpsp' Capital Spacing lookup 0 subtable" dx=5 dy=0 dh=10 dv=0
EndChar

StartChar: Oslashacute
Encoding: 510 510 81
Width: 564
Flags: MW
HStem: -11 72<261.5 330.5 261.5 356.5> 545 72<233.5 302> 619 20G<464 521 521 521> 664 117<230 385 230 385>
VStem: 43 82<251.5 281 281 325 251.5 408.5> 439 82<281 325 325 354.5>
LayerCount: 2
Fore
SplineSet
291 664 m 1,0,-1
 230 664 l 1,1,-1
 306 781 l 1,2,-1
 385 781 l 1,3,-1
 386 778 l 1,4,-1
 291 664 l 1,0,-1
457 538 m 1,5,6
 521 457 521 457 521 302.5 c 0,7,8
 521 148 521 148 458.5 68.5 c 128,-1,9
 396 -11 396 -11 282 -11 c 0,10,11
 199 -11 199 -11 141 33 c 1,12,-1
 101 -33 l 1,13,-1
 44 -33 l 1,14,-1
 107 67 l 1,15,16
 43 146 43 146 43 302 c 0,17,18
 43 458 43 458 105.5 537.5 c 128,-1,19
 168 617 168 617 282 617 c 0,20,21
 365 617 365 617 423 573 c 1,22,-1
 464 639 l 1,23,-1
 521 639 l 1,24,-1
 457 538 l 1,5,6
382 507 m 1,25,26
 343 545 343 545 275.5 545 c 0,27,28
 208 545 208 545 166.5 489.5 c 128,-1,29
 125 434 125 434 125 325 c 2,30,-1
 125 281 l 2,31,32
 125 192.5 125 192.5 152 140 c 1,33,-1
 382 507 l 1,25,26
182 98 m 1,34,35
 220 61 220 61 288 61 c 0,36,37
 356 61 356 61 397.5 116.5 c 128,-1,38
 439 172 439 172 439 281 c 2,39,-1
 439 325 l 2,40,41
 439 413.5 439 413.5 412 466 c 1,42,-1
 182 98 l 1,34,35
EndSplineSet
Position2: "'cpsp' Capital Spacing lookup 0 subtable" dx=5 dy=0 dh=10 dv=0
EndChar

StartChar: Otilde
Encoding: 213 213 82
Width: 564
Flags: MW
HStem: -11 72<233.5 330.5 233.5 356.5> 545 72<233.5 330.5> 689 65<317 338 312.5 362.5> 716 65<226 247 201.5 251.5>
VStem: 43 82<207 281 281 325 207 408.5> 439 82<281 325 325 399>
LayerCount: 2
Fore
SplineSet
411 781 m 1,0,1
 411 746 411 746 392 717.5 c 128,-1,2
 373 689 373 689 336 689 c 0,3,4
 317 689 317 689 284 702.5 c 128,-1,5
 251 716 251 716 234 716 c 0,6,7
 208 716 208 716 204 689 c 1,8,-1
 153 689 l 1,9,10
 153 724 153 724 172.5 752.5 c 128,-1,11
 192 781 192 781 228 781 c 0,12,13
 247 781 247 781 280 767.5 c 128,-1,14
 313 754 313 754 330 754 c 0,15,16
 356 754 356 754 360 781 c 1,17,-1
 411 781 l 1,0,1
282 617 m 128,-1,19
 396 617 396 617 458.5 537.5 c 128,-1,20
 521 458 521 458 521 303 c 128,-1,21
 521 148 521 148 458.5 68.5 c 128,-1,22
 396 -11 396 -11 282 -11 c 128,-1,23
 168 -11 168 -11 105.5 68.5 c 128,-1,24
 43 148 43 148 43 303 c 128,-1,25
 43 458 43 458 105.5 537.5 c 128,-1,18
 168 617 168 617 282 617 c 128,-1,19
439 325 m 2,26,27
 439 434 439 434 397.5 489.5 c 128,-1,28
 356 545 356 545 282 545 c 128,-1,29
 208 545 208 545 166.5 489.5 c 128,-1,30
 125 434 125 434 125 325 c 2,31,-1
 125 281 l 2,32,33
 125 172 125 172 166.5 116.5 c 128,-1,34
 208 61 208 61 282 61 c 128,-1,35
 356 61 356 61 397.5 116.5 c 128,-1,36
 439 172 439 172 439 281 c 2,37,-1
 439 325 l 2,26,27
EndSplineSet
Position2: "'cpsp' Capital Spacing lookup 0 subtable" dx=5 dy=0 dh=10 dv=0
EndChar

StartChar: OE
Encoding: 338 338 83
Width: 725
Flags: MW
HStem: -11 72<211 269.5> 0 71<453 693 453 693> 275 71<453 648 453 648> 536 70<453 688 453 453> 545 72<211 269.5 179 289>
VStem: 43 82<207 281 281 325 207 408.5> 376 77<0 275 60 275 71 325 346 399>
LayerCount: 2
Fore
SplineSet
376 60 m 1,0,1
 327 -11 327 -11 236.5 -11 c 0,2,3
 146 -11 146 -11 94.5 68.5 c 128,-1,4
 43 148 43 148 43 303.5 c 0,5,6
 43 459 43 459 94.5 538 c 128,-1,7
 146 617 146 617 236 617 c 0,8,9
 326 617 326 617 376 546 c 1,10,-1
 376 606 l 1,11,-1
 688 606 l 1,12,-1
 688 536 l 1,13,-1
 453 536 l 1,14,-1
 453 346 l 1,15,-1
 648 346 l 1,16,-1
 648 275 l 1,17,-1
 453 275 l 1,18,-1
 453 71 l 1,19,-1
 693 71 l 1,20,-1
 693 0 l 1,21,-1
 376 0 l 1,22,-1
 376 60 l 1,0,1
376 325 m 2,23,24
 376 434 376 434 343 489.5 c 128,-1,25
 310 545 310 545 250 545 c 128,-1,26
 190 545 190 545 157.5 489.5 c 128,-1,27
 125 434 125 434 125 325 c 2,28,-1
 125 281 l 2,29,30
 125 172 125 172 157.5 116.5 c 128,-1,31
 190 61 190 61 250 61 c 128,-1,32
 310 61 310 61 343 116.5 c 128,-1,33
 376 172 376 172 376 281 c 2,34,-1
 376 325 l 2,23,24
EndSplineSet
Position2: "'cpsp' Capital Spacing lookup 0 subtable" dx=5 dy=0 dh=10 dv=0
EndChar

StartChar: P
Encoding: 80 80 84
Width: 484
Flags: MW
HStem: 250 71<140 276 276 278 140 276> 536 70<140 276 140 140>
VStem: 62 78<0 250 0 321 321 536> 378 82<397 462.5>
LayerCount: 2
Fore
SplineSet
62 0 m 1,0,-1
 62 606 l 1,1,-1
 278 606 l 2,2,3
 366 606 366 606 413 558.5 c 128,-1,4
 460 511 460 511 460 430 c 128,-1,5
 460 349 460 349 411 299.5 c 128,-1,6
 362 250 362 250 278 250 c 2,7,-1
 140 250 l 1,8,-1
 140 0 l 1,9,-1
 62 0 l 1,0,-1
276 321 m 2,10,11
 322 321 322 321 350 350.5 c 128,-1,12
 378 380 378 380 378 429.5 c 0,13,14
 378 479 378 479 351.5 507.5 c 128,-1,15
 325 536 325 536 276 536 c 2,16,-1
 140 536 l 1,17,-1
 140 321 l 1,18,-1
 276 321 l 2,10,11
EndSplineSet
Position2: "'cpsp' Capital Spacing lookup 0 subtable" dx=5 dy=0 dh=10 dv=0
EndChar

StartChar: Thorn
Encoding: 222 222 85
Width: 484
Flags: MW
HStem: 130 71<140 276 276 278 140 276> 415 71<140 276 140 278> 586 20G<62 140 140 140>
VStem: 62 78<0 130 201 415 486 606> 378 82<276.5 342>
LayerCount: 2
Fore
SplineSet
278 486 m 2,0,1
 366 486 366 486 413 438 c 128,-1,2
 460 390 460 390 460 309 c 128,-1,3
 460 228 460 228 411 179 c 128,-1,4
 362 130 362 130 278 130 c 2,5,-1
 140 130 l 1,6,-1
 140 0 l 1,7,-1
 62 0 l 1,8,-1
 62 606 l 1,9,-1
 140 606 l 1,10,-1
 140 486 l 1,11,-1
 278 486 l 2,0,1
140 201 m 1,12,-1
 276 201 l 2,13,14
 322 201 322 201 350 230.5 c 128,-1,15
 378 260 378 260 378 309.5 c 0,16,17
 378 359 378 359 351.5 387 c 128,-1,18
 325 415 325 415 276 415 c 2,19,-1
 140 415 l 1,20,-1
 140 201 l 1,12,-1
EndSplineSet
Position2: "'cpsp' Capital Spacing lookup 0 subtable" dx=5 dy=0 dh=10 dv=0
EndChar

StartChar: Q
Encoding: 81 81 86
Width: 564
Flags: MW
HStem: -11 72<233.5 282 282 293> 545 72<233.5 330.5>
VStem: 43 82<207 281 281 325 207 408.5> 439 82<281 325 325 399>
LayerCount: 2
Fore
SplineSet
282 -11 m 2,0,1
 168 -11 168 -11 105.5 68.5 c 128,-1,2
 43 148 43 148 43 303 c 128,-1,3
 43 458 43 458 105.5 537.5 c 128,-1,4
 168 617 168 617 282 617 c 128,-1,5
 396 617 396 617 458.5 537.5 c 128,-1,6
 521 458 521 458 521 303 c 0,7,8
 521 65 521 65 377 6 c 1,9,-1
 502 -110 l 1,10,-1
 398 -110 l 1,11,-1
 293 -11 l 1,12,-1
 282 -11 l 2,0,1
125 281 m 2,13,14
 125 172 125 172 166.5 116.5 c 128,-1,15
 208 61 208 61 282 61 c 128,-1,16
 356 61 356 61 397.5 116.5 c 128,-1,17
 439 172 439 172 439 281 c 2,18,-1
 439 325 l 2,19,20
 439 434 439 434 397.5 489.5 c 128,-1,21
 356 545 356 545 282 545 c 128,-1,22
 208 545 208 545 166.5 489.5 c 128,-1,23
 125 434 125 434 125 325 c 2,24,-1
 125 281 l 2,13,14
EndSplineSet
Position2: "'cpsp' Capital Spacing lookup 0 subtable" dx=5 dy=0 dh=10 dv=0
EndChar

StartChar: R
Encoding: 82 82 87
Width: 523
Flags: MW
HStem: 268 71<140 302 140 303> 536 70<140 303 140 140>
VStem: 62 78<0 268 339 536> 406 81<408 468.5>
LayerCount: 2
Fore
SplineSet
306 606 m 2,0,1
 393 606 393 606 440 560.5 c 128,-1,2
 487 515 487 515 487 438 c 0,3,4
 487 382 487 382 458.5 340.5 c 128,-1,5
 430 299 430 299 379 282 c 1,6,-1
 501 0 l 1,7,-1
 415 0 l 1,8,-1
 302 268 l 1,9,-1
 140 268 l 1,10,-1
 140 0 l 1,11,-1
 62 0 l 1,12,-1
 62 606 l 1,13,-1
 306 606 l 2,0,1
140 339 m 1,14,-1
 303 339 l 2,15,16
 350 339 350 339 378 366 c 128,-1,17
 406 393 406 393 406 438.5 c 0,18,19
 406 484 406 484 379.5 510 c 128,-1,20
 353 536 353 536 303 536 c 2,21,-1
 140 536 l 1,22,-1
 140 339 l 1,14,-1
EndSplineSet
Position2: "'cpsp' Capital Spacing lookup 0 subtable" dx=5 dy=0 dh=10 dv=0
EndChar

StartChar: Racute
Encoding: 340 340 88
Width: 523
Flags: MW
HStem: 268 71<140 302 140 303> 536 70<140 303 140 140> 664 117<189 345 189 345>
VStem: 62 78<0 268 339 536> 406 81<408 468.5>
LayerCount: 2
Fore
SplineSet
251 664 m 1,0,-1
 189 664 l 1,1,-1
 265 781 l 1,2,-1
 345 781 l 1,3,-1
 346 778 l 1,4,-1
 251 664 l 1,0,-1
306 606 m 2,5,6
 393 606 393 606 440 560.5 c 128,-1,7
 487 515 487 515 487 438 c 0,8,9
 487 382 487 382 458.5 340.5 c 128,-1,10
 430 299 430 299 379 282 c 1,11,-1
 501 0 l 1,12,-1
 415 0 l 1,13,-1
 302 268 l 1,14,-1
 140 268 l 1,15,-1
 140 0 l 1,16,-1
 62 0 l 1,17,-1
 62 606 l 1,18,-1
 306 606 l 2,5,6
140 339 m 1,19,-1
 303 339 l 2,20,21
 350 339 350 339 378 366 c 128,-1,22
 406 393 406 393 406 438.5 c 0,23,24
 406 484 406 484 379.5 510 c 128,-1,25
 353 536 353 536 303 536 c 2,26,-1
 140 536 l 1,27,-1
 140 339 l 1,19,-1
EndSplineSet
Position2: "'cpsp' Capital Spacing lookup 0 subtable" dx=5 dy=0 dh=10 dv=0
EndChar

StartChar: Rcaron
Encoding: 344 344 89
Width: 523
Flags: MW
HStem: 268 71<140 302 140 303> 536 70<140 303 140 140> 661 120<151 226 151 295>
VStem: 62 78<0 268 339 536> 406 81<408 468.5>
LayerCount: 2
Fore
SplineSet
226 661 m 1,0,-1
 151 781 l 1,1,-1
 222 781 l 1,2,-1
 262 711 l 1,3,-1
 301 781 l 1,4,-1
 372 781 l 1,5,-1
 295 661 l 1,6,-1
 226 661 l 1,0,-1
306 606 m 2,7,8
 393 606 393 606 440 560.5 c 128,-1,9
 487 515 487 515 487 438 c 0,10,11
 487 382 487 382 458.5 340.5 c 128,-1,12
 430 299 430 299 379 282 c 1,13,-1
 501 0 l 1,14,-1
 415 0 l 1,15,-1
 302 268 l 1,16,-1
 140 268 l 1,17,-1
 140 0 l 1,18,-1
 62 0 l 1,19,-1
 62 606 l 1,20,-1
 306 606 l 2,7,8
140 339 m 1,21,-1
 303 339 l 2,22,23
 350 339 350 339 378 366 c 128,-1,24
 406 393 406 393 406 438.5 c 0,25,26
 406 484 406 484 379.5 510 c 128,-1,27
 353 536 353 536 303 536 c 2,28,-1
 140 536 l 1,29,-1
 140 339 l 1,21,-1
EndSplineSet
Position2: "'cpsp' Capital Spacing lookup 0 subtable" dx=5 dy=0 dh=10 dv=0
EndChar

StartChar: Rcommaaccent
Encoding: 342 342 90
Width: 523
Flags: MW
HStem: -133 80<224 255 224 300> 268 71<140 302 140 303> 536 70<140 303 140 140>
VStem: 62 78<0 268 339 536> 224 76<-127 -53 -127 -53 -127 -53> 406 81<408 468.5>
LayerCount: 2
Fore
SplineSet
306 606 m 2,0,1
 393 606 393 606 440 560.5 c 128,-1,2
 487 515 487 515 487 438 c 0,3,4
 487 382 487 382 458.5 340.5 c 128,-1,5
 430 299 430 299 379 282 c 1,6,-1
 501 0 l 1,7,-1
 415 0 l 1,8,-1
 302 268 l 1,9,-1
 140 268 l 1,10,-1
 140 0 l 1,11,-1
 62 0 l 1,12,-1
 62 606 l 1,13,-1
 306 606 l 2,0,1
140 339 m 1,14,-1
 303 339 l 2,15,16
 350 339 350 339 378 366 c 128,-1,17
 406 393 406 393 406 438.5 c 0,18,19
 406 484 406 484 379.5 510 c 128,-1,20
 353 536 353 536 303 536 c 2,21,-1
 140 536 l 1,22,-1
 140 339 l 1,14,-1
274 -196 m 1,23,-1
 234 -196 l 1,24,-1
 255 -133 l 1,25,-1
 224 -133 l 1,26,-1
 224 -53 l 1,27,-1
 300 -53 l 1,28,-1
 300 -127 l 1,29,-1
 274 -196 l 1,23,-1
EndSplineSet
Position2: "'cpsp' Capital Spacing lookup 0 subtable" dx=5 dy=0 dh=10 dv=0
EndChar

StartChar: S
Encoding: 83 83 91
Width: 484
Flags: MW
HStem: -11 72<202.5 277.5 202.5 299> 545 72<211 273.5>
VStem: 36 81<133.5 171 133.5 174.5> 49 82<388.5 490 388.5 510> 351 80<436 446 436 449 436 480> 364 82<129 238.5>
LayerCount: 2
Fore
SplineSet
36 171 m 0,0,1
 36 175 36 175 37 189 c 1,2,-1
 118 189 l 1,3,-1
 117 171 l 1,4,5
 117 117 117 117 150 89 c 128,-1,6
 183 61 183 61 240.5 61 c 128,-1,7
 298 61 298 61 331 87 c 128,-1,8
 364 113 364 113 364 158.5 c 128,-1,9
 364 204 364 204 331.5 229.5 c 128,-1,10
 299 255 299 255 253 269 c 128,-1,11
 207 283 207 283 160.5 300 c 128,-1,12
 114 317 114 317 81.5 355 c 128,-1,13
 49 393 49 393 49 454 c 0,14,15
 49 534 49 534 103 575.5 c 128,-1,16
 157 617 157 617 241.5 617 c 128,-1,17
 326 617 326 617 378.5 575 c 128,-1,18
 431 533 431 533 431 446 c 2,19,-1
 431 436 l 1,20,-1
 351 436 l 1,21,-1
 351 449 l 2,22,23
 351 494 351 494 320.5 519.5 c 128,-1,24
 290 545 290 545 241 545 c 128,-1,25
 192 545 192 545 161.5 524 c 128,-1,26
 131 503 131 503 131 465 c 128,-1,27
 131 427 131 427 154.5 404 c 128,-1,28
 178 381 178 381 213 370 c 128,-1,29
 248 359 248 359 288.5 343.5 c 128,-1,30
 329 328 329 328 364 311.5 c 128,-1,31
 399 295 399 295 422.5 260 c 128,-1,32
 446 225 446 225 446 175 c 0,33,34
 446 78 446 78 390.5 33.5 c 128,-1,35
 335 -11 335 -11 242.5 -11 c 128,-1,36
 150 -11 150 -11 93 33 c 128,-1,37
 36 77 36 77 36 171 c 0,0,1
EndSplineSet
Position2: "'cpsp' Capital Spacing lookup 0 subtable" dx=5 dy=0 dh=10 dv=0
EndChar

StartChar: Sacute
Encoding: 346 346 92
Width: 484
Flags: MW
HStem: -11 72<202.5 277.5 202.5 299> 545 72<211 273.5> 664 117<189 345 189 345>
VStem: 36 81<133.5 171 133.5 174.5> 49 82<388.5 490 388.5 510> 351 80<436 446 436 449 436 480> 364 82<129 238.5>
LayerCount: 2
Fore
SplineSet
250 664 m 1,0,-1
 189 664 l 1,1,-1
 265 781 l 1,2,-1
 345 781 l 1,3,-1
 346 778 l 1,4,-1
 250 664 l 1,0,-1
36 171 m 0,5,6
 36 175 36 175 37 189 c 1,7,-1
 118 189 l 1,8,-1
 117 171 l 1,9,10
 117 117 117 117 150 89 c 128,-1,11
 183 61 183 61 240.5 61 c 128,-1,12
 298 61 298 61 331 87 c 128,-1,13
 364 113 364 113 364 158.5 c 128,-1,14
 364 204 364 204 331.5 229.5 c 128,-1,15
 299 255 299 255 253 269 c 128,-1,16
 207 283 207 283 160.5 300 c 128,-1,17
 114 317 114 317 81.5 355 c 128,-1,18
 49 393 49 393 49 454 c 0,19,20
 49 534 49 534 103 575.5 c 128,-1,21
 157 617 157 617 241.5 617 c 128,-1,22
 326 617 326 617 378.5 575 c 128,-1,23
 431 533 431 533 431 446 c 2,24,-1
 431 436 l 1,25,-1
 351 436 l 1,26,-1
 351 449 l 2,27,28
 351 494 351 494 320.5 519.5 c 128,-1,29
 290 545 290 545 241 545 c 128,-1,30
 192 545 192 545 161.5 524 c 128,-1,31
 131 503 131 503 131 465 c 128,-1,32
 131 427 131 427 154.5 404 c 128,-1,33
 178 381 178 381 213 370 c 128,-1,34
 248 359 248 359 288.5 343.5 c 128,-1,35
 329 328 329 328 364 311.5 c 128,-1,36
 399 295 399 295 422.5 260 c 128,-1,37
 446 225 446 225 446 175 c 0,38,39
 446 78 446 78 390.5 33.5 c 128,-1,40
 335 -11 335 -11 242.5 -11 c 128,-1,41
 150 -11 150 -11 93 33 c 128,-1,42
 36 77 36 77 36 171 c 0,5,6
EndSplineSet
Position2: "'cpsp' Capital Spacing lookup 0 subtable" dx=5 dy=0 dh=10 dv=0
EndChar

StartChar: Scaron
Encoding: 352 352 93
Width: 484
Flags: MW
HStem: -11 72<202.5 277.5 202.5 299> 545 72<211 273.5> 661 120<132 276 132 207>
VStem: 36 81<133.5 171 133.5 174.5> 49 82<388.5 490 388.5 510> 351 80<436 446 436 449 436 480> 364 82<129 238.5>
LayerCount: 2
Fore
SplineSet
132 781 m 1,0,-1
 202 781 l 1,1,-1
 241 711 l 1,2,-1
 281 781 l 1,3,-1
 352 781 l 1,4,-1
 276 661 l 1,5,-1
 207 661 l 1,6,-1
 132 781 l 1,0,-1
36 171 m 0,7,8
 36 175 36 175 37 189 c 1,9,-1
 118 189 l 1,10,-1
 117 171 l 1,11,12
 117 117 117 117 150 89 c 128,-1,13
 183 61 183 61 240.5 61 c 128,-1,14
 298 61 298 61 331 87 c 128,-1,15
 364 113 364 113 364 158.5 c 128,-1,16
 364 204 364 204 331.5 229.5 c 128,-1,17
 299 255 299 255 253 269 c 128,-1,18
 207 283 207 283 160.5 300 c 128,-1,19
 114 317 114 317 81.5 355 c 128,-1,20
 49 393 49 393 49 454 c 0,21,22
 49 534 49 534 103 575.5 c 128,-1,23
 157 617 157 617 241.5 617 c 128,-1,24
 326 617 326 617 378.5 575 c 128,-1,25
 431 533 431 533 431 446 c 2,26,-1
 431 436 l 1,27,-1
 351 436 l 1,28,-1
 351 449 l 2,29,30
 351 494 351 494 320.5 519.5 c 128,-1,31
 290 545 290 545 241 545 c 128,-1,32
 192 545 192 545 161.5 524 c 128,-1,33
 131 503 131 503 131 465 c 128,-1,34
 131 427 131 427 154.5 404 c 128,-1,35
 178 381 178 381 213 370 c 128,-1,36
 248 359 248 359 288.5 343.5 c 128,-1,37
 329 328 329 328 364 311.5 c 128,-1,38
 399 295 399 295 422.5 260 c 128,-1,39
 446 225 446 225 446 175 c 0,40,41
 446 78 446 78 390.5 33.5 c 128,-1,42
 335 -11 335 -11 242.5 -11 c 128,-1,43
 150 -11 150 -11 93 33 c 128,-1,44
 36 77 36 77 36 171 c 0,7,8
EndSplineSet
Position2: "'cpsp' Capital Spacing lookup 0 subtable" dx=5 dy=0 dh=10 dv=0
EndChar

StartChar: Scedilla
Encoding: 350 350 94
Width: 484
Flags: MW
HStem: -161 50<220.5 226 226 236 159 251> -68 36<199 254> -9 70<208 208> 545 72<211 273.5>
VStem: 36 81<133.5 171 133.5 174.5> 49 82<388.5 490 388.5 510> 203.5 51.5 258 67<-97.5 -82> 351 80<436 446 436 449 436 480> 364 82<129 238.5>
LayerCount: 2
Fore
SplineSet
36 171 m 0,0,1
 36 175 36 175 37 189 c 1,2,-1
 118 189 l 1,3,-1
 117 171 l 1,4,5
 117 117 117 117 150 89 c 128,-1,6
 183 61 183 61 240.5 61 c 128,-1,7
 298 61 298 61 331 87 c 128,-1,8
 364 113 364 113 364 158.5 c 128,-1,9
 364 204 364 204 331.5 229.5 c 128,-1,10
 299 255 299 255 253 269 c 128,-1,11
 207 283 207 283 160.5 300 c 128,-1,12
 114 317 114 317 81.5 355 c 128,-1,13
 49 393 49 393 49 454 c 0,14,15
 49 534 49 534 103 575.5 c 128,-1,16
 157 617 157 617 241.5 617 c 128,-1,17
 326 617 326 617 378.5 575 c 128,-1,18
 431 533 431 533 431 446 c 2,19,-1
 431 436 l 1,20,-1
 351 436 l 1,21,-1
 351 449 l 2,22,23
 351 494 351 494 320.5 519.5 c 128,-1,24
 290 545 290 545 241 545 c 128,-1,25
 192 545 192 545 161.5 524 c 128,-1,26
 131 503 131 503 131 465 c 128,-1,27
 131 427 131 427 154.5 404 c 128,-1,28
 178 381 178 381 213 370 c 128,-1,29
 248 359 248 359 288.5 343.5 c 128,-1,30
 329 328 329 328 364 311.5 c 128,-1,31
 399 295 399 295 422.5 260 c 128,-1,32
 446 225 446 225 446 175 c 0,33,34
 446 -1 446 -1 256 -10 c 1,35,-1
 254 -32 l 1,36,37
 325 -36 325 -36 325 -89 c 0,38,39
 325 -129 325 -129 297 -145 c 128,-1,40
 269 -161 269 -161 232.5 -161 c 128,-1,41
 196 -161 196 -161 159 -154 c 1,42,-1
 159 -111 l 1,43,-1
 226 -111 l 2,44,45
 258 -111 258 -111 258 -89.5 c 128,-1,46
 258 -68 258 -68 228 -68 c 2,47,-1
 199 -68 l 1,48,-1
 208 -9 l 1,49,50
 130 -2 130 -2 83 42 c 128,-1,51
 36 86 36 86 36 171 c 0,0,1
EndSplineSet
Substitution2: "'locl' Localized Forms in Latin lookup 2 subtable" Scommaaccent
Substitution2: "'locl' Localized Forms in Latin lookup 1 subtable" Scommaaccent
Substitution2: "'aalt' Access All Alternates lookup 0 subtable" Scommaaccent
Position2: "'cpsp' Capital Spacing lookup 0 subtable" dx=5 dy=0 dh=10 dv=0
EndChar

StartChar: Scircumflex
Encoding: 348 348 95
Width: 484
Flags: MW
HStem: -11 72<202.5 277.5 202.5 299> 545 72<211 273.5> 660 120<132 277 132 277 208 281 208 352>
VStem: 36 81<133.5 171 133.5 174.5> 49 82<388.5 490 388.5 510> 351 80<436 446 436 449 436 480> 364 82<129 238.5>
LayerCount: 2
Fore
SplineSet
242 730 m 1,0,-1
 202 660 l 1,1,-1
 132 660 l 1,2,-1
 208 780 l 1,3,-1
 277 780 l 1,4,-1
 352 660 l 1,5,-1
 281 660 l 1,6,-1
 242 730 l 1,0,-1
36 171 m 0,7,8
 36 175 36 175 37 189 c 1,9,-1
 118 189 l 1,10,-1
 117 171 l 1,11,12
 117 117 117 117 150 89 c 128,-1,13
 183 61 183 61 240.5 61 c 128,-1,14
 298 61 298 61 331 87 c 128,-1,15
 364 113 364 113 364 158.5 c 128,-1,16
 364 204 364 204 331.5 229.5 c 128,-1,17
 299 255 299 255 253 269 c 128,-1,18
 207 283 207 283 160.5 300 c 128,-1,19
 114 317 114 317 81.5 355 c 128,-1,20
 49 393 49 393 49 454 c 0,21,22
 49 534 49 534 103 575.5 c 128,-1,23
 157 617 157 617 241.5 617 c 128,-1,24
 326 617 326 617 378.5 575 c 128,-1,25
 431 533 431 533 431 446 c 2,26,-1
 431 436 l 1,27,-1
 351 436 l 1,28,-1
 351 449 l 2,29,30
 351 494 351 494 320.5 519.5 c 128,-1,31
 290 545 290 545 241 545 c 128,-1,32
 192 545 192 545 161.5 524 c 128,-1,33
 131 503 131 503 131 465 c 128,-1,34
 131 427 131 427 154.5 404 c 128,-1,35
 178 381 178 381 213 370 c 128,-1,36
 248 359 248 359 288.5 343.5 c 128,-1,37
 329 328 329 328 364 311.5 c 128,-1,38
 399 295 399 295 422.5 260 c 128,-1,39
 446 225 446 225 446 175 c 0,40,41
 446 78 446 78 390.5 33.5 c 128,-1,42
 335 -11 335 -11 242.5 -11 c 128,-1,43
 150 -11 150 -11 93 33 c 128,-1,44
 36 77 36 77 36 171 c 0,7,8
EndSplineSet
Position2: "'cpsp' Capital Spacing lookup 0 subtable" dx=5 dy=0 dh=10 dv=0
EndChar

StartChar: Scommaaccent
Encoding: 536 536 96
Width: 484
Flags: MW
HStem: -133 80<204 234 204 279> -11 72<202.5 277.5 202.5 299> 545 72<211 273.5>
VStem: 36 81<133.5 171 133.5 174.5> 49 82<388.5 490 388.5 510> 204 75<-127 -53 -127 -53 -127 -53> 351 80<436 446 436 449 436 480> 364 82<129 238.5>
LayerCount: 2
Fore
SplineSet
36 171 m 0,0,1
 36 175 36 175 37 189 c 1,2,-1
 118 189 l 1,3,-1
 117 171 l 1,4,5
 117 117 117 117 150 89 c 128,-1,6
 183 61 183 61 240.5 61 c 128,-1,7
 298 61 298 61 331 87 c 128,-1,8
 364 113 364 113 364 158.5 c 128,-1,9
 364 204 364 204 331.5 229.5 c 128,-1,10
 299 255 299 255 253 269 c 128,-1,11
 207 283 207 283 160.5 300 c 128,-1,12
 114 317 114 317 81.5 355 c 128,-1,13
 49 393 49 393 49 454 c 0,14,15
 49 534 49 534 103 575.5 c 128,-1,16
 157 617 157 617 241.5 617 c 128,-1,17
 326 617 326 617 378.5 575 c 128,-1,18
 431 533 431 533 431 446 c 2,19,-1
 431 436 l 1,20,-1
 351 436 l 1,21,-1
 351 449 l 2,22,23
 351 494 351 494 320.5 519.5 c 128,-1,24
 290 545 290 545 241 545 c 128,-1,25
 192 545 192 545 161.5 524 c 128,-1,26
 131 503 131 503 131 465 c 128,-1,27
 131 427 131 427 154.5 404 c 128,-1,28
 178 381 178 381 213 370 c 128,-1,29
 248 359 248 359 288.5 343.5 c 128,-1,30
 329 328 329 328 364 311.5 c 128,-1,31
 399 295 399 295 422.5 260 c 128,-1,32
 446 225 446 225 446 175 c 0,33,34
 446 78 446 78 390.5 33.5 c 128,-1,35
 335 -11 335 -11 242.5 -11 c 128,-1,36
 150 -11 150 -11 93 33 c 128,-1,37
 36 77 36 77 36 171 c 0,0,1
213 -196 m 1,38,-1
 234 -133 l 1,39,-1
 204 -133 l 1,40,-1
 204 -53 l 1,41,-1
 279 -53 l 1,42,-1
 279 -127 l 1,43,-1
 253 -196 l 1,44,-1
 213 -196 l 1,38,-1
EndSplineSet
Position2: "'cpsp' Capital Spacing lookup 0 subtable" dx=5 dy=0 dh=10 dv=0
EndChar

StartChar: T
Encoding: 84 84 97
Width: 443
Flags: MW
HStem: 536 70<17 182 17 425 260 425 260 260>
VStem: 182 78<0 536 0 536>
LayerCount: 2
Fore
SplineSet
260 536 m 1,0,-1
 260 0 l 1,1,-1
 182 0 l 1,2,-1
 182 536 l 1,3,-1
 17 536 l 1,4,-1
 17 606 l 1,5,-1
 425 606 l 1,6,-1
 425 536 l 1,7,-1
 260 536 l 1,0,-1
EndSplineSet
Position2: "'cpsp' Capital Spacing lookup 0 subtable" dx=5 dy=0 dh=10 dv=0
EndChar

StartChar: Tbar
Encoding: 358 358 98
Width: 443
Flags: MW
HStem: 283 64<68 182 68 182 260 376> 536 70<17 182 17 425 260 425 260 260>
VStem: 182 78<0 283 0 283 347 536>
LayerCount: 2
Fore
SplineSet
260 536 m 1,0,-1
 260 347 l 1,1,-1
 376 347 l 1,2,-1
 376 283 l 1,3,-1
 260 283 l 1,4,-1
 260 0 l 1,5,-1
 182 0 l 1,6,-1
 182 283 l 1,7,-1
 68 283 l 1,8,-1
 68 347 l 1,9,-1
 182 347 l 1,10,-1
 182 536 l 1,11,-1
 17 536 l 1,12,-1
 17 606 l 1,13,-1
 425 606 l 1,14,-1
 425 536 l 1,15,-1
 260 536 l 1,0,-1
EndSplineSet
Position2: "'cpsp' Capital Spacing lookup 0 subtable" dx=5 dy=0 dh=10 dv=0
EndChar

StartChar: Tcaron
Encoding: 356 356 99
Width: 443
Flags: MW
HStem: 536 70<17 182 17 425 260 425 260 260> 661 120<111 187 111 255>
VStem: 182 78<0 536 0 536>
LayerCount: 2
Fore
SplineSet
187 661 m 1,0,-1
 111 781 l 1,1,-1
 182 781 l 1,2,-1
 221 711 l 1,3,-1
 261 781 l 1,4,-1
 331 781 l 1,5,-1
 255 661 l 1,6,-1
 187 661 l 1,0,-1
260 536 m 1,7,-1
 260 0 l 1,8,-1
 182 0 l 1,9,-1
 182 536 l 1,10,-1
 17 536 l 1,11,-1
 17 606 l 1,12,-1
 425 606 l 1,13,-1
 425 536 l 1,14,-1
 260 536 l 1,7,-1
EndSplineSet
Position2: "'cpsp' Capital Spacing lookup 0 subtable" dx=5 dy=0 dh=10 dv=0
EndChar

StartChar: Tcedilla
Encoding: 354 354 100
Width: 443
Flags: MW
HStem: -161 50<200.5 206 206 215.5 139 231> -68 36<179 233> 536 70<17 182 17 425 260 260 260 425>
VStem: 182 78<0 536 0 536> 238 67<-97.5 -82>
LayerCount: 2
Fore
SplineSet
238 0 m 1,0,-1
 233 -32 l 1,1,2
 305 -36 305 -36 305 -89 c 0,3,4
 305 -129 305 -129 277 -145 c 128,-1,5
 249 -161 249 -161 212.5 -161 c 0,6,7
 176 -161 176 -161 139 -154 c 1,8,-1
 139 -111 l 1,9,-1
 206 -111 l 2,10,11
 238 -111 238 -111 238 -89.5 c 0,12,13
 238 -68 238 -68 208 -68 c 2,14,-1
 179 -68 l 1,15,-1
 189 0 l 1,16,-1
 182 0 l 1,17,-1
 182 536 l 1,18,-1
 17 536 l 1,19,-1
 17 606 l 1,20,-1
 425 606 l 1,21,-1
 425 536 l 1,22,-1
 260 536 l 1,23,-1
 260 0 l 1,24,-1
 238 0 l 1,0,-1
EndSplineSet
Substitution2: "'locl' Localized Forms in Latin lookup 2 subtable" uni021A
Substitution2: "'locl' Localized Forms in Latin lookup 1 subtable" uni021A
Substitution2: "'aalt' Access All Alternates lookup 0 subtable" uni021A
Position2: "'cpsp' Capital Spacing lookup 0 subtable" dx=5 dy=0 dh=10 dv=0
EndChar

StartChar: uni021A
Encoding: 538 538 101
Width: 443
Flags: MW
HStem: -133 80<184 214 184 259> 536 70<17 182 17 425 260 425 260 260>
VStem: 182 78<0 536 0 536>
LayerCount: 2
Fore
SplineSet
260 536 m 1,0,-1
 260 0 l 1,1,-1
 182 0 l 1,2,-1
 182 536 l 1,3,-1
 17 536 l 1,4,-1
 17 606 l 1,5,-1
 425 606 l 1,6,-1
 425 536 l 1,7,-1
 260 536 l 1,0,-1
233 -196 m 1,8,-1
 194 -196 l 1,9,-1
 214 -133 l 1,10,-1
 184 -133 l 1,11,-1
 184 -53 l 1,12,-1
 259 -53 l 1,13,-1
 259 -127 l 1,14,-1
 233 -196 l 1,8,-1
EndSplineSet
Position2: "'cpsp' Capital Spacing lookup 0 subtable" dx=5 dy=0 dh=10 dv=0
EndChar

StartChar: U
Encoding: 85 85 102
Width: 523
Flags: MW
HStem: -11 72<224 300 224 324> 586 20G<62 140 140 140 384 461 461 461>
VStem: 62 78<197 606> 384 77<193 197 197 606>
LayerCount: 2
Fore
SplineSet
461 197 m 2,0,1
 461 96 461 96 408.5 42.5 c 128,-1,2
 356 -11 356 -11 261.5 -11 c 0,3,4
 167 -11 167 -11 114.5 42.5 c 128,-1,5
 62 96 62 96 62 197 c 2,6,-1
 62 606 l 1,7,-1
 140 606 l 1,8,-1
 140 193 l 2,9,10
 140 129 140 129 172 95 c 128,-1,11
 204 61 204 61 262 61 c 128,-1,12
 320 61 320 61 352 95 c 128,-1,13
 384 129 384 129 384 193 c 2,14,-1
 384 606 l 1,15,-1
 461 606 l 1,16,-1
 461 197 l 2,0,1
EndSplineSet
Position2: "'cpsp' Capital Spacing lookup 0 subtable" dx=5 dy=0 dh=10 dv=0
EndChar

StartChar: Uacute
Encoding: 218 218 103
Width: 523
Flags: MW
HStem: -11 72<224 300 224 324> 586 20G<62 140 140 140 384 461 461 461> 664 117<209 364 209 364>
VStem: 62 78<197 606> 384 77<193 197 197 606>
LayerCount: 2
Fore
SplineSet
271 664 m 1,0,-1
 209 664 l 1,1,-1
 285 781 l 1,2,-1
 364 781 l 1,3,-1
 365 778 l 1,4,-1
 271 664 l 1,0,-1
461 197 m 2,5,6
 461 96 461 96 408.5 42.5 c 128,-1,7
 356 -11 356 -11 261.5 -11 c 0,8,9
 167 -11 167 -11 114.5 42.5 c 128,-1,10
 62 96 62 96 62 197 c 2,11,-1
 62 606 l 1,12,-1
 140 606 l 1,13,-1
 140 193 l 2,14,15
 140 129 140 129 172 95 c 128,-1,16
 204 61 204 61 262 61 c 128,-1,17
 320 61 320 61 352 95 c 128,-1,18
 384 129 384 129 384 193 c 2,19,-1
 384 606 l 1,20,-1
 461 606 l 1,21,-1
 461 197 l 2,5,6
EndSplineSet
Position2: "'cpsp' Capital Spacing lookup 0 subtable" dx=5 dy=0 dh=10 dv=0
EndChar

StartChar: Ubreve
Encoding: 364 364 104
Width: 523
Flags: MW
HStem: -11 72<224 300 224 324> 586 20G<62 140 140 140 384 461 461 461> 695 56<247 277 247 296>
VStem: 62 78<197 606> 384 77<193 197 197 606>
LayerCount: 2
Fore
SplineSet
371 781 m 1,0,1
 371 749 371 749 340.5 722 c 128,-1,2
 310 695 310 695 262 695 c 128,-1,3
 214 695 214 695 183 722 c 128,-1,4
 152 749 152 749 152 781 c 1,5,-1
 210 781 l 1,6,7
 212 770 212 770 226.5 760.5 c 128,-1,8
 241 751 241 751 262 751 c 128,-1,9
 283 751 283 751 298 760.5 c 128,-1,10
 313 770 313 770 315 781 c 1,11,-1
 371 781 l 1,0,1
461 197 m 2,12,13
 461 96 461 96 408.5 42.5 c 128,-1,14
 356 -11 356 -11 261.5 -11 c 0,15,16
 167 -11 167 -11 114.5 42.5 c 128,-1,17
 62 96 62 96 62 197 c 2,18,-1
 62 606 l 1,19,-1
 140 606 l 1,20,-1
 140 193 l 2,21,22
 140 129 140 129 172 95 c 128,-1,23
 204 61 204 61 262 61 c 128,-1,24
 320 61 320 61 352 95 c 128,-1,25
 384 129 384 129 384 193 c 2,26,-1
 384 606 l 1,27,-1
 461 606 l 1,28,-1
 461 197 l 2,12,13
EndSplineSet
Position2: "'cpsp' Capital Spacing lookup 0 subtable" dx=5 dy=0 dh=10 dv=0
EndChar

StartChar: Ucircumflex
Encoding: 219 219 105
Width: 523
Flags: MW
HStem: -11 72<224 300 224 324> 586 20G<62 140 140 140 384 461 461 461> 660 120<151 296 151 296 227 372 227 301>
VStem: 62 78<197 606> 384 77<193 197 197 606>
LayerCount: 2
Fore
SplineSet
301 660 m 1,0,-1
 263 730 l 1,1,-1
 222 660 l 1,2,-1
 151 660 l 1,3,-1
 227 780 l 1,4,-1
 296 780 l 1,5,-1
 372 660 l 1,6,-1
 301 660 l 1,0,-1
461 197 m 2,7,8
 461 96 461 96 408.5 42.5 c 128,-1,9
 356 -11 356 -11 261.5 -11 c 0,10,11
 167 -11 167 -11 114.5 42.5 c 128,-1,12
 62 96 62 96 62 197 c 2,13,-1
 62 606 l 1,14,-1
 140 606 l 1,15,-1
 140 193 l 2,16,17
 140 129 140 129 172 95 c 128,-1,18
 204 61 204 61 262 61 c 128,-1,19
 320 61 320 61 352 95 c 128,-1,20
 384 129 384 129 384 193 c 2,21,-1
 384 606 l 1,22,-1
 461 606 l 1,23,-1
 461 197 l 2,7,8
EndSplineSet
Position2: "'cpsp' Capital Spacing lookup 0 subtable" dx=5 dy=0 dh=10 dv=0
EndChar

StartChar: Udieresis
Encoding: 220 220 106
Width: 523
Flags: MW
HStem: -11 72<224 300 224 324> 586 20G<62 140 140 140 384 461 461 461> 697 84<156 233 156 233 289 367 156 289>
VStem: 62 78<197 606> 156 77<697 781 697 781> 289 78<697 781 697 781> 384 77<193 197 197 606>
LayerCount: 2
Fore
SplineSet
156 697 m 1,0,-1
 156 781 l 1,1,-1
 233 781 l 1,2,-1
 233 697 l 1,3,-1
 156 697 l 1,0,-1
289 697 m 1,4,-1
 289 781 l 1,5,-1
 367 781 l 1,6,-1
 367 697 l 1,7,-1
 289 697 l 1,4,-1
461 197 m 2,8,9
 461 96 461 96 408.5 42.5 c 128,-1,10
 356 -11 356 -11 261.5 -11 c 0,11,12
 167 -11 167 -11 114.5 42.5 c 128,-1,13
 62 96 62 96 62 197 c 2,14,-1
 62 606 l 1,15,-1
 140 606 l 1,16,-1
 140 193 l 2,17,18
 140 129 140 129 172 95 c 128,-1,19
 204 61 204 61 262 61 c 128,-1,20
 320 61 320 61 352 95 c 128,-1,21
 384 129 384 129 384 193 c 2,22,-1
 384 606 l 1,23,-1
 461 606 l 1,24,-1
 461 197 l 2,8,9
EndSplineSet
Position2: "'cpsp' Capital Spacing lookup 0 subtable" dx=5 dy=0 dh=10 dv=0
EndChar

StartChar: Ugrave
Encoding: 217 217 107
Width: 523
Flags: MW
HStem: -11 72<224 300 224 324> 586 20G<62 140 140 140 384 461 461 461> 664 117<158 254 158 314>
VStem: 62 78<197 606> 384 77<193 197 197 606>
LayerCount: 2
Fore
SplineSet
254 664 m 1,0,-1
 157 778 l 1,1,-1
 158 781 l 1,2,-1
 239 781 l 1,3,-1
 314 664 l 1,4,-1
 254 664 l 1,0,-1
461 197 m 2,5,6
 461 96 461 96 408.5 42.5 c 128,-1,7
 356 -11 356 -11 261.5 -11 c 0,8,9
 167 -11 167 -11 114.5 42.5 c 128,-1,10
 62 96 62 96 62 197 c 2,11,-1
 62 606 l 1,12,-1
 140 606 l 1,13,-1
 140 193 l 2,14,15
 140 129 140 129 172 95 c 128,-1,16
 204 61 204 61 262 61 c 128,-1,17
 320 61 320 61 352 95 c 128,-1,18
 384 129 384 129 384 193 c 2,19,-1
 384 606 l 1,20,-1
 461 606 l 1,21,-1
 461 197 l 2,5,6
EndSplineSet
Position2: "'cpsp' Capital Spacing lookup 0 subtable" dx=5 dy=0 dh=10 dv=0
EndChar

StartChar: Uhungarumlaut
Encoding: 368 368 108
Width: 523
Flags: MW
HStem: -11 72<224 300 224 324> 586 20G<62 140 140 140 384 461 461 461> 664 117<232 238 177 311 293 293 293 311 347 353>
VStem: 62 78<197 606> 384 77<193 197 197 606>
LayerCount: 2
Fore
SplineSet
238 664 m 1,0,-1
 177 664 l 1,1,-1
 232 781 l 1,2,-1
 311 781 l 1,3,-1
 312 778 l 1,4,-1
 238 664 l 1,0,-1
353 664 m 1,5,-1
 293 664 l 1,6,-1
 347 781 l 1,7,-1
 426 781 l 1,8,-1
 427 778 l 1,9,-1
 353 664 l 1,5,-1
461 197 m 2,10,11
 461 96 461 96 408.5 42.5 c 128,-1,12
 356 -11 356 -11 261.5 -11 c 0,13,14
 167 -11 167 -11 114.5 42.5 c 128,-1,15
 62 96 62 96 62 197 c 2,16,-1
 62 606 l 1,17,-1
 140 606 l 1,18,-1
 140 193 l 2,19,20
 140 129 140 129 172 95 c 128,-1,21
 204 61 204 61 262 61 c 128,-1,22
 320 61 320 61 352 95 c 128,-1,23
 384 129 384 129 384 193 c 2,24,-1
 384 606 l 1,25,-1
 461 606 l 1,26,-1
 461 197 l 2,10,11
EndSplineSet
Position2: "'cpsp' Capital Spacing lookup 0 subtable" dx=5 dy=0 dh=10 dv=0
EndChar

StartChar: Umacron
Encoding: 362 362 109
Width: 523
Flags: MW
HStem: -11 72<224 300 224 324> 586 20G<62 140 140 140 384 461 461 461> 671 64<151 372 151 372>
VStem: 62 78<197 606> 151 221<671 735 671 735> 384 77<193 197 197 606>
LayerCount: 2
Fore
SplineSet
151 671 m 1,0,-1
 151 735 l 1,1,-1
 372 735 l 1,2,-1
 372 671 l 1,3,-1
 151 671 l 1,0,-1
461 197 m 2,4,5
 461 96 461 96 408.5 42.5 c 128,-1,6
 356 -11 356 -11 261.5 -11 c 0,7,8
 167 -11 167 -11 114.5 42.5 c 128,-1,9
 62 96 62 96 62 197 c 2,10,-1
 62 606 l 1,11,-1
 140 606 l 1,12,-1
 140 193 l 2,13,14
 140 129 140 129 172 95 c 128,-1,15
 204 61 204 61 262 61 c 128,-1,16
 320 61 320 61 352 95 c 128,-1,17
 384 129 384 129 384 193 c 2,18,-1
 384 606 l 1,19,-1
 461 606 l 1,20,-1
 461 197 l 2,4,5
EndSplineSet
Position2: "'cpsp' Capital Spacing lookup 0 subtable" dx=5 dy=0 dh=10 dv=0
EndChar

StartChar: Uogonek
Encoding: 370 370 110
Width: 523
Flags: MW
HStem: -161 58<322 395> -11 72<224 266> 586 20G<62 140 140 140 384 461 461 461>
VStem: 62 78<197 606> 258 69<-67.5 -66> 384 77<193 197 197 606>
LayerCount: 2
Fore
SplineSet
461 606 m 1,0,-1
 461 197 l 2,1,2
 461 50 461 50 351 4 c 1,3,4
 327 -22 327 -22 327 -55 c 0,5,6
 327 -103 327 -103 368 -103 c 2,7,-1
 395 -103 l 1,8,-1
 395 -149 l 1,9,10
 364 -161 364 -161 335.5 -161 c 0,11,12
 307 -161 307 -161 282.5 -142 c 128,-1,13
 258 -123 258 -123 258 -83 c 0,14,15
 258 -43 258 -43 282 -10 c 1,16,17
 276 -11 276 -11 262 -11 c 0,18,19
 167 -11 167 -11 114.5 42.5 c 128,-1,20
 62 96 62 96 62 197 c 2,21,-1
 62 606 l 1,22,-1
 140 606 l 1,23,-1
 140 193 l 2,24,25
 140 129 140 129 172 95 c 128,-1,26
 204 61 204 61 262 61 c 128,-1,27
 320 61 320 61 352 95 c 128,-1,28
 384 129 384 129 384 193 c 2,29,-1
 384 606 l 1,30,-1
 461 606 l 1,0,-1
EndSplineSet
Position2: "'cpsp' Capital Spacing lookup 0 subtable" dx=5 dy=0 dh=10 dv=0
EndChar

StartChar: Uring
Encoding: 366 366 111
Width: 523
Flags: MW
HStem: -11 72<224 300 224 324> 586 20G<62 140 140 140 384 461 461 461> 639 40<249.5 274 249.5 285.5> 769 40<249.5 274>
VStem: 62 78<197 606> 177 40<711.5 736.5 711.5 747.5> 307 40<711.5 736.5> 384 77<193 197 197 606>
LayerCount: 2
Fore
SplineSet
262 809 m 128,-1,1
 297 809 297 809 322 784 c 128,-1,2
 347 759 347 759 347 724 c 128,-1,3
 347 689 347 689 322 664 c 128,-1,4
 297 639 297 639 262 639 c 128,-1,5
 227 639 227 639 202 663.5 c 128,-1,6
 177 688 177 688 177 723.5 c 128,-1,7
 177 759 177 759 202 784 c 128,-1,0
 227 809 227 809 262 809 c 128,-1,1
293.5 756 m 128,-1,9
 280 769 280 769 261.5 769 c 128,-1,10
 243 769 243 769 230 756 c 128,-1,11
 217 743 217 743 217 724 c 128,-1,12
 217 705 217 705 230 692 c 128,-1,13
 243 679 243 679 261.5 679 c 128,-1,14
 280 679 280 679 293.5 692 c 128,-1,15
 307 705 307 705 307 724 c 128,-1,8
 307 743 307 743 293.5 756 c 128,-1,9
461 197 m 2,16,17
 461 96 461 96 408.5 42.5 c 128,-1,18
 356 -11 356 -11 261.5 -11 c 128,-1,19
 167 -11 167 -11 114.5 42.5 c 128,-1,20
 62 96 62 96 62 197 c 2,21,-1
 62 606 l 1,22,-1
 140 606 l 1,23,-1
 140 193 l 2,24,25
 140 129 140 129 172 95 c 128,-1,26
 204 61 204 61 262 61 c 128,-1,27
 320 61 320 61 352 95 c 128,-1,28
 384 129 384 129 384 193 c 2,29,-1
 384 606 l 1,30,-1
 461 606 l 1,31,-1
 461 197 l 2,16,17
EndSplineSet
Position2: "'cpsp' Capital Spacing lookup 0 subtable" dx=5 dy=0 dh=10 dv=0
EndChar

StartChar: Utilde
Encoding: 360 360 112
Width: 523
Flags: MW
HStem: -11 72<224 300 224 324> 586 20G<62 140 140 140 384 461 461 461> 689 65<296.5 317 292 342.5> 716 65<206 227 181.5 231>
VStem: 62 78<197 606> 384 77<193 197 197 606>
LayerCount: 2
Fore
SplineSet
391 781 m 1,0,1
 391 746 391 746 372 717.5 c 128,-1,2
 353 689 353 689 316 689 c 0,3,4
 296 689 296 689 263 702.5 c 128,-1,5
 230 716 230 716 214 716 c 0,6,7
 188 716 188 716 184 689 c 1,8,-1
 133 689 l 1,9,10
 133 724 133 724 152.5 752.5 c 128,-1,11
 172 781 172 781 208 781 c 0,12,13
 228 781 228 781 260 767.5 c 128,-1,14
 292 754 292 754 309 754 c 0,15,16
 336 754 336 754 339 781 c 1,17,-1
 391 781 l 1,0,1
461 197 m 2,18,19
 461 96 461 96 408.5 42.5 c 128,-1,20
 356 -11 356 -11 261.5 -11 c 0,21,22
 167 -11 167 -11 114.5 42.5 c 128,-1,23
 62 96 62 96 62 197 c 2,24,-1
 62 606 l 1,25,-1
 140 606 l 1,26,-1
 140 193 l 2,27,28
 140 129 140 129 172 95 c 128,-1,29
 204 61 204 61 262 61 c 128,-1,30
 320 61 320 61 352 95 c 128,-1,31
 384 129 384 129 384 193 c 2,32,-1
 384 606 l 1,33,-1
 461 606 l 1,34,-1
 461 197 l 2,18,19
EndSplineSet
Position2: "'cpsp' Capital Spacing lookup 0 subtable" dx=5 dy=0 dh=10 dv=0
EndChar

StartChar: V
Encoding: 86 86 113
Width: 484
Flags: MW
HStem: 0 86<243 247 243 292 192 247> 586 20G<7 93 93 93 401 476 476 476>
VStem: 7 469<606 606>
LayerCount: 2
Fore
SplineSet
7 606 m 1,0,-1
 93 606 l 1,1,-1
 243 86 l 1,2,-1
 247 86 l 1,3,-1
 401 606 l 1,4,-1
 476 606 l 1,5,-1
 292 0 l 1,6,-1
 192 0 l 1,7,-1
 7 606 l 1,0,-1
EndSplineSet
Position2: "'cpsp' Capital Spacing lookup 0 subtable" dx=5 dy=0 dh=10 dv=0
EndChar

StartChar: W
Encoding: 87 87 114
Width: 684
Flags: MW
HStem: 0 80<202 206 202 250 149 206 490 493> 533 73<339 343 339 339>
VStem: 9 666<606 606>
LayerCount: 2
Fore
SplineSet
360 411 m 1,0,-1
 343 533 l 1,1,-1
 339 533 l 1,2,3
 330 452 330 452 323 411 c 2,4,-1
 250 0 l 1,5,-1
 149 0 l 1,6,-1
 9 606 l 1,7,-1
 91 606 l 1,8,-1
 184 187 l 1,9,-1
 202 80 l 1,10,-1
 206 80 l 1,11,12
 212 134 212 134 221 187 c 2,13,-1
 291 606 l 1,14,-1
 399 606 l 1,15,-1
 474 187 l 1,16,-1
 490 80 l 1,17,-1
 493 80 l 1,18,19
 503 148 503 148 512 187 c 2,20,-1
 605 606 l 1,21,-1
 675 606 l 1,22,-1
 535 0 l 1,23,-1
 434 0 l 1,24,-1
 360 411 l 1,0,-1
EndSplineSet
Position2: "'cpsp' Capital Spacing lookup 0 subtable" dx=5 dy=0 dh=10 dv=0
EndChar

StartChar: Wacute
Encoding: 7810 7810 115
Width: 684
Flags: MW
HStem: 0 80<202 206 202 250 149 206 490 493> 533 73<339 343 339 339> 664 117<290 445 290 445>
VStem: 9 666<606 606>
LayerCount: 2
Fore
SplineSet
351 664 m 1,0,-1
 290 664 l 1,1,-1
 366 781 l 1,2,-1
 445 781 l 1,3,-1
 446 778 l 1,4,-1
 351 664 l 1,0,-1
434 0 m 1,5,-1
 360 411 l 1,6,-1
 343 533 l 1,7,-1
 339 533 l 1,8,9
 330 452 330 452 323 411 c 2,10,-1
 250 0 l 1,11,-1
 149 0 l 1,12,-1
 9 606 l 1,13,-1
 91 606 l 1,14,-1
 184 187 l 1,15,-1
 202 80 l 1,16,-1
 206 80 l 1,17,18
 212 134 212 134 221 187 c 2,19,-1
 291 606 l 1,20,-1
 399 606 l 1,21,-1
 474 187 l 1,22,-1
 490 80 l 1,23,-1
 493 80 l 1,24,25
 503 148 503 148 512 187 c 2,26,-1
 605 606 l 1,27,-1
 675 606 l 1,28,-1
 535 0 l 1,29,-1
 434 0 l 1,5,-1
EndSplineSet
Position2: "'cpsp' Capital Spacing lookup 0 subtable" dx=5 dy=0 dh=10 dv=0
EndChar

StartChar: Wcircumflex
Encoding: 372 372 116
Width: 684
Flags: MW
HStem: 0 80<202 206 202 250 149 206 490 493> 533 73<339 343 339 339> 660 120<232 377 232 377 309 382 309 453>
VStem: 9 666<606 606>
LayerCount: 2
Fore
SplineSet
343 730 m 1,0,-1
 303 660 l 1,1,-1
 232 660 l 1,2,-1
 309 780 l 1,3,-1
 377 780 l 1,4,-1
 453 660 l 1,5,-1
 382 660 l 1,6,-1
 343 730 l 1,0,-1
360 411 m 1,7,-1
 343 533 l 1,8,-1
 339 533 l 1,9,10
 330 452 330 452 323 411 c 2,11,-1
 250 0 l 1,12,-1
 149 0 l 1,13,-1
 9 606 l 1,14,-1
 91 606 l 1,15,-1
 184 187 l 1,16,-1
 202 80 l 1,17,-1
 206 80 l 1,18,19
 212 134 212 134 221 187 c 2,20,-1
 291 606 l 1,21,-1
 399 606 l 1,22,-1
 474 187 l 1,23,-1
 490 80 l 1,24,-1
 493 80 l 1,25,26
 503 148 503 148 512 187 c 2,27,-1
 605 606 l 1,28,-1
 675 606 l 1,29,-1
 535 0 l 1,30,-1
 434 0 l 1,31,-1
 360 411 l 1,7,-1
EndSplineSet
Position2: "'cpsp' Capital Spacing lookup 0 subtable" dx=5 dy=0 dh=10 dv=0
EndChar

StartChar: Wdieresis
Encoding: 7812 7812 117
Width: 684
Flags: MW
HStem: 0 80<202 206 202 250 149 206 490 493> 533 73<339 343 339 339> 697 84<238 314 238 314 370 447 238 370>
VStem: 238 76<697 781 697 781> 370 77<697 781 697 781>
LayerCount: 2
Fore
SplineSet
238 697 m 1,0,-1
 238 781 l 1,1,-1
 314 781 l 1,2,-1
 314 697 l 1,3,-1
 238 697 l 1,0,-1
370 697 m 1,4,-1
 370 781 l 1,5,-1
 447 781 l 1,6,-1
 447 697 l 1,7,-1
 370 697 l 1,4,-1
434 0 m 1,8,-1
 360 411 l 1,9,-1
 343 533 l 1,10,-1
 339 533 l 1,11,12
 330 452 330 452 323 411 c 2,13,-1
 250 0 l 1,14,-1
 149 0 l 1,15,-1
 9 606 l 1,16,-1
 91 606 l 1,17,-1
 184 187 l 1,18,-1
 202 80 l 1,19,-1
 206 80 l 1,20,21
 212 134 212 134 221 187 c 2,22,-1
 291 606 l 1,23,-1
 399 606 l 1,24,-1
 474 187 l 1,25,-1
 490 80 l 1,26,-1
 493 80 l 1,27,28
 503 148 503 148 512 187 c 2,29,-1
 605 606 l 1,30,-1
 675 606 l 1,31,-1
 535 0 l 1,32,-1
 434 0 l 1,8,-1
EndSplineSet
Position2: "'cpsp' Capital Spacing lookup 0 subtable" dx=5 dy=0 dh=10 dv=0
EndChar

StartChar: Wgrave
Encoding: 7808 7808 118
Width: 684
Flags: MW
HStem: 0 80<202 206 202 250 149 206 490 493> 533 73<339 343 339 339> 664 117<240 334 240 395>
VStem: 9 666<606 606>
LayerCount: 2
Fore
SplineSet
334 664 m 1,0,-1
 239 778 l 1,1,-1
 240 781 l 1,2,-1
 319 781 l 1,3,-1
 395 664 l 1,4,-1
 334 664 l 1,0,-1
434 0 m 1,5,-1
 360 411 l 1,6,-1
 343 533 l 1,7,-1
 339 533 l 1,8,9
 330 452 330 452 323 411 c 2,10,-1
 250 0 l 1,11,-1
 149 0 l 1,12,-1
 9 606 l 1,13,-1
 91 606 l 1,14,-1
 184 187 l 1,15,-1
 202 80 l 1,16,-1
 206 80 l 1,17,18
 212 134 212 134 221 187 c 2,19,-1
 291 606 l 1,20,-1
 399 606 l 1,21,-1
 474 187 l 1,22,-1
 490 80 l 1,23,-1
 493 80 l 1,24,25
 503 148 503 148 512 187 c 2,26,-1
 605 606 l 1,27,-1
 675 606 l 1,28,-1
 535 0 l 1,29,-1
 434 0 l 1,5,-1
EndSplineSet
Position2: "'cpsp' Capital Spacing lookup 0 subtable" dx=5 dy=0 dh=10 dv=0
EndChar

StartChar: X
Encoding: 88 88 119
Width: 484
Flags: MW
HStem: 586 20G<21 113 113 113 377 461 461 461>
VStem: 4 476<0 0>
LayerCount: 2
Fore
SplineSet
388 0 m 1,0,-1
 239 248 l 1,1,-1
 87 0 l 1,2,-1
 4 0 l 1,3,-1
 197 315 l 1,4,-1
 21 606 l 1,5,-1
 113 606 l 1,6,-1
 244 390 l 1,7,-1
 377 606 l 1,8,-1
 461 606 l 1,9,-1
 285 322 l 1,10,-1
 480 0 l 1,11,-1
 388 0 l 1,0,-1
EndSplineSet
Position2: "'cpsp' Capital Spacing lookup 0 subtable" dx=5 dy=0 dh=10 dv=0
EndChar

StartChar: Y
Encoding: 89 89 120
Width: 484
Flags: MW
HStem: 586 20G<7 93 93 93 401 476 476 476>
VStem: 203 78<0 251 0 251>
LayerCount: 2
Fore
SplineSet
203 0 m 1,0,-1
 203 251 l 1,1,-1
 7 606 l 1,2,-1
 93 606 l 1,3,-1
 247 325 l 1,4,-1
 250 325 l 1,5,-1
 401 606 l 1,6,-1
 476 606 l 1,7,-1
 281 251 l 1,8,-1
 281 0 l 1,9,-1
 203 0 l 1,0,-1
EndSplineSet
Position2: "'cpsp' Capital Spacing lookup 0 subtable" dx=5 dy=0 dh=10 dv=0
EndChar

StartChar: Yacute
Encoding: 221 221 121
Width: 484
Flags: MW
HStem: 586 20G<7 93 93 93 401 476 476 476> 664 117<189 345 189 345>
VStem: 203 78<0 251>
LayerCount: 2
Fore
SplineSet
250 664 m 1,0,-1
 189 664 l 1,1,-1
 265 781 l 1,2,-1
 345 781 l 1,3,-1
 346 778 l 1,4,-1
 250 664 l 1,0,-1
281 0 m 1,5,-1
 203 0 l 1,6,-1
 203 251 l 1,7,-1
 7 606 l 1,8,-1
 93 606 l 1,9,-1
 247 325 l 1,10,-1
 250 325 l 1,11,-1
 401 606 l 1,12,-1
 476 606 l 1,13,-1
 281 251 l 1,14,-1
 281 0 l 1,5,-1
EndSplineSet
Position2: "'cpsp' Capital Spacing lookup 0 subtable" dx=5 dy=0 dh=10 dv=0
EndChar

StartChar: Ycircumflex
Encoding: 374 374 122
Width: 484
Flags: MW
HStem: 586 20G<7 93 93 93 401 476 476 476> 660 120<132 277 132 277 208 281 208 352>
VStem: 203 78<0 251 0 251>
LayerCount: 2
Fore
SplineSet
242 730 m 1,0,-1
 202 660 l 1,1,-1
 132 660 l 1,2,-1
 208 780 l 1,3,-1
 277 780 l 1,4,-1
 352 660 l 1,5,-1
 281 660 l 1,6,-1
 242 730 l 1,0,-1
203 0 m 1,7,-1
 203 251 l 1,8,-1
 7 606 l 1,9,-1
 93 606 l 1,10,-1
 247 325 l 1,11,-1
 250 325 l 1,12,-1
 401 606 l 1,13,-1
 476 606 l 1,14,-1
 281 251 l 1,15,-1
 281 0 l 1,16,-1
 203 0 l 1,7,-1
EndSplineSet
Position2: "'cpsp' Capital Spacing lookup 0 subtable" dx=5 dy=0 dh=10 dv=0
EndChar

StartChar: Ydieresis
Encoding: 376 376 123
Width: 484
Flags: MW
HStem: 586 20G<7 93 93 93 401 476 476 476> 697 84<137 214 137 214 270 347 137 270>
VStem: 137 77<697 781 697 781> 203 78<0 251> 270 77<697 781 697 781>
LayerCount: 2
Fore
SplineSet
137 697 m 1,0,-1
 137 781 l 1,1,-1
 214 781 l 1,2,-1
 214 697 l 1,3,-1
 137 697 l 1,0,-1
270 697 m 1,4,-1
 270 781 l 1,5,-1
 347 781 l 1,6,-1
 347 697 l 1,7,-1
 270 697 l 1,4,-1
281 0 m 1,8,-1
 203 0 l 1,9,-1
 203 251 l 1,10,-1
 7 606 l 1,11,-1
 93 606 l 1,12,-1
 247 325 l 1,13,-1
 250 325 l 1,14,-1
 401 606 l 1,15,-1
 476 606 l 1,16,-1
 281 251 l 1,17,-1
 281 0 l 1,8,-1
EndSplineSet
Position2: "'cpsp' Capital Spacing lookup 0 subtable" dx=5 dy=0 dh=10 dv=0
EndChar

StartChar: Ygrave
Encoding: 7922 7922 124
Width: 484
Flags: MW
HStem: 586 20G<7 93 93 93 401 476 476 476> 664 117<139 233 139 294>
VStem: 203 78<0 251>
LayerCount: 2
Fore
SplineSet
233 664 m 1,0,-1
 138 778 l 1,1,-1
 139 781 l 1,2,-1
 218 781 l 1,3,-1
 294 664 l 1,4,-1
 233 664 l 1,0,-1
281 0 m 1,5,-1
 203 0 l 1,6,-1
 203 251 l 1,7,-1
 7 606 l 1,8,-1
 93 606 l 1,9,-1
 247 325 l 1,10,-1
 250 325 l 1,11,-1
 401 606 l 1,12,-1
 476 606 l 1,13,-1
 281 251 l 1,14,-1
 281 0 l 1,5,-1
EndSplineSet
Position2: "'cpsp' Capital Spacing lookup 0 subtable" dx=5 dy=0 dh=10 dv=0
EndChar

StartChar: Z
Encoding: 90 90 125
Width: 443
Flags: MW
HStem: 0 71<128 423 128 423> 536 70<36 306 36 417>
VStem: 18 405<0 34 34 34>
LayerCount: 2
Fore
SplineSet
128 71 m 1,0,-1
 423 71 l 1,1,-1
 423 0 l 1,2,-1
 18 0 l 1,3,-1
 18 34 l 1,4,-1
 306 536 l 1,5,-1
 36 536 l 1,6,-1
 36 606 l 1,7,-1
 417 606 l 1,8,-1
 417 573 l 1,9,-1
 128 71 l 1,0,-1
EndSplineSet
Position2: "'cpsp' Capital Spacing lookup 0 subtable" dx=5 dy=0 dh=10 dv=0
EndChar

StartChar: Zacute
Encoding: 377 377 126
Width: 443
Flags: MW
HStem: 0 71<128 423 128 423> 536 70<36 306 36 417> 664 117<169 324 169 324>
VStem: 18 405<0 34 34 34>
LayerCount: 2
Fore
SplineSet
230 664 m 1,0,-1
 169 664 l 1,1,-1
 245 781 l 1,2,-1
 324 781 l 1,3,-1
 325 778 l 1,4,-1
 230 664 l 1,0,-1
128 71 m 1,5,-1
 423 71 l 1,6,-1
 423 0 l 1,7,-1
 18 0 l 1,8,-1
 18 34 l 1,9,-1
 306 536 l 1,10,-1
 36 536 l 1,11,-1
 36 606 l 1,12,-1
 417 606 l 1,13,-1
 417 573 l 1,14,-1
 128 71 l 1,5,-1
EndSplineSet
Position2: "'cpsp' Capital Spacing lookup 0 subtable" dx=5 dy=0 dh=10 dv=0
EndChar

StartChar: Zcaron
Encoding: 381 381 127
Width: 443
Flags: MW
HStem: 0 71<128 423 128 423> 536 70<36 306 36 417> 661 120<111 187 111 255>
VStem: 18 405<0 34 34 34>
LayerCount: 2
Fore
SplineSet
187 661 m 1,0,-1
 111 781 l 1,1,-1
 182 781 l 1,2,-1
 221 711 l 1,3,-1
 261 781 l 1,4,-1
 331 781 l 1,5,-1
 255 661 l 1,6,-1
 187 661 l 1,0,-1
128 71 m 1,7,-1
 423 71 l 1,8,-1
 423 0 l 1,9,-1
 18 0 l 1,10,-1
 18 34 l 1,11,-1
 306 536 l 1,12,-1
 36 536 l 1,13,-1
 36 606 l 1,14,-1
 417 606 l 1,15,-1
 417 573 l 1,16,-1
 128 71 l 1,7,-1
EndSplineSet
Position2: "'cpsp' Capital Spacing lookup 0 subtable" dx=5 dy=0 dh=10 dv=0
EndChar

StartChar: Zdotaccent
Encoding: 379 379 128
Width: 443
Flags: MW
HStem: 0 71<128 423 128 423> 536 70<36 306 36 417> 697 84<183 260 183 260>
VStem: 183 77<697 781 697 781>
LayerCount: 2
Fore
SplineSet
183 697 m 1,0,-1
 183 781 l 1,1,-1
 260 781 l 1,2,-1
 260 697 l 1,3,-1
 183 697 l 1,0,-1
128 71 m 1,4,-1
 423 71 l 1,5,-1
 423 0 l 1,6,-1
 18 0 l 1,7,-1
 18 34 l 1,8,-1
 306 536 l 1,9,-1
 36 536 l 1,10,-1
 36 606 l 1,11,-1
 417 606 l 1,12,-1
 417 573 l 1,13,-1
 128 71 l 1,4,-1
EndSplineSet
Position2: "'cpsp' Capital Spacing lookup 0 subtable" dx=5 dy=0 dh=10 dv=0
EndChar

StartChar: a
Encoding: 97 97 129
Width: 403
Flags: MW
HStem: -11 65<148.5 176.5> -7 61 211 65<218 265> 411 65<164.5 221.5>
VStem: 30 76<98.5 161 98.5 184> 48 72<327 389> 265 73<50 85 169 211 211 211 276 336 336 346>
LayerCount: 2
Fore
SplineSet
49 327 m 1,0,1
 48 332 48 332 48 347 c 0,2,3
 48 408 48 408 89 442 c 128,-1,4
 130 476 130 476 198.5 476 c 0,5,6
 267 476 267 476 302.5 442 c 128,-1,7
 338 408 338 408 338 346 c 2,8,-1
 338 85 l 2,9,10
 338 54 338 54 362 54 c 2,11,-1
 391 54 l 1,12,-1
 391 4 l 1,13,14
 373 -7 373 -7 344 -7 c 0,15,16
 315 -7 315 -7 295.5 8.5 c 128,-1,17
 276 24 276 24 270 50 c 1,18,-1
 265 50 l 1,19,20
 226 -11 226 -11 152 -11 c 0,21,22
 105 -11 105 -11 67.5 17.5 c 128,-1,23
 30 46 30 46 30 120 c 0,24,25
 30 209 30 209 90.5 242.5 c 128,-1,26
 151 276 151 276 265 276 c 1,27,-1
 265 336 l 2,28,29
 265 372 265 372 249 391.5 c 128,-1,30
 233 411 233 411 193.5 411 c 0,31,32
 154 411 154 411 137 389.5 c 128,-1,33
 120 368 120 368 120 338 c 2,34,-1
 120 327 l 1,35,-1
 49 327 l 1,0,1
265 211 m 1,36,37
 186 211 186 211 146 193 c 128,-1,38
 106 175 106 175 106 131 c 0,39,40
 106 87 106 87 121.5 70.5 c 128,-1,41
 137 54 137 54 172 54 c 0,42,43
 207 54 207 54 236 84.5 c 128,-1,44
 265 115 265 115 265 169 c 2,45,-1
 265 211 l 1,36,37
EndSplineSet
Substitution2: "Single Substitution lookup 14 subtable" ordfeminine
Substitution2: "'aalt' Access All Alternates lookup 0 subtable" ordfeminine
EndChar

StartChar: aacute
Encoding: 225 225 130
Width: 403
Flags: MW
HStem: -11 65<148.5 176.5> -7 61 211 65<218 265> 411 65<164.5 221.5> 522 117<145 301 145 301>
VStem: 30 76<98.5 161 98.5 184> 48 72<327 389> 265 73<50 85 169 211 211 211 276 336 336 346>
LayerCount: 2
Fore
SplineSet
206 522 m 1,0,-1
 145 522 l 1,1,-1
 221 639 l 1,2,-1
 301 639 l 1,3,-1
 301 636 l 1,4,-1
 206 522 l 1,0,-1
49 327 m 1,5,6
 48 332 48 332 48 347 c 0,7,8
 48 408 48 408 89 442 c 128,-1,9
 130 476 130 476 198.5 476 c 0,10,11
 267 476 267 476 302.5 442 c 128,-1,12
 338 408 338 408 338 346 c 2,13,-1
 338 85 l 2,14,15
 338 54 338 54 362 54 c 2,16,-1
 391 54 l 1,17,-1
 391 4 l 1,18,19
 373 -7 373 -7 344 -7 c 0,20,21
 315 -7 315 -7 295.5 8.5 c 128,-1,22
 276 24 276 24 270 50 c 1,23,-1
 265 50 l 1,24,25
 226 -11 226 -11 152 -11 c 0,26,27
 105 -11 105 -11 67.5 17.5 c 128,-1,28
 30 46 30 46 30 120 c 0,29,30
 30 209 30 209 90.5 242.5 c 128,-1,31
 151 276 151 276 265 276 c 1,32,-1
 265 336 l 2,33,34
 265 372 265 372 249 391.5 c 128,-1,35
 233 411 233 411 193.5 411 c 0,36,37
 154 411 154 411 137 389.5 c 128,-1,38
 120 368 120 368 120 338 c 2,39,-1
 120 327 l 1,40,-1
 49 327 l 1,5,6
265 211 m 1,41,42
 186 211 186 211 146 193 c 128,-1,43
 106 175 106 175 106 131 c 0,44,45
 106 87 106 87 121.5 70.5 c 128,-1,46
 137 54 137 54 172 54 c 0,47,48
 207 54 207 54 236 84.5 c 128,-1,49
 265 115 265 115 265 169 c 2,50,-1
 265 211 l 1,41,42
EndSplineSet
EndChar

StartChar: abreve
Encoding: 259 259 131
Width: 403
Flags: MW
HStem: -11 65<148.5 176.5> -7 61 211 65<218 265> 411 65<164.5 221.5> 553 57<186.5 217 186.5 236> 553 86<92 236>
VStem: 30 76<98.5 161 98.5 184> 48 72<327 389> 265 73<50 85 169 211 211 211 276 336 336 346>
LayerCount: 2
Fore
SplineSet
311 639 m 1,0,1
 311 607 311 607 280.5 580 c 128,-1,2
 250 553 250 553 202 553 c 128,-1,3
 154 553 154 553 123 580 c 128,-1,4
 92 607 92 607 92 639 c 1,5,-1
 149 639 l 1,6,7
 152 629 152 629 166.5 619.5 c 128,-1,8
 181 610 181 610 202 610 c 128,-1,9
 223 610 223 610 238 619.5 c 128,-1,10
 253 629 253 629 255 639 c 1,11,-1
 311 639 l 1,0,1
49 327 m 1,12,13
 48 332 48 332 48 347 c 0,14,15
 48 408 48 408 89 442 c 128,-1,16
 130 476 130 476 198.5 476 c 0,17,18
 267 476 267 476 302.5 442 c 128,-1,19
 338 408 338 408 338 346 c 2,20,-1
 338 85 l 2,21,22
 338 54 338 54 362 54 c 2,23,-1
 391 54 l 1,24,-1
 391 4 l 1,25,26
 373 -7 373 -7 344 -7 c 0,27,28
 315 -7 315 -7 295.5 8.5 c 128,-1,29
 276 24 276 24 270 50 c 1,30,-1
 265 50 l 1,31,32
 226 -11 226 -11 152 -11 c 0,33,34
 105 -11 105 -11 67.5 17.5 c 128,-1,35
 30 46 30 46 30 120 c 0,36,37
 30 209 30 209 90.5 242.5 c 128,-1,38
 151 276 151 276 265 276 c 1,39,-1
 265 336 l 2,40,41
 265 372 265 372 249 391.5 c 128,-1,42
 233 411 233 411 193.5 411 c 0,43,44
 154 411 154 411 137 389.5 c 128,-1,45
 120 368 120 368 120 338 c 2,46,-1
 120 327 l 1,47,-1
 49 327 l 1,12,13
265 211 m 1,48,49
 186 211 186 211 146 193 c 128,-1,50
 106 175 106 175 106 131 c 0,51,52
 106 87 106 87 121.5 70.5 c 128,-1,53
 137 54 137 54 172 54 c 0,54,55
 207 54 207 54 236 84.5 c 128,-1,56
 265 115 265 115 265 169 c 2,57,-1
 265 211 l 1,48,49
EndSplineSet
EndChar

StartChar: acircumflex
Encoding: 226 226 132
Width: 403
Flags: MW
HStem: -11 65<148.5 176.5> -7 61 211 65<218 265> 411 65<164.5 221.5> 519 119<92 237 92 237 167 241 167 312>
VStem: 30 76<98.5 161 98.5 184> 48 72<327 389> 265 73<50 85 169 211 211 211 276 336 336 346>
LayerCount: 2
Fore
SplineSet
202 589 m 1,0,-1
 163 519 l 1,1,-1
 92 519 l 1,2,-1
 167 638 l 1,3,-1
 237 638 l 1,4,-1
 312 519 l 1,5,-1
 241 519 l 1,6,-1
 202 589 l 1,0,-1
49 327 m 1,7,8
 48 332 48 332 48 347 c 0,9,10
 48 408 48 408 89 442 c 128,-1,11
 130 476 130 476 198.5 476 c 0,12,13
 267 476 267 476 302.5 442 c 128,-1,14
 338 408 338 408 338 346 c 2,15,-1
 338 85 l 2,16,17
 338 54 338 54 362 54 c 2,18,-1
 391 54 l 1,19,-1
 391 4 l 1,20,21
 373 -7 373 -7 344 -7 c 0,22,23
 315 -7 315 -7 295.5 8.5 c 128,-1,24
 276 24 276 24 270 50 c 1,25,-1
 265 50 l 1,26,27
 226 -11 226 -11 152 -11 c 0,28,29
 105 -11 105 -11 67.5 17.5 c 128,-1,30
 30 46 30 46 30 120 c 0,31,32
 30 209 30 209 90.5 242.5 c 128,-1,33
 151 276 151 276 265 276 c 1,34,-1
 265 336 l 2,35,36
 265 372 265 372 249 391.5 c 128,-1,37
 233 411 233 411 193.5 411 c 0,38,39
 154 411 154 411 137 389.5 c 128,-1,40
 120 368 120 368 120 338 c 2,41,-1
 120 327 l 1,42,-1
 49 327 l 1,7,8
265 211 m 1,43,44
 186 211 186 211 146 193 c 128,-1,45
 106 175 106 175 106 131 c 0,46,47
 106 87 106 87 121.5 70.5 c 128,-1,48
 137 54 137 54 172 54 c 0,49,50
 207 54 207 54 236 84.5 c 128,-1,51
 265 115 265 115 265 169 c 2,52,-1
 265 211 l 1,43,44
EndSplineSet
EndChar

StartChar: adieresis
Encoding: 228 228 133
Width: 403
Flags: MW
HStem: -11 65<148.5 176.5> -7 61 211 65<218 265> 411 65<164.5 221.5> 555 84<96 173 96 173 229 307 96 229>
VStem: 30 76<98.5 161 98.5 184> 48 72<327 389> 96 77<555 639 555 639> 229 78<555 639 555 639> 265 73<50 85 169 211 211 211 276 336 336 346>
LayerCount: 2
Fore
SplineSet
96 555 m 1,0,-1
 96 639 l 1,1,-1
 173 639 l 1,2,-1
 173 555 l 1,3,-1
 96 555 l 1,0,-1
229 555 m 1,4,-1
 229 639 l 1,5,-1
 307 639 l 1,6,-1
 307 555 l 1,7,-1
 229 555 l 1,4,-1
49 327 m 1,8,9
 48 332 48 332 48 347 c 0,10,11
 48 408 48 408 89 442 c 128,-1,12
 130 476 130 476 198.5 476 c 0,13,14
 267 476 267 476 302.5 442 c 128,-1,15
 338 408 338 408 338 346 c 2,16,-1
 338 85 l 2,17,18
 338 54 338 54 362 54 c 2,19,-1
 391 54 l 1,20,-1
 391 4 l 1,21,22
 373 -7 373 -7 344 -7 c 0,23,24
 315 -7 315 -7 295.5 8.5 c 128,-1,25
 276 24 276 24 270 50 c 1,26,-1
 265 50 l 1,27,28
 226 -11 226 -11 152 -11 c 0,29,30
 105 -11 105 -11 67.5 17.5 c 128,-1,31
 30 46 30 46 30 120 c 0,32,33
 30 209 30 209 90.5 242.5 c 128,-1,34
 151 276 151 276 265 276 c 1,35,-1
 265 336 l 2,36,37
 265 372 265 372 249 391.5 c 128,-1,38
 233 411 233 411 193.5 411 c 0,39,40
 154 411 154 411 137 389.5 c 128,-1,41
 120 368 120 368 120 338 c 2,42,-1
 120 327 l 1,43,-1
 49 327 l 1,8,9
265 211 m 1,44,45
 186 211 186 211 146 193 c 128,-1,46
 106 175 106 175 106 131 c 0,47,48
 106 87 106 87 121.5 70.5 c 128,-1,49
 137 54 137 54 172 54 c 0,50,51
 207 54 207 54 236 84.5 c 128,-1,52
 265 115 265 115 265 169 c 2,53,-1
 265 211 l 1,44,45
EndSplineSet
EndChar

StartChar: agrave
Encoding: 224 224 134
Width: 403
Flags: MW
HStem: -11 65<148.5 176.5> -7 61 211 65<218 265> 411 65<164.5 221.5> 522 117<95 189 95 250>
VStem: 30 76<98.5 161 98.5 184> 48 72<327 389> 265 73<50 85 169 211 211 211 276 336 336 346>
LayerCount: 2
Fore
SplineSet
189 522 m 1,0,-1
 94 636 l 1,1,-1
 95 639 l 1,2,-1
 174 639 l 1,3,-1
 250 522 l 1,4,-1
 189 522 l 1,0,-1
49 327 m 1,5,6
 48 332 48 332 48 347 c 0,7,8
 48 408 48 408 89 442 c 128,-1,9
 130 476 130 476 198.5 476 c 0,10,11
 267 476 267 476 302.5 442 c 128,-1,12
 338 408 338 408 338 346 c 2,13,-1
 338 85 l 2,14,15
 338 54 338 54 362 54 c 2,16,-1
 391 54 l 1,17,-1
 391 4 l 1,18,19
 373 -7 373 -7 344 -7 c 0,20,21
 315 -7 315 -7 295.5 8.5 c 128,-1,22
 276 24 276 24 270 50 c 1,23,-1
 265 50 l 1,24,25
 226 -11 226 -11 152 -11 c 0,26,27
 105 -11 105 -11 67.5 17.5 c 128,-1,28
 30 46 30 46 30 120 c 0,29,30
 30 209 30 209 90.5 242.5 c 128,-1,31
 151 276 151 276 265 276 c 1,32,-1
 265 336 l 2,33,34
 265 372 265 372 249 391.5 c 128,-1,35
 233 411 233 411 193.5 411 c 0,36,37
 154 411 154 411 137 389.5 c 128,-1,38
 120 368 120 368 120 338 c 2,39,-1
 120 327 l 1,40,-1
 49 327 l 1,5,6
265 211 m 1,41,42
 186 211 186 211 146 193 c 128,-1,43
 106 175 106 175 106 131 c 0,44,45
 106 87 106 87 121.5 70.5 c 128,-1,46
 137 54 137 54 172 54 c 0,47,48
 207 54 207 54 236 84.5 c 128,-1,49
 265 115 265 115 265 169 c 2,50,-1
 265 211 l 1,41,42
EndSplineSet
EndChar

StartChar: amacron
Encoding: 257 257 135
Width: 403
Flags: MW
HStem: -11 65<148.5 176.5> -7 61 211 65<218 265> 411 65<164.5 221.5> 530 63<91 313 91 313>
VStem: 30 76<98.5 161 98.5 184> 48 72<327 389> 91 222<530 593 530 593> 265 73<50 85 169 211 211 211 276 336 336 346>
LayerCount: 2
Fore
SplineSet
91 593 m 1,0,-1
 313 593 l 1,1,-1
 313 530 l 1,2,-1
 91 530 l 1,3,-1
 91 593 l 1,0,-1
49 327 m 1,4,5
 48 332 48 332 48 347 c 0,6,7
 48 408 48 408 89 442 c 128,-1,8
 130 476 130 476 198.5 476 c 0,9,10
 267 476 267 476 302.5 442 c 128,-1,11
 338 408 338 408 338 346 c 2,12,-1
 338 85 l 2,13,14
 338 54 338 54 362 54 c 2,15,-1
 391 54 l 1,16,-1
 391 4 l 1,17,18
 373 -7 373 -7 344 -7 c 0,19,20
 315 -7 315 -7 295.5 8.5 c 128,-1,21
 276 24 276 24 270 50 c 1,22,-1
 265 50 l 1,23,24
 226 -11 226 -11 152 -11 c 0,25,26
 105 -11 105 -11 67.5 17.5 c 128,-1,27
 30 46 30 46 30 120 c 0,28,29
 30 209 30 209 90.5 242.5 c 128,-1,30
 151 276 151 276 265 276 c 1,31,-1
 265 336 l 2,32,33
 265 372 265 372 249 391.5 c 128,-1,34
 233 411 233 411 193.5 411 c 0,35,36
 154 411 154 411 137 389.5 c 128,-1,37
 120 368 120 368 120 338 c 2,38,-1
 120 327 l 1,39,-1
 49 327 l 1,4,5
265 211 m 1,40,41
 186 211 186 211 146 193 c 128,-1,42
 106 175 106 175 106 131 c 0,43,44
 106 87 106 87 121.5 70.5 c 128,-1,45
 137 54 137 54 172 54 c 0,46,47
 207 54 207 54 236 84.5 c 128,-1,48
 265 115 265 115 265 169 c 2,49,-1
 265 211 l 1,40,41
EndSplineSet
EndChar

StartChar: aogonek
Encoding: 261 261 136
Width: 403
Flags: MW
HStem: -161 58<363 436> -11 65<148.5 176.5> 211 65<218 265> 411 65<164.5 221.5>
VStem: 30 76<98.5 161 98.5 184> 48 72<327 389> 265 73<50 85 169 211 211 211 276 336 336 346> 299 69<-67.5 -64>
LayerCount: 2
Fore
SplineSet
436 -149 m 1,0,1
 403 -161 403 -161 375.5 -161 c 0,2,3
 348 -161 348 -161 323.5 -142 c 128,-1,4
 299 -123 299 -123 299 -81.5 c 0,5,6
 299 -40 299 -40 325 -5 c 1,7,8
 281 4 281 4 270 50 c 1,9,-1
 265 50 l 1,10,11
 226 -11 226 -11 152 -11 c 0,12,13
 105 -11 105 -11 67.5 17.5 c 128,-1,14
 30 46 30 46 30 120 c 0,15,16
 30 209 30 209 90.5 242.5 c 128,-1,17
 151 276 151 276 265 276 c 1,18,-1
 265 336 l 2,19,20
 265 372 265 372 249 391.5 c 128,-1,21
 233 411 233 411 193.5 411 c 0,22,23
 154 411 154 411 137 389.5 c 128,-1,24
 120 368 120 368 120 338 c 2,25,-1
 120 327 l 1,26,-1
 49 327 l 1,27,28
 48 332 48 332 48 347 c 0,29,30
 48 408 48 408 89 442 c 128,-1,31
 130 476 130 476 198.5 476 c 0,32,33
 267 476 267 476 302.5 442 c 128,-1,34
 338 408 338 408 338 346 c 2,35,-1
 338 85 l 2,36,37
 338 54 338 54 362 54 c 2,38,-1
 391 54 l 1,39,-1
 391 4 l 1,40,41
 368 -25 368 -25 368 -55 c 0,42,43
 368 -103 368 -103 408 -103 c 2,44,-1
 436 -103 l 1,45,-1
 436 -149 l 1,0,1
265 211 m 1,46,47
 186 211 186 211 146 193 c 128,-1,48
 106 175 106 175 106 131 c 0,49,50
 106 87 106 87 121.5 70.5 c 128,-1,51
 137 54 137 54 172 54 c 0,52,53
 207 54 207 54 236 84.5 c 128,-1,54
 265 115 265 115 265 169 c 2,55,-1
 265 211 l 1,46,47
EndSplineSet
EndChar

StartChar: aring
Encoding: 229 229 137
Width: 403
Flags: MW
HStem: -11 65<148.5 176.5> -7 61 211 65<218 265> 411 65<164.5 221.5> 497 40<189.5 213.5 189.5 225> 627 40<189.5 213.5>
VStem: 30 76<98.5 161 98.5 184> 48 72<327 389> 117 39<570.5 595 570.5 606> 247 39<570.5 595> 265 73<50 85 169 211 211 211 276 336 336 346>
LayerCount: 2
Fore
SplineSet
202 667 m 128,-1,1
 237 667 237 667 261.5 642 c 128,-1,2
 286 617 286 617 286 582 c 128,-1,3
 286 547 286 547 261.5 522 c 128,-1,4
 237 497 237 497 202 497 c 128,-1,5
 167 497 167 497 142 522 c 128,-1,6
 117 547 117 547 117 582.5 c 128,-1,7
 117 618 117 618 142 642.5 c 128,-1,0
 167 667 167 667 202 667 c 128,-1,1
233.5 614 m 128,-1,9
 220 627 220 627 201.5 627 c 128,-1,10
 183 627 183 627 169.5 614 c 128,-1,11
 156 601 156 601 156 582.5 c 128,-1,12
 156 564 156 564 169.5 550.5 c 128,-1,13
 183 537 183 537 201.5 537 c 128,-1,14
 220 537 220 537 233.5 550.5 c 128,-1,15
 247 564 247 564 247 582.5 c 128,-1,8
 247 601 247 601 233.5 614 c 128,-1,9
49 327 m 1,16,17
 48 332 48 332 48 347 c 0,18,19
 48 408 48 408 89 442 c 128,-1,20
 130 476 130 476 198.5 476 c 128,-1,21
 267 476 267 476 302.5 442 c 128,-1,22
 338 408 338 408 338 346 c 2,23,-1
 338 85 l 2,24,25
 338 54 338 54 362 54 c 2,26,-1
 391 54 l 1,27,-1
 391 4 l 1,28,29
 373 -7 373 -7 344 -7 c 128,-1,30
 315 -7 315 -7 295.5 8.5 c 128,-1,31
 276 24 276 24 270 50 c 1,32,-1
 265 50 l 1,33,34
 226 -11 226 -11 152 -11 c 0,35,36
 105 -11 105 -11 67.5 17.5 c 128,-1,37
 30 46 30 46 30 120 c 0,38,39
 30 209 30 209 90.5 242.5 c 128,-1,40
 151 276 151 276 265 276 c 1,41,-1
 265 336 l 2,42,43
 265 372 265 372 249 391.5 c 128,-1,44
 233 411 233 411 193.5 411 c 128,-1,45
 154 411 154 411 137 389.5 c 128,-1,46
 120 368 120 368 120 338 c 2,47,-1
 120 327 l 1,48,-1
 49 327 l 1,16,17
265 211 m 1,49,50
 186 211 186 211 146 193 c 128,-1,51
 106 175 106 175 106 131 c 128,-1,52
 106 87 106 87 121.5 70.5 c 128,-1,53
 137 54 137 54 172 54 c 128,-1,54
 207 54 207 54 236 84.5 c 128,-1,55
 265 115 265 115 265 169 c 2,56,-1
 265 211 l 1,49,50
EndSplineSet
EndChar

StartChar: aringacute
Encoding: 507 507 138
Width: 403
Flags: MW
HStem: -11 65<148.5 176.5> -7 61 211 65<218 265> 411 65<164.5 221.5> 499 38<190 213.5 190 225.5> 620 39<190 213.5> 679 102<173 319 173 319>
VStem: 30 76<98.5 161 98.5 184> 48 72<327 389> 117 39<567 591 567 601.5> 247 39<567 591> 265 73<50 85 169 211 211 211 276 336 336 346>
LayerCount: 2
Fore
SplineSet
234 679 m 1,0,-1
 173 679 l 1,1,-1
 240 781 l 1,2,-1
 319 781 l 1,3,-1
 320 778 l 1,4,-1
 234 679 l 1,0,-1
142 636 m 128,-1,6
 167 659 167 659 202.5 659 c 128,-1,7
 238 659 238 659 262 635.5 c 128,-1,8
 286 612 286 612 286 578.5 c 128,-1,9
 286 545 286 545 261.5 522 c 128,-1,10
 237 499 237 499 202 499 c 128,-1,11
 167 499 167 499 142 522 c 128,-1,12
 117 545 117 545 117 579 c 128,-1,5
 117 613 117 613 142 636 c 128,-1,6
233.5 608 m 128,-1,14
 220 620 220 620 201.5 620 c 128,-1,15
 183 620 183 620 169.5 608.5 c 128,-1,16
 156 597 156 597 156 579 c 128,-1,17
 156 561 156 561 170 549 c 128,-1,18
 184 537 184 537 202 537 c 128,-1,19
 220 537 220 537 233.5 549 c 128,-1,20
 247 561 247 561 247 578.5 c 128,-1,13
 247 596 247 596 233.5 608 c 128,-1,14
49 327 m 1,21,22
 48 332 48 332 48 347 c 0,23,24
 48 408 48 408 89 442 c 128,-1,25
 130 476 130 476 198.5 476 c 128,-1,26
 267 476 267 476 302.5 442 c 128,-1,27
 338 408 338 408 338 346 c 2,28,-1
 338 85 l 2,29,30
 338 54 338 54 362 54 c 2,31,-1
 391 54 l 1,32,-1
 391 4 l 1,33,34
 373 -7 373 -7 344 -7 c 128,-1,35
 315 -7 315 -7 295.5 8.5 c 128,-1,36
 276 24 276 24 270 50 c 1,37,-1
 265 50 l 1,38,39
 226 -11 226 -11 152 -11 c 0,40,41
 105 -11 105 -11 67.5 17.5 c 128,-1,42
 30 46 30 46 30 120 c 0,43,44
 30 209 30 209 90.5 242.5 c 128,-1,45
 151 276 151 276 265 276 c 1,46,-1
 265 336 l 2,47,48
 265 372 265 372 249 391.5 c 128,-1,49
 233 411 233 411 193.5 411 c 128,-1,50
 154 411 154 411 137 389.5 c 128,-1,51
 120 368 120 368 120 338 c 2,52,-1
 120 327 l 1,53,-1
 49 327 l 1,21,22
265 211 m 1,54,55
 186 211 186 211 146 193 c 128,-1,56
 106 175 106 175 106 131 c 128,-1,57
 106 87 106 87 121.5 70.5 c 128,-1,58
 137 54 137 54 172 54 c 128,-1,59
 207 54 207 54 236 84.5 c 128,-1,60
 265 115 265 115 265 169 c 2,61,-1
 265 211 l 1,54,55
EndSplineSet
EndChar

StartChar: atilde
Encoding: 227 227 139
Width: 403
Flags: MW
HStem: -11 65<148.5 176.5> -7 61 211 65<218 265> 411 65<164.5 221.5> 547 65<236 257 232 282> 575 64<146 167 121.5 171>
VStem: 30 76<98.5 161 98.5 184> 48 72<327 389> 265 73<50 85 169 211 211 211 276 336 336 346>
LayerCount: 2
Fore
SplineSet
331 639 m 1,0,1
 331 604 331 604 311.5 575.5 c 128,-1,2
 292 547 292 547 255 547 c 0,3,4
 236 547 236 547 203 561 c 128,-1,5
 170 575 170 575 154 575 c 0,6,7
 127 575 127 575 124 547 c 1,8,-1
 72 547 l 1,9,10
 72 582 72 582 91.5 610.5 c 128,-1,11
 111 639 111 639 148 639 c 0,12,13
 168 639 168 639 200 625.5 c 128,-1,14
 232 612 232 612 249 612 c 0,15,16
 276 612 276 612 279 639 c 1,17,-1
 331 639 l 1,0,1
49 327 m 1,18,19
 48 332 48 332 48 347 c 0,20,21
 48 408 48 408 89 442 c 128,-1,22
 130 476 130 476 198.5 476 c 0,23,24
 267 476 267 476 302.5 442 c 128,-1,25
 338 408 338 408 338 346 c 2,26,-1
 338 85 l 2,27,28
 338 54 338 54 362 54 c 2,29,-1
 391 54 l 1,30,-1
 391 4 l 1,31,32
 373 -7 373 -7 344 -7 c 0,33,34
 315 -7 315 -7 295.5 8.5 c 128,-1,35
 276 24 276 24 270 50 c 1,36,-1
 265 50 l 1,37,38
 226 -11 226 -11 152 -11 c 0,39,40
 105 -11 105 -11 67.5 17.5 c 128,-1,41
 30 46 30 46 30 120 c 0,42,43
 30 209 30 209 90.5 242.5 c 128,-1,44
 151 276 151 276 265 276 c 1,45,-1
 265 336 l 2,46,47
 265 372 265 372 249 391.5 c 128,-1,48
 233 411 233 411 193.5 411 c 0,49,50
 154 411 154 411 137 389.5 c 128,-1,51
 120 368 120 368 120 338 c 2,52,-1
 120 327 l 1,53,-1
 49 327 l 1,18,19
265 211 m 1,54,55
 186 211 186 211 146 193 c 128,-1,56
 106 175 106 175 106 131 c 0,57,58
 106 87 106 87 121.5 70.5 c 128,-1,59
 137 54 137 54 172 54 c 0,60,61
 207 54 207 54 236 84.5 c 128,-1,62
 265 115 265 115 265 169 c 2,63,-1
 265 211 l 1,54,55
EndSplineSet
EndChar

StartChar: ae
Encoding: 230 230 140
Width: 644
Flags: MW
HStem: -11 65<153.5 197 153.5 198 414 471> 211 65<223.5 271 347 522> 411 65<169.5 226.5 419 471>
VStem: 35 76<98.5 161 98.5 184> 53 73<327 389> 271 76<162 211 157 211 157 336> 522 76
LayerCount: 2
Fore
SplineSet
54 327 m 1,0,1
 53 332 53 332 53 347 c 0,2,3
 53 408 53 408 94 442 c 128,-1,4
 135 476 135 476 202 476 c 0,5,6
 288 476 288 476 322 423 c 1,7,8
 365 476 365 476 444 476 c 0,9,10
 523 476 523 476 560.5 424 c 128,-1,11
 598 372 598 372 598 257 c 2,12,-1
 598 211 l 1,13,-1
 347 211 l 1,14,15
 347 130 347 130 371.5 92 c 128,-1,16
 396 54 396 54 448 54 c 0,17,18
 483 54 483 54 505 82.5 c 128,-1,19
 527 111 527 111 527 158 c 1,20,-1
 598 158 l 1,21,22
 598 81 598 81 556.5 35 c 128,-1,23
 515 -11 515 -11 446 -11 c 0,24,25
 347 -11 347 -11 305 60 c 1,26,27
 251 -11 251 -11 171 -11 c 0,28,29
 35 -11 35 -11 35 120 c 0,30,31
 35 209 35 209 96 242.5 c 128,-1,32
 157 276 157 276 271 276 c 1,33,-1
 271 336 l 2,34,35
 271 372 271 372 254.5 391.5 c 128,-1,36
 238 411 238 411 198.5 411 c 0,37,38
 159 411 159 411 142.5 390 c 128,-1,39
 126 369 126 369 126 338 c 2,40,-1
 126 327 l 1,41,-1
 54 327 l 1,0,1
522 276 m 1,42,43
 522 411 522 411 446 411 c 0,44,45
 399 411 399 411 375.5 378 c 128,-1,46
 352 345 352 345 347 276 c 1,47,-1
 522 276 l 1,42,43
271 211 m 1,48,49
 191 211 191 211 151 193 c 128,-1,50
 111 175 111 175 111 131 c 0,51,52
 111 87 111 87 126.5 70.5 c 128,-1,53
 142 54 142 54 177 54 c 0,54,55
 212 54 212 54 241.5 82.5 c 128,-1,56
 271 111 271 111 271 162 c 2,57,-1
 271 211 l 1,48,49
EndSplineSet
EndChar

StartChar: aeacute
Encoding: 509 509 141
Width: 644
Flags: MW
HStem: -11 65<153.5 197 153.5 198 414 471> 211 65<223.5 271 347 522> 411 65<169.5 226.5 419 471> 522 117<270 425 270 425>
VStem: 35 76<98.5 161 98.5 184> 53 73<327 389> 271 76<162 211 157 211 157 336> 522 76
LayerCount: 2
Fore
SplineSet
331 522 m 1,0,-1
 270 522 l 1,1,-1
 346 639 l 1,2,-1
 425 639 l 1,3,-1
 426 636 l 1,4,-1
 331 522 l 1,0,-1
54 327 m 1,5,6
 53 332 53 332 53 347 c 0,7,8
 53 408 53 408 94 442 c 128,-1,9
 135 476 135 476 202 476 c 0,10,11
 288 476 288 476 322 423 c 1,12,13
 365 476 365 476 444 476 c 0,14,15
 523 476 523 476 560.5 424 c 128,-1,16
 598 372 598 372 598 257 c 2,17,-1
 598 211 l 1,18,-1
 347 211 l 1,19,20
 347 130 347 130 371.5 92 c 128,-1,21
 396 54 396 54 448 54 c 0,22,23
 483 54 483 54 505 82.5 c 128,-1,24
 527 111 527 111 527 158 c 1,25,-1
 598 158 l 1,26,27
 598 81 598 81 556.5 35 c 128,-1,28
 515 -11 515 -11 446 -11 c 0,29,30
 347 -11 347 -11 305 60 c 1,31,32
 251 -11 251 -11 171 -11 c 0,33,34
 35 -11 35 -11 35 120 c 0,35,36
 35 209 35 209 96 242.5 c 128,-1,37
 157 276 157 276 271 276 c 1,38,-1
 271 336 l 2,39,40
 271 372 271 372 254.5 391.5 c 128,-1,41
 238 411 238 411 198.5 411 c 0,42,43
 159 411 159 411 142.5 390 c 128,-1,44
 126 369 126 369 126 338 c 2,45,-1
 126 327 l 1,46,-1
 54 327 l 1,5,6
522 276 m 1,47,48
 522 411 522 411 446 411 c 0,49,50
 399 411 399 411 375.5 378 c 128,-1,51
 352 345 352 345 347 276 c 1,52,-1
 522 276 l 1,47,48
271 211 m 1,53,54
 191 211 191 211 151 193 c 128,-1,55
 111 175 111 175 111 131 c 0,56,57
 111 87 111 87 126.5 70.5 c 128,-1,58
 142 54 142 54 177 54 c 0,59,60
 212 54 212 54 241.5 82.5 c 128,-1,61
 271 111 271 111 271 162 c 2,62,-1
 271 211 l 1,53,54
EndSplineSet
EndChar

StartChar: b
Encoding: 98 98 142
Width: 403
Flags: MW
HStem: -11 65<202.5 236.5> 411 65<206.5 236.5> 619 20G<53 126 126 126>
VStem: 53 73<162.5 216 216 246 421 639> 292 76<216 249 249 307>
LayerCount: 2
Fore
SplineSet
130 421 m 1,0,1
 142 446 142 446 168.5 461 c 128,-1,2
 195 476 195 476 229 476 c 0,3,4
 291 476 291 476 329.5 415 c 128,-1,5
 368 354 368 354 368 231.5 c 0,6,7
 368 109 368 109 330 49 c 128,-1,8
 292 -11 292 -11 223.5 -11 c 0,9,10
 155 -11 155 -11 122 54 c 1,11,-1
 118 54 l 1,12,-1
 108 0 l 1,13,-1
 53 0 l 1,14,-1
 53 639 l 1,15,-1
 126 639 l 1,16,-1
 126 421 l 1,17,-1
 130 421 l 1,0,1
292 249 m 2,18,19
 292 334 292 334 271.5 372.5 c 128,-1,20
 251 411 251 411 209 411 c 0,21,22
 126 411 126 411 126 246 c 2,23,-1
 126 216 l 2,24,25
 126 54 126 54 209 54 c 0,26,27
 251 54 251 54 271.5 92.5 c 128,-1,28
 292 131 292 131 292 216 c 2,29,-1
 292 249 l 2,18,19
EndSplineSet
EndChar

StartChar: c
Encoding: 99 99 143
Width: 362
Flags: MW
HStem: -11 65<162 217 162 242> 411 65<162 217>
VStem: 32 76<162.5 216 216 249 162.5 316> 258 75<293 333>
LayerCount: 2
Fore
SplineSet
333 172 m 1,0,1
 333 93 333 93 298 41 c 128,-1,2
 263 -11 263 -11 186 -11 c 0,3,4
 109 -11 109 -11 70.5 48 c 128,-1,5
 32 107 32 107 32 232.5 c 0,6,7
 32 358 32 358 70.5 417 c 128,-1,8
 109 476 109 476 191 476 c 0,9,10
 333 476 333 476 333 293 c 1,11,-1
 258 293 l 1,12,13
 258 355 258 355 243.5 383 c 128,-1,14
 229 411 229 411 191 411 c 0,15,16
 108 411 108 411 108 249 c 2,17,-1
 108 216 l 2,18,19
 108 54 108 54 191 54 c 0,20,21
 229 54 229 54 245.5 83 c 128,-1,22
 262 112 262 112 262 172 c 1,23,-1
 333 172 l 1,0,1
EndSplineSet
EndChar

StartChar: cacute
Encoding: 263 263 144
Width: 362
Flags: MW
HStem: -11 65<162 217 162 242> 411 65<162 217> 522 117<137 293 137 293>
VStem: 32 76<162.5 216 216 249 162.5 316> 258 75<293 333>
LayerCount: 2
Fore
SplineSet
199 522 m 1,0,-1
 137 522 l 1,1,-1
 213 639 l 1,2,-1
 293 639 l 1,3,-1
 293 636 l 1,4,-1
 199 522 l 1,0,-1
333 172 m 1,5,6
 333 93 333 93 298 41 c 128,-1,7
 263 -11 263 -11 186 -11 c 0,8,9
 109 -11 109 -11 70.5 48 c 128,-1,10
 32 107 32 107 32 232.5 c 0,11,12
 32 358 32 358 70.5 417 c 128,-1,13
 109 476 109 476 191 476 c 0,14,15
 333 476 333 476 333 293 c 1,16,-1
 258 293 l 1,17,18
 258 355 258 355 243.5 383 c 128,-1,19
 229 411 229 411 191 411 c 0,20,21
 108 411 108 411 108 249 c 2,22,-1
 108 216 l 2,23,24
 108 54 108 54 191 54 c 0,25,26
 229 54 229 54 245.5 83 c 128,-1,27
 262 112 262 112 262 172 c 1,28,-1
 333 172 l 1,5,6
EndSplineSet
EndChar

StartChar: ccaron
Encoding: 269 269 145
Width: 362
Flags: MW
HStem: -11 65<162 217 162 242> 411 65<162 217> 520 119<72 216 72 147>
VStem: 32 76<162.5 216 216 249 162.5 316> 258 75<293 333>
LayerCount: 2
Fore
SplineSet
72 639 m 1,0,-1
 142 639 l 1,1,-1
 181 569 l 1,2,-1
 221 639 l 1,3,-1
 292 639 l 1,4,-1
 216 520 l 1,5,-1
 147 520 l 1,6,-1
 72 639 l 1,0,-1
333 172 m 1,7,8
 333 93 333 93 298 41 c 128,-1,9
 263 -11 263 -11 186 -11 c 0,10,11
 109 -11 109 -11 70.5 48 c 128,-1,12
 32 107 32 107 32 232.5 c 0,13,14
 32 358 32 358 70.5 417 c 128,-1,15
 109 476 109 476 191 476 c 0,16,17
 333 476 333 476 333 293 c 1,18,-1
 258 293 l 1,19,20
 258 355 258 355 243.5 383 c 128,-1,21
 229 411 229 411 191 411 c 0,22,23
 108 411 108 411 108 249 c 2,24,-1
 108 216 l 2,25,26
 108 54 108 54 191 54 c 0,27,28
 229 54 229 54 245.5 83 c 128,-1,29
 262 112 262 112 262 172 c 1,30,-1
 333 172 l 1,7,8
EndSplineSet
EndChar

StartChar: ccedilla
Encoding: 231 231 146
Width: 362
Flags: MW
HStem: -161 50<160 165 165 175 98 190.5> -68 36<138 193> 411 65<162 217>
VStem: 32 76<162.5 216 216 249 162.5 316> 197 67<-97.5 -82> 258 75<293 333>
LayerCount: 2
Fore
SplineSet
148 -5 m 1,0,1
 32 21 32 21 32 232 c 0,2,3
 32 358 32 358 70.5 417 c 128,-1,4
 109 476 109 476 191 476 c 0,5,6
 333 476 333 476 333 293 c 1,7,-1
 258 293 l 1,8,9
 258 355 258 355 243.5 383 c 128,-1,10
 229 411 229 411 191 411 c 0,11,12
 108 411 108 411 108 249 c 2,13,-1
 108 216 l 2,14,15
 108 54 108 54 191 54 c 0,16,17
 229 54 229 54 245.5 83 c 128,-1,18
 262 112 262 112 262 172 c 1,19,-1
 333 172 l 1,20,21
 333 94 333 94 299 42.5 c 128,-1,22
 265 -9 265 -9 195 -11 c 1,23,-1
 193 -32 l 1,24,25
 264 -36 264 -36 264 -89 c 0,26,27
 264 -129 264 -129 236 -145 c 128,-1,28
 208 -161 208 -161 171.5 -161 c 0,29,30
 135 -161 135 -161 98 -154 c 1,31,-1
 98 -111 l 1,32,-1
 165 -111 l 2,33,34
 197 -111 197 -111 197 -89.5 c 0,35,36
 197 -68 197 -68 167 -68 c 2,37,-1
 138 -68 l 1,38,-1
 148 -5 l 1,0,1
EndSplineSet
EndChar

StartChar: ccircumflex
Encoding: 265 265 147
Width: 362
Flags: MW
HStem: -11 65<162 217 162 242> 411 65<162 217> 519 119<72 217 72 217 148 221 148 292>
VStem: 32 76<162.5 216 216 249 162.5 316> 258 75<293 333>
LayerCount: 2
Fore
SplineSet
182 589 m 1,0,-1
 142 519 l 1,1,-1
 72 519 l 1,2,-1
 148 638 l 1,3,-1
 217 638 l 1,4,-1
 292 519 l 1,5,-1
 221 519 l 1,6,-1
 182 589 l 1,0,-1
333 172 m 1,7,8
 333 93 333 93 298 41 c 128,-1,9
 263 -11 263 -11 186 -11 c 0,10,11
 109 -11 109 -11 70.5 48 c 128,-1,12
 32 107 32 107 32 232.5 c 0,13,14
 32 358 32 358 70.5 417 c 128,-1,15
 109 476 109 476 191 476 c 0,16,17
 333 476 333 476 333 293 c 1,18,-1
 258 293 l 1,19,20
 258 355 258 355 243.5 383 c 128,-1,21
 229 411 229 411 191 411 c 0,22,23
 108 411 108 411 108 249 c 2,24,-1
 108 216 l 2,25,26
 108 54 108 54 191 54 c 0,27,28
 229 54 229 54 245.5 83 c 128,-1,29
 262 112 262 112 262 172 c 1,30,-1
 333 172 l 1,7,8
EndSplineSet
EndChar

StartChar: cdotaccent
Encoding: 267 267 148
Width: 362
Flags: MW
HStem: -11 65<162 217 162 242> 411 65<162 217> 555 84<143 220 143 220>
VStem: 32 76<162.5 216 216 249 162.5 316> 143 77<555 639 555 639> 258 75<293 333>
LayerCount: 2
Fore
SplineSet
143 639 m 1,0,-1
 220 639 l 1,1,-1
 220 555 l 1,2,-1
 143 555 l 1,3,-1
 143 639 l 1,0,-1
333 172 m 1,4,5
 333 93 333 93 298 41 c 128,-1,6
 263 -11 263 -11 186 -11 c 0,7,8
 109 -11 109 -11 70.5 48 c 128,-1,9
 32 107 32 107 32 232.5 c 0,10,11
 32 358 32 358 70.5 417 c 128,-1,12
 109 476 109 476 191 476 c 0,13,14
 333 476 333 476 333 293 c 1,15,-1
 258 293 l 1,16,17
 258 355 258 355 243.5 383 c 128,-1,18
 229 411 229 411 191 411 c 0,19,20
 108 411 108 411 108 249 c 2,21,-1
 108 216 l 2,22,23
 108 54 108 54 191 54 c 0,24,25
 229 54 229 54 245.5 83 c 128,-1,26
 262 112 262 112 262 172 c 1,27,-1
 333 172 l 1,4,5
EndSplineSet
EndChar

StartChar: d
Encoding: 100 100 149
Width: 403
Flags: MW
HStem: -11 65<166.5 200.5> 411 65<166.5 196.5 135.5 222> 619 20G<278 350 350 350>
VStem: 35 76<158 216 216 249 158 317.5> 278 72<216 246 246 300.5 421 639 0 639>
LayerCount: 2
Fore
SplineSet
286 54 m 1,0,-1
 281 54 l 1,1,2
 248 -11 248 -11 179.5 -11 c 0,3,4
 111 -11 111 -11 73 49 c 128,-1,5
 35 109 35 109 35 231.5 c 0,6,7
 35 354 35 354 73.5 415 c 128,-1,8
 112 476 112 476 174 476 c 0,9,10
 208 476 208 476 234.5 461 c 128,-1,11
 261 446 261 446 273 421 c 1,12,-1
 278 421 l 1,13,-1
 278 639 l 1,14,-1
 350 639 l 1,15,-1
 350 0 l 1,16,-1
 295 0 l 1,17,-1
 286 54 l 1,0,-1
278 246 m 2,18,19
 278 411 278 411 194 411 c 0,20,21
 152 411 152 411 131.5 372.5 c 128,-1,22
 111 334 111 334 111 249 c 2,23,-1
 111 216 l 2,24,25
 111 131 111 131 131.5 92.5 c 128,-1,26
 152 54 152 54 194 54 c 0,27,28
 278 54 278 54 278 216 c 2,29,-1
 278 246 l 2,18,19
EndSplineSet
EndChar

StartChar: eth
Encoding: 240 240 150
Width: 403
Flags: MW
HStem: -11 65<171.5 232 171.5 256> 411 65<171.5 200 146.5 231.5> 445 20G 534.5 51.5 534.5 104.5 549 57 589 50<145 145>
VStem: 35 76<162.5 216 216 249 162.5 318> 82 244<552 583 583 583> 292 76<216 249 249 296.5 148.5 302.5>
LayerCount: 2
Fore
SplineSet
183 639 m 1,0,-1
 223 596 l 1,1,-1
 326 606 l 1,2,-1
 326 552 l 1,3,-1
 263 546 l 1,4,5
 368 404 368 404 368 232 c 0,6,7
 368 -11 368 -11 201.5 -11 c 128,-1,8
 35 -11 35 -11 35 232 c 0,9,10
 35 356 35 356 77.5 416 c 128,-1,11
 120 476 120 476 192 476 c 0,12,13
 210 476 210 476 236 465 c 1,14,15
 221 492 221 492 187 539 c 1,16,-1
 82 530 l 1,17,-1
 82 583 l 1,18,-1
 145 589 l 1,19,20
 120 618 120 618 103 636 c 1,21,-1
 105 639 l 1,22,-1
 183 639 l 1,0,-1
292 249 m 2,23,24
 292 411 292 411 201.5 411 c 128,-1,25
 111 411 111 411 111 249 c 2,26,-1
 111 216 l 2,27,28
 111 54 111 54 201.5 54 c 128,-1,29
 292 54 292 54 292 216 c 2,30,-1
 292 249 l 2,23,24
EndSplineSet
EndChar

StartChar: dcaron
Encoding: 271 271 151
Width: 446
Flags: MW
HStem: -11 65<166.5 200.5> 411 65<166.5 196.5 135.5 222> 511 95<385 421 385 474> 511 128<278 421 278 385>
VStem: 35 76<158 216 216 249 158 317.5> 278 72<216 246 246 300.5 421 639 0 639> 385 89<519 606 519 606 519 606>
LayerCount: 2
Fore
SplineSet
286 54 m 1,0,-1
 281 54 l 1,1,2
 248 -11 248 -11 179.5 -11 c 0,3,4
 111 -11 111 -11 73 49 c 128,-1,5
 35 109 35 109 35 231.5 c 0,6,7
 35 354 35 354 73.5 415 c 128,-1,8
 112 476 112 476 174 476 c 0,9,10
 208 476 208 476 234.5 461 c 128,-1,11
 261 446 261 446 273 421 c 1,12,-1
 278 421 l 1,13,-1
 278 639 l 1,14,-1
 350 639 l 1,15,-1
 350 0 l 1,16,-1
 295 0 l 1,17,-1
 286 54 l 1,0,-1
385 401 m 1,18,-1
 421 511 l 1,19,-1
 385 511 l 1,20,-1
 385 606 l 1,21,-1
 474 606 l 1,22,-1
 474 519 l 1,23,-1
 431 401 l 1,24,-1
 385 401 l 1,18,-1
278 246 m 2,25,26
 278 411 278 411 194 411 c 0,27,28
 152 411 152 411 131.5 372.5 c 128,-1,29
 111 334 111 334 111 249 c 2,30,-1
 111 216 l 2,31,32
 111 131 111 131 131.5 92.5 c 128,-1,33
 152 54 152 54 194 54 c 0,34,35
 278 54 278 54 278 216 c 2,36,-1
 278 246 l 2,25,26
EndSplineSet
EndChar

StartChar: dcroat
Encoding: 273 273 152
Width: 400
Flags: MW
HStem: -11 65<166.5 200.5> 411 65<166.5 196.5 135.5 222> 515 60<179 278 179 278 350 401> 515 124<179 350 179 350 278 401 278 350>
VStem: 35 76<158 216 216 249 158 317.5> 278 72<216 246 246 300.5 421 515 0 515 575 639>
LayerCount: 2
Fore
SplineSet
401 575 m 1,0,-1
 401 515 l 1,1,-1
 350 515 l 1,2,-1
 350 0 l 1,3,-1
 295 0 l 1,4,-1
 286 54 l 1,5,-1
 281 54 l 1,6,7
 248 -11 248 -11 179.5 -11 c 0,8,9
 111 -11 111 -11 73 49 c 128,-1,10
 35 109 35 109 35 231.5 c 0,11,12
 35 354 35 354 73.5 415 c 128,-1,13
 112 476 112 476 174 476 c 0,14,15
 208 476 208 476 234.5 461 c 128,-1,16
 261 446 261 446 273 421 c 1,17,-1
 278 421 l 1,18,-1
 278 515 l 1,19,-1
 179 515 l 1,20,-1
 179 575 l 1,21,-1
 278 575 l 1,22,-1
 278 639 l 1,23,-1
 350 639 l 1,24,-1
 350 575 l 1,25,-1
 401 575 l 1,0,-1
278 246 m 2,26,27
 278 411 278 411 194 411 c 0,28,29
 152 411 152 411 131.5 372.5 c 128,-1,30
 111 334 111 334 111 249 c 2,31,-1
 111 216 l 2,32,33
 111 131 111 131 131.5 92.5 c 128,-1,34
 152 54 152 54 194 54 c 0,35,36
 278 54 278 54 278 216 c 2,37,-1
 278 246 l 2,26,27
EndSplineSet
EndChar

StartChar: e
Encoding: 101 101 153
Width: 403
Flags: MW
HStem: -11 65<180.5 238 180.5 258> 211 65<114 289 114 365 113 289> 411 65<180 237.5>
VStem: 37 76<211 211 211 316> 289 76
LayerCount: 2
Fore
SplineSet
365 158 m 1,0,1
 365 81 365 81 323 35 c 128,-1,2
 281 -11 281 -11 213 -11 c 0,3,4
 124 -11 124 -11 80.5 47 c 128,-1,5
 37 105 37 105 37 231 c 0,6,7
 37 357 37 357 80.5 416.5 c 128,-1,8
 124 476 124 476 207 476 c 0,9,10
 290 476 290 476 327.5 424 c 128,-1,11
 365 372 365 372 365 257 c 2,12,-1
 365 211 l 1,13,-1
 113 211 l 1,14,15
 114 130 114 130 138.5 92 c 128,-1,16
 163 54 163 54 215 54 c 0,17,18
 250 54 250 54 271.5 82 c 128,-1,19
 293 110 293 110 293 158 c 1,20,-1
 365 158 l 1,0,1
289 276 m 1,21,22
 289 411 289 411 212 411 c 0,23,24
 165 411 165 411 142 377.5 c 128,-1,25
 119 344 119 344 114 276 c 1,26,-1
 289 276 l 1,21,22
EndSplineSet
EndChar

StartChar: eacute
Encoding: 233 233 154
Width: 403
Flags: MW
HStem: -11 65<180.5 238 180.5 258> 211 65<114 289 114 365 113 289> 411 65<180 237.5> 522 117<159 315 159 315>
VStem: 37 76<211 211 211 316> 289 76
LayerCount: 2
Fore
SplineSet
221 522 m 1,0,-1
 159 522 l 1,1,-1
 235 639 l 1,2,-1
 315 639 l 1,3,-1
 316 636 l 1,4,-1
 221 522 l 1,0,-1
365 158 m 1,5,6
 365 81 365 81 323 35 c 128,-1,7
 281 -11 281 -11 213 -11 c 0,8,9
 124 -11 124 -11 80.5 47 c 128,-1,10
 37 105 37 105 37 231 c 0,11,12
 37 357 37 357 80.5 416.5 c 128,-1,13
 124 476 124 476 207 476 c 0,14,15
 290 476 290 476 327.5 424 c 128,-1,16
 365 372 365 372 365 257 c 2,17,-1
 365 211 l 1,18,-1
 113 211 l 1,19,20
 114 130 114 130 138.5 92 c 128,-1,21
 163 54 163 54 215 54 c 0,22,23
 250 54 250 54 271.5 82 c 128,-1,24
 293 110 293 110 293 158 c 1,25,-1
 365 158 l 1,5,6
289 276 m 1,26,27
 289 411 289 411 212 411 c 0,28,29
 165 411 165 411 142 377.5 c 128,-1,30
 119 344 119 344 114 276 c 1,31,-1
 289 276 l 1,26,27
EndSplineSet
EndChar

StartChar: ebreve
Encoding: 277 277 155
Width: 403
Flags: MW
HStem: -11 65<180.5 238 180.5 258> 211 65<114 289 114 365 113 289> 411 65<180 237.5> 553 57<186.5 217 186.5 236> 553 86<92 236>
VStem: 37 76<211 211 211 316> 289 76
LayerCount: 2
Fore
SplineSet
311 639 m 1,0,1
 311 607 311 607 280.5 580 c 128,-1,2
 250 553 250 553 202 553 c 128,-1,3
 154 553 154 553 123 580 c 128,-1,4
 92 607 92 607 92 639 c 1,5,-1
 149 639 l 1,6,7
 152 629 152 629 166.5 619.5 c 128,-1,8
 181 610 181 610 202 610 c 128,-1,9
 223 610 223 610 238 619.5 c 128,-1,10
 253 629 253 629 255 639 c 1,11,-1
 311 639 l 1,0,1
365 158 m 1,12,13
 365 81 365 81 323 35 c 128,-1,14
 281 -11 281 -11 213 -11 c 0,15,16
 124 -11 124 -11 80.5 47 c 128,-1,17
 37 105 37 105 37 231 c 0,18,19
 37 357 37 357 80.5 416.5 c 128,-1,20
 124 476 124 476 207 476 c 0,21,22
 290 476 290 476 327.5 424 c 128,-1,23
 365 372 365 372 365 257 c 2,24,-1
 365 211 l 1,25,-1
 113 211 l 1,26,27
 114 130 114 130 138.5 92 c 128,-1,28
 163 54 163 54 215 54 c 0,29,30
 250 54 250 54 271.5 82 c 128,-1,31
 293 110 293 110 293 158 c 1,32,-1
 365 158 l 1,12,13
289 276 m 1,33,34
 289 411 289 411 212 411 c 0,35,36
 165 411 165 411 142 377.5 c 128,-1,37
 119 344 119 344 114 276 c 1,38,-1
 289 276 l 1,33,34
EndSplineSet
EndChar

StartChar: ecaron
Encoding: 283 283 156
Width: 403
Flags: MW
HStem: -11 65<180.5 238 180.5 258> 211 65<114 289 114 365 113 289> 411 65<180 237.5> 520 119<92 236 92 166>
VStem: 37 76<211 211 211 316> 289 76
LayerCount: 2
Fore
SplineSet
92 639 m 1,0,-1
 163 639 l 1,1,-1
 202 569 l 1,2,-1
 241 639 l 1,3,-1
 312 639 l 1,4,-1
 236 520 l 1,5,-1
 166 520 l 1,6,-1
 92 639 l 1,0,-1
365 158 m 1,7,8
 365 81 365 81 323 35 c 128,-1,9
 281 -11 281 -11 213 -11 c 0,10,11
 124 -11 124 -11 80.5 47 c 128,-1,12
 37 105 37 105 37 231 c 0,13,14
 37 357 37 357 80.5 416.5 c 128,-1,15
 124 476 124 476 207 476 c 0,16,17
 290 476 290 476 327.5 424 c 128,-1,18
 365 372 365 372 365 257 c 2,19,-1
 365 211 l 1,20,-1
 113 211 l 1,21,22
 114 130 114 130 138.5 92 c 128,-1,23
 163 54 163 54 215 54 c 0,24,25
 250 54 250 54 271.5 82 c 128,-1,26
 293 110 293 110 293 158 c 1,27,-1
 365 158 l 1,7,8
289 276 m 1,28,29
 289 411 289 411 212 411 c 0,30,31
 165 411 165 411 142 377.5 c 128,-1,32
 119 344 119 344 114 276 c 1,33,-1
 289 276 l 1,28,29
EndSplineSet
EndChar

StartChar: ecircumflex
Encoding: 234 234 157
Width: 403
Flags: MW
HStem: -11 65<180.5 238 180.5 258> 211 65<114 289 114 365 113 289> 411 65<180 237.5> 519 119<92 237 92 237 167 241 167 312>
VStem: 37 76<211 211 211 316> 289 76
LayerCount: 2
Fore
SplineSet
202 589 m 1,0,-1
 163 519 l 1,1,-1
 92 519 l 1,2,-1
 167 638 l 1,3,-1
 237 638 l 1,4,-1
 312 519 l 1,5,-1
 241 519 l 1,6,-1
 202 589 l 1,0,-1
365 158 m 1,7,8
 365 81 365 81 323 35 c 128,-1,9
 281 -11 281 -11 213 -11 c 0,10,11
 124 -11 124 -11 80.5 47 c 128,-1,12
 37 105 37 105 37 231 c 0,13,14
 37 357 37 357 80.5 416.5 c 128,-1,15
 124 476 124 476 207 476 c 0,16,17
 290 476 290 476 327.5 424 c 128,-1,18
 365 372 365 372 365 257 c 2,19,-1
 365 211 l 1,20,-1
 113 211 l 1,21,22
 114 130 114 130 138.5 92 c 128,-1,23
 163 54 163 54 215 54 c 0,24,25
 250 54 250 54 271.5 82 c 128,-1,26
 293 110 293 110 293 158 c 1,27,-1
 365 158 l 1,7,8
289 276 m 1,28,29
 289 411 289 411 212 411 c 0,30,31
 165 411 165 411 142 377.5 c 128,-1,32
 119 344 119 344 114 276 c 1,33,-1
 289 276 l 1,28,29
EndSplineSet
EndChar

StartChar: edieresis
Encoding: 235 235 158
Width: 403
Flags: MW
HStem: -11 65<180.5 238 180.5 258> 211 65<114 289 114 365 113 289> 411 65<180 237.5> 555 84<96 173 96 173 229 307 96 229>
VStem: 37 76<211 211 211 316> 96 77<555 639 555 639> 229 78<555 639 555 639> 289 76
LayerCount: 2
Fore
SplineSet
96 555 m 1,0,-1
 96 639 l 1,1,-1
 173 639 l 1,2,-1
 173 555 l 1,3,-1
 96 555 l 1,0,-1
229 555 m 1,4,-1
 229 639 l 1,5,-1
 307 639 l 1,6,-1
 307 555 l 1,7,-1
 229 555 l 1,4,-1
365 158 m 1,8,9
 365 81 365 81 323 35 c 128,-1,10
 281 -11 281 -11 213 -11 c 0,11,12
 124 -11 124 -11 80.5 47 c 128,-1,13
 37 105 37 105 37 231 c 0,14,15
 37 357 37 357 80.5 416.5 c 128,-1,16
 124 476 124 476 207 476 c 0,17,18
 290 476 290 476 327.5 424 c 128,-1,19
 365 372 365 372 365 257 c 2,20,-1
 365 211 l 1,21,-1
 113 211 l 1,22,23
 114 130 114 130 138.5 92 c 128,-1,24
 163 54 163 54 215 54 c 0,25,26
 250 54 250 54 271.5 82 c 128,-1,27
 293 110 293 110 293 158 c 1,28,-1
 365 158 l 1,8,9
289 276 m 1,29,30
 289 411 289 411 212 411 c 0,31,32
 165 411 165 411 142 377.5 c 128,-1,33
 119 344 119 344 114 276 c 1,34,-1
 289 276 l 1,29,30
EndSplineSet
EndChar

StartChar: edotaccent
Encoding: 279 279 159
Width: 403
Flags: MW
HStem: -11 65<180.5 238 180.5 258> 211 65<114 289 114 365 113 289> 411 65<180 237.5> 555 84<164 240 164 240>
VStem: 37 76<211 211 211 316> 164 76<555 639 555 639> 289 76
LayerCount: 2
Fore
SplineSet
164 639 m 1,0,-1
 240 639 l 1,1,-1
 240 555 l 1,2,-1
 164 555 l 1,3,-1
 164 639 l 1,0,-1
365 158 m 1,4,5
 365 81 365 81 323 35 c 128,-1,6
 281 -11 281 -11 213 -11 c 0,7,8
 124 -11 124 -11 80.5 47 c 128,-1,9
 37 105 37 105 37 231 c 0,10,11
 37 357 37 357 80.5 416.5 c 128,-1,12
 124 476 124 476 207 476 c 0,13,14
 290 476 290 476 327.5 424 c 128,-1,15
 365 372 365 372 365 257 c 2,16,-1
 365 211 l 1,17,-1
 113 211 l 1,18,19
 114 130 114 130 138.5 92 c 128,-1,20
 163 54 163 54 215 54 c 0,21,22
 250 54 250 54 271.5 82 c 128,-1,23
 293 110 293 110 293 158 c 1,24,-1
 365 158 l 1,4,5
289 276 m 1,25,26
 289 411 289 411 212 411 c 0,27,28
 165 411 165 411 142 377.5 c 128,-1,29
 119 344 119 344 114 276 c 1,30,-1
 289 276 l 1,25,26
EndSplineSet
EndChar

StartChar: egrave
Encoding: 232 232 160
Width: 403
Flags: MW
HStem: -11 65<180.5 238 180.5 258> 211 65<114 289 114 365 113 289> 411 65<180 237.5> 522 117<109 203 109 264>
VStem: 37 76<211 211 211 316> 289 76
LayerCount: 2
Fore
SplineSet
203 522 m 1,0,-1
 108 636 l 1,1,-1
 109 639 l 1,2,-1
 188 639 l 1,3,-1
 264 522 l 1,4,-1
 203 522 l 1,0,-1
365 158 m 1,5,6
 365 81 365 81 323 35 c 128,-1,7
 281 -11 281 -11 213 -11 c 0,8,9
 124 -11 124 -11 80.5 47 c 128,-1,10
 37 105 37 105 37 231 c 0,11,12
 37 357 37 357 80.5 416.5 c 128,-1,13
 124 476 124 476 207 476 c 0,14,15
 290 476 290 476 327.5 424 c 128,-1,16
 365 372 365 372 365 257 c 2,17,-1
 365 211 l 1,18,-1
 113 211 l 1,19,20
 114 130 114 130 138.5 92 c 128,-1,21
 163 54 163 54 215 54 c 0,22,23
 250 54 250 54 271.5 82 c 128,-1,24
 293 110 293 110 293 158 c 1,25,-1
 365 158 l 1,5,6
289 276 m 1,26,27
 289 411 289 411 212 411 c 0,28,29
 165 411 165 411 142 377.5 c 128,-1,30
 119 344 119 344 114 276 c 1,31,-1
 289 276 l 1,26,27
EndSplineSet
EndChar

StartChar: emacron
Encoding: 275 275 161
Width: 403
Flags: MW
HStem: -11 65<180.5 238 180.5 258> 211 65<114 289 114 365 113 289> 411 65<180 237.5> 530 63<91 313 91 313>
VStem: 37 76<211 211 211 316> 91 222<530 593 530 593> 289 76
LayerCount: 2
Fore
SplineSet
91 593 m 1,0,-1
 313 593 l 1,1,-1
 313 530 l 1,2,-1
 91 530 l 1,3,-1
 91 593 l 1,0,-1
365 158 m 1,4,5
 365 81 365 81 323 35 c 128,-1,6
 281 -11 281 -11 213 -11 c 0,7,8
 124 -11 124 -11 80.5 47 c 128,-1,9
 37 105 37 105 37 231 c 0,10,11
 37 357 37 357 80.5 416.5 c 128,-1,12
 124 476 124 476 207 476 c 0,13,14
 290 476 290 476 327.5 424 c 128,-1,15
 365 372 365 372 365 257 c 2,16,-1
 365 211 l 1,17,-1
 113 211 l 1,18,19
 114 130 114 130 138.5 92 c 128,-1,20
 163 54 163 54 215 54 c 0,21,22
 250 54 250 54 271.5 82 c 128,-1,23
 293 110 293 110 293 158 c 1,24,-1
 365 158 l 1,4,5
289 276 m 1,25,26
 289 411 289 411 212 411 c 0,27,28
 165 411 165 411 142 377.5 c 128,-1,29
 119 344 119 344 114 276 c 1,30,-1
 289 276 l 1,25,26
EndSplineSet
EndChar

StartChar: eogonek
Encoding: 281 281 162
Width: 403
Flags: MW
HStem: -161 58<255 328> -11 65<180.5 213 213 215> 211 65<114 289 114 365 113 289> 411 65<180 237.5>
VStem: 37 76<211 211 211 316> 191 69<-67.5 -66> 289 76
LayerCount: 2
Fore
SplineSet
365 211 m 1,0,-1
 113 211 l 1,1,2
 114 130 114 130 138.5 92 c 128,-1,3
 163 54 163 54 215 54 c 0,4,5
 250 54 250 54 271.5 82 c 128,-1,6
 293 110 293 110 293 158 c 1,7,-1
 365 158 l 1,8,9
 365 49 365 49 286 6 c 1,10,11
 260 -22 260 -22 260 -55 c 0,12,13
 260 -103 260 -103 300 -103 c 2,14,-1
 328 -103 l 1,15,-1
 328 -149 l 1,16,17
 295 -161 295 -161 267.5 -161 c 0,18,19
 240 -161 240 -161 215.5 -142 c 128,-1,20
 191 -123 191 -123 191 -82.5 c 0,21,22
 191 -42 191 -42 215 -11 c 1,23,-1
 213 -11 l 2,24,25
 124 -11 124 -11 80.5 47 c 128,-1,26
 37 105 37 105 37 231 c 0,27,28
 37 357 37 357 80.5 416.5 c 128,-1,29
 124 476 124 476 207 476 c 0,30,31
 290 476 290 476 327.5 424 c 128,-1,32
 365 372 365 372 365 257 c 2,33,-1
 365 211 l 1,0,-1
289 276 m 1,34,35
 289 411 289 411 212 411 c 0,36,37
 165 411 165 411 142 377.5 c 128,-1,38
 119 344 119 344 114 276 c 1,39,-1
 289 276 l 1,34,35
EndSplineSet
EndChar

StartChar: f
Encoding: 102 102 163
Width: 202
Flags: MW
HStem: 400 65<8 49 8 49 121 202> 585 61<149 151.5 105.5 163 105.5 202>
VStem: 49 72<0 400 0 400 465 539 539 543>
LayerCount: 2
Fore
SplineSet
49 539 m 2,0,1
 49 585 49 585 70.5 615.5 c 128,-1,2
 92 646 92 646 141 646 c 0,3,4
 172 646 172 646 202 636 c 1,5,-1
 202 585 l 1,6,-1
 163 585 l 2,7,8
 121 585 121 585 121 543 c 2,9,-1
 121 465 l 1,10,-1
 202 465 l 1,11,-1
 202 400 l 1,12,-1
 121 400 l 1,13,-1
 121 0 l 1,14,-1
 49 0 l 1,15,-1
 49 400 l 1,16,-1
 8 400 l 1,17,-1
 8 465 l 1,18,-1
 49 465 l 1,19,-1
 49 539 l 2,0,1
EndSplineSet
EndChar

StartChar: g
Encoding: 103 103 164
Width: 403
Flags: MW
HStem: -161 63<88 266 138 258> 11 69<119.5 285 152 266> 163 60<140 222 170.5 201> 415 61<170.5 209 150 222>
VStem: 11 73<-58 -28 -58 -27.5> 34 76<109.5 132.5 109.5 137> 45 73<293 348.5 288 367.5> 276 73<289.5 342 271 350> 321 73<-58 -28> 322 63<512 540>
LayerCount: 2
Fore
SplineSet
385 540 m 1,0,1
 385 498 385 498 364.5 468 c 128,-1,2
 344 438 344 438 308 429 c 1,3,4
 349 385 349 385 349 316 c 0,5,6
 349 247 349 247 309 205.5 c 128,-1,7
 269 164 269 164 201 163 c 1,8,-1
 152 163 l 2,9,10
 134 163 134 163 122 150.5 c 128,-1,11
 110 138 110 138 110 121 c 128,-1,12
 110 104 110 104 122.5 92 c 128,-1,13
 135 80 135 80 152 80 c 2,14,-1
 285 80 l 2,15,16
 334 80 334 80 364 48.5 c 128,-1,17
 394 17 394 17 394 -35 c 0,18,19
 394 -87 394 -87 358.5 -124 c 128,-1,20
 323 -161 323 -161 258 -161 c 2,21,-1
 126 -161 l 2,22,23
 71 -161 71 -161 41 -129.5 c 128,-1,24
 11 -98 11 -98 11 -57 c 0,25,26
 11 -16 11 -16 27.5 11 c 128,-1,27
 44 38 44 38 72 49 c 1,28,29
 34 73 34 73 34 118 c 0,30,31
 34 176 34 176 99 199 c 1,32,33
 45 242 45 242 45 317 c 0,34,35
 45 392 45 392 86 434 c 128,-1,36
 127 476 127 476 197 476 c 0,37,38
 232 476 232 476 264 459 c 1,39,40
 312 484 312 484 322 540 c 1,41,-1
 385 540 l 1,0,1
196 415 m 0,42,43
 158 415 158 415 138 389.5 c 128,-1,44
 118 364 118 364 118 319 c 0,45,46
 118 223 118 223 196 223 c 0,47,48
 234 223 234 223 255 248.5 c 128,-1,49
 276 274 276 274 276 319 c 0,50,51
 276 415 276 415 196 415 c 0,42,43
138 11 m 2,52,53
 111 11 111 11 97.5 -4 c 128,-1,54
 84 -19 84 -19 84 -43 c 128,-1,55
 84 -67 84 -67 98 -82.5 c 128,-1,56
 112 -98 112 -98 138 -98 c 2,57,-1
 266 -98 l 2,58,59
 289 -98 289 -98 305 -82 c 128,-1,60
 321 -66 321 -66 321 -42.5 c 0,61,62
 321 -19 321 -19 307 -4 c 128,-1,63
 293 11 293 11 266 11 c 2,64,-1
 138 11 l 2,52,53
EndSplineSet
EndChar

StartChar: gbreve
Encoding: 287 287 165
Width: 403
Flags: MW
HStem: -161 63<88 266 138 258> 11 69<119.5 285 152 266> 163 60<140 222 170.5 201> 415 61<170.5 209 150 222> 553 57<186.5 217 186.5 236> 553 86<92 236>
VStem: 11 73<-58 -28 -58 -27.5> 34 76<109.5 132.5 109.5 137> 45 73<293 348.5 288 367.5> 276 73<289.5 342 271 350> 321 73<-58 -28> 322 63<512 540>
LayerCount: 2
Fore
SplineSet
311 639 m 1,0,1
 311 607 311 607 280.5 580 c 128,-1,2
 250 553 250 553 202 553 c 128,-1,3
 154 553 154 553 123 580 c 128,-1,4
 92 607 92 607 92 639 c 1,5,-1
 149 639 l 1,6,7
 152 629 152 629 166.5 619.5 c 128,-1,8
 181 610 181 610 202 610 c 128,-1,9
 223 610 223 610 238 619.5 c 128,-1,10
 253 629 253 629 255 639 c 1,11,-1
 311 639 l 1,0,1
385 540 m 1,12,13
 385 498 385 498 364.5 468 c 128,-1,14
 344 438 344 438 308 429 c 1,15,16
 349 385 349 385 349 316 c 0,17,18
 349 247 349 247 309 205.5 c 128,-1,19
 269 164 269 164 201 163 c 1,20,-1
 152 163 l 2,21,22
 134 163 134 163 122 150.5 c 128,-1,23
 110 138 110 138 110 121 c 128,-1,24
 110 104 110 104 122.5 92 c 128,-1,25
 135 80 135 80 152 80 c 2,26,-1
 285 80 l 2,27,28
 334 80 334 80 364 48.5 c 128,-1,29
 394 17 394 17 394 -35 c 0,30,31
 394 -87 394 -87 358.5 -124 c 128,-1,32
 323 -161 323 -161 258 -161 c 2,33,-1
 126 -161 l 2,34,35
 71 -161 71 -161 41 -129.5 c 128,-1,36
 11 -98 11 -98 11 -57 c 0,37,38
 11 -16 11 -16 27.5 11 c 128,-1,39
 44 38 44 38 72 49 c 1,40,41
 34 73 34 73 34 118 c 0,42,43
 34 176 34 176 99 199 c 1,44,45
 45 242 45 242 45 317 c 0,46,47
 45 392 45 392 86 434 c 128,-1,48
 127 476 127 476 197 476 c 0,49,50
 232 476 232 476 264 459 c 1,51,52
 312 484 312 484 322 540 c 1,53,-1
 385 540 l 1,12,13
196 415 m 0,54,55
 158 415 158 415 138 389.5 c 128,-1,56
 118 364 118 364 118 319 c 0,57,58
 118 223 118 223 196 223 c 0,59,60
 234 223 234 223 255 248.5 c 128,-1,61
 276 274 276 274 276 319 c 0,62,63
 276 415 276 415 196 415 c 0,54,55
138 11 m 2,64,65
 111 11 111 11 97.5 -4 c 128,-1,66
 84 -19 84 -19 84 -43 c 128,-1,67
 84 -67 84 -67 98 -82.5 c 128,-1,68
 112 -98 112 -98 138 -98 c 2,69,-1
 266 -98 l 2,70,71
 289 -98 289 -98 305 -82 c 128,-1,72
 321 -66 321 -66 321 -42.5 c 0,73,74
 321 -19 321 -19 307 -4 c 128,-1,75
 293 11 293 11 266 11 c 2,76,-1
 138 11 l 2,64,65
EndSplineSet
EndChar

StartChar: gcircumflex
Encoding: 285 285 166
Width: 403
Flags: MW
HStem: -161 63<88 266 138 258> 11 69<119.5 285 152 266> 163 60<140 222 170.5 201> 415 61<170.5 209 150 222> 519 21<241 385> 589 49<202 202>
VStem: 11 73<-58 -28 -58 -27.5> 34 76<109.5 132.5 109.5 137> 45 73<293 348.5 288 367.5> 276 73<289.5 342 271 350> 321 73<-58 -28> 326 59<512 540>
LayerCount: 2
Fore
SplineSet
202 589 m 1,0,-1
 163 519 l 1,1,-1
 92 519 l 1,2,-1
 167 638 l 1,3,-1
 237 638 l 1,4,-1
 312 519 l 1,5,-1
 241 519 l 1,6,-1
 202 589 l 1,0,-1
385 540 m 1,7,8
 385 498 385 498 364.5 468 c 128,-1,9
 344 438 344 438 308 429 c 1,10,11
 349 385 349 385 349 316 c 0,12,13
 349 247 349 247 309 205.5 c 128,-1,14
 269 164 269 164 201 163 c 1,15,-1
 152 163 l 2,16,17
 134 163 134 163 122 150.5 c 128,-1,18
 110 138 110 138 110 121 c 128,-1,19
 110 104 110 104 122.5 92 c 128,-1,20
 135 80 135 80 152 80 c 2,21,-1
 285 80 l 2,22,23
 334 80 334 80 364 48.5 c 128,-1,24
 394 17 394 17 394 -35 c 0,25,26
 394 -87 394 -87 358.5 -124 c 128,-1,27
 323 -161 323 -161 258 -161 c 2,28,-1
 126 -161 l 2,29,30
 71 -161 71 -161 41 -129.5 c 128,-1,31
 11 -98 11 -98 11 -57 c 0,32,33
 11 -16 11 -16 27.5 11 c 128,-1,34
 44 38 44 38 72 49 c 1,35,36
 34 73 34 73 34 118 c 0,37,38
 34 176 34 176 99 199 c 1,39,40
 45 242 45 242 45 317 c 0,41,42
 45 392 45 392 86 434 c 128,-1,43
 127 476 127 476 197 476 c 0,44,45
 232 476 232 476 264 459 c 1,46,47
 298 476 298 476 311.5 492.5 c 128,-1,48
 325 509 325 509 326 540 c 1,49,-1
 385 540 l 1,7,8
196 415 m 0,50,51
 158 415 158 415 138 389.5 c 128,-1,52
 118 364 118 364 118 319 c 0,53,54
 118 223 118 223 196 223 c 0,55,56
 234 223 234 223 255 248.5 c 128,-1,57
 276 274 276 274 276 319 c 0,58,59
 276 415 276 415 196 415 c 0,50,51
138 11 m 2,60,61
 111 11 111 11 97.5 -4 c 128,-1,62
 84 -19 84 -19 84 -43 c 128,-1,63
 84 -67 84 -67 98 -82.5 c 128,-1,64
 112 -98 112 -98 138 -98 c 2,65,-1
 266 -98 l 2,66,67
 289 -98 289 -98 305 -82 c 128,-1,68
 321 -66 321 -66 321 -42.5 c 0,69,70
 321 -19 321 -19 307 -4 c 128,-1,71
 293 11 293 11 266 11 c 2,72,-1
 138 11 l 2,60,61
EndSplineSet
EndChar

StartChar: gcommaaccent
Encoding: 291 291 167
Width: 403
Flags: MW
HStem: -161 63<88 266 138 258> 11 69<119.5 285 152 266> 163 60<140 222 170.5 201> 415 61<170.5 209 150 222> 526 80<196 226 196 226 150 226>
VStem: 11 73<-58 -28 -58 -27.5> 34 76<109.5 132.5 109.5 137> 45 73<293 348.5 288 367.5> 150 76<526 600 600 600> 276 73<289.5 342 271 350> 321 73<-58 -28> 322 63<512 540>
LayerCount: 2
Fore
SplineSet
226 606 m 1,0,-1
 226 526 l 1,1,-1
 150 526 l 1,2,-1
 150 600 l 1,3,-1
 177 669 l 1,4,-1
 216 669 l 1,5,-1
 196 606 l 1,6,-1
 226 606 l 1,0,-1
385 540 m 1,7,8
 385 498 385 498 364.5 468 c 128,-1,9
 344 438 344 438 308 429 c 1,10,11
 349 385 349 385 349 316 c 0,12,13
 349 247 349 247 309 205.5 c 128,-1,14
 269 164 269 164 201 163 c 1,15,-1
 152 163 l 2,16,17
 134 163 134 163 122 150.5 c 128,-1,18
 110 138 110 138 110 121 c 128,-1,19
 110 104 110 104 122.5 92 c 128,-1,20
 135 80 135 80 152 80 c 2,21,-1
 285 80 l 2,22,23
 334 80 334 80 364 48.5 c 128,-1,24
 394 17 394 17 394 -35 c 0,25,26
 394 -87 394 -87 358.5 -124 c 128,-1,27
 323 -161 323 -161 258 -161 c 2,28,-1
 126 -161 l 2,29,30
 71 -161 71 -161 41 -129.5 c 128,-1,31
 11 -98 11 -98 11 -57 c 0,32,33
 11 -16 11 -16 27.5 11 c 128,-1,34
 44 38 44 38 72 49 c 1,35,36
 34 73 34 73 34 118 c 0,37,38
 34 176 34 176 99 199 c 1,39,40
 45 242 45 242 45 317 c 0,41,42
 45 392 45 392 86 434 c 128,-1,43
 127 476 127 476 197 476 c 0,44,45
 232 476 232 476 264 459 c 1,46,47
 312 484 312 484 322 540 c 1,48,-1
 385 540 l 1,7,8
196 415 m 0,49,50
 158 415 158 415 138 389.5 c 128,-1,51
 118 364 118 364 118 319 c 0,52,53
 118 223 118 223 196 223 c 0,54,55
 234 223 234 223 255 248.5 c 128,-1,56
 276 274 276 274 276 319 c 0,57,58
 276 415 276 415 196 415 c 0,49,50
138 11 m 2,59,60
 111 11 111 11 97.5 -4 c 128,-1,61
 84 -19 84 -19 84 -43 c 128,-1,62
 84 -67 84 -67 98 -82.5 c 128,-1,63
 112 -98 112 -98 138 -98 c 2,64,-1
 266 -98 l 2,65,66
 289 -98 289 -98 305 -82 c 128,-1,67
 321 -66 321 -66 321 -42.5 c 0,68,69
 321 -19 321 -19 307 -4 c 128,-1,70
 293 11 293 11 266 11 c 2,71,-1
 138 11 l 2,59,60
EndSplineSet
EndChar

StartChar: gdotaccent
Encoding: 289 289 168
Width: 403
Flags: MW
HStem: -161 63<88 266 138 258> 11 69<119.5 285 152 266> 163 60<140 222 170.5 201> 415 61<170.5 209 150 222> 555 84<164 240 164 240>
VStem: 11 73<-58 -28 -58 -27.5> 34 76<109.5 132.5 109.5 137> 45 73<293 348.5 288 367.5> 164 76<555 639 555 639> 276 73<289.5 342 271 350> 321 73<-58 -28> 322 63<512 540>
LayerCount: 2
Fore
SplineSet
164 639 m 1,0,-1
 240 639 l 1,1,-1
 240 555 l 1,2,-1
 164 555 l 1,3,-1
 164 639 l 1,0,-1
385 540 m 1,4,5
 385 498 385 498 364.5 468 c 128,-1,6
 344 438 344 438 308 429 c 1,7,8
 349 385 349 385 349 316 c 0,9,10
 349 247 349 247 309 205.5 c 128,-1,11
 269 164 269 164 201 163 c 1,12,-1
 152 163 l 2,13,14
 134 163 134 163 122 150.5 c 128,-1,15
 110 138 110 138 110 121 c 128,-1,16
 110 104 110 104 122.5 92 c 128,-1,17
 135 80 135 80 152 80 c 2,18,-1
 285 80 l 2,19,20
 334 80 334 80 364 48.5 c 128,-1,21
 394 17 394 17 394 -35 c 0,22,23
 394 -87 394 -87 358.5 -124 c 128,-1,24
 323 -161 323 -161 258 -161 c 2,25,-1
 126 -161 l 2,26,27
 71 -161 71 -161 41 -129.5 c 128,-1,28
 11 -98 11 -98 11 -57 c 0,29,30
 11 -16 11 -16 27.5 11 c 128,-1,31
 44 38 44 38 72 49 c 1,32,33
 34 73 34 73 34 118 c 0,34,35
 34 176 34 176 99 199 c 1,36,37
 45 242 45 242 45 317 c 0,38,39
 45 392 45 392 86 434 c 128,-1,40
 127 476 127 476 197 476 c 0,41,42
 232 476 232 476 264 459 c 1,43,44
 312 484 312 484 322 540 c 1,45,-1
 385 540 l 1,4,5
196 415 m 0,46,47
 158 415 158 415 138 389.5 c 128,-1,48
 118 364 118 364 118 319 c 0,49,50
 118 223 118 223 196 223 c 0,51,52
 234 223 234 223 255 248.5 c 128,-1,53
 276 274 276 274 276 319 c 0,54,55
 276 415 276 415 196 415 c 0,46,47
138 11 m 2,56,57
 111 11 111 11 97.5 -4 c 128,-1,58
 84 -19 84 -19 84 -43 c 128,-1,59
 84 -67 84 -67 98 -82.5 c 128,-1,60
 112 -98 112 -98 138 -98 c 2,61,-1
 266 -98 l 2,62,63
 289 -98 289 -98 305 -82 c 128,-1,64
 321 -66 321 -66 321 -42.5 c 0,65,66
 321 -19 321 -19 307 -4 c 128,-1,67
 293 11 293 11 266 11 c 2,68,-1
 138 11 l 2,56,57
EndSplineSet
EndChar

StartChar: h
Encoding: 104 104 169
Width: 403
Flags: MW
HStem: 411 65<212 231.5> 619 20G<53 126 126 126>
VStem: 53 73<0 284 416 639> 278 72<0 330 330 335 0 362>
LayerCount: 2
Fore
SplineSet
131 416 m 1,0,1
 165 476 165 476 235 476 c 0,2,3
 350 476 350 476 350 335 c 2,4,-1
 350 0 l 1,5,-1
 278 0 l 1,6,-1
 278 330 l 2,7,8
 278 375 278 375 261 393 c 128,-1,9
 244 411 244 411 210 411 c 0,10,11
 176 411 176 411 151 376.5 c 128,-1,12
 126 342 126 342 126 284 c 2,13,-1
 126 0 l 1,14,-1
 53 0 l 1,15,-1
 53 639 l 1,16,-1
 126 639 l 1,17,-1
 126 416 l 1,18,-1
 131 416 l 1,0,1
EndSplineSet
EndChar

StartChar: hbar
Encoding: 295 295 170
Width: 403
Flags: MW
HStem: 411 65<212 231.5> 515 60<0 53 0 53 126 221> 515 124<0 126 0 126 53 221 53 126>
VStem: 53 73<0 284 416 515 575 639> 278 72<0 330 330 335 0 362>
LayerCount: 2
Fore
SplineSet
221 575 m 1,0,-1
 221 515 l 1,1,-1
 126 515 l 1,2,-1
 126 416 l 1,3,-1
 131 416 l 1,4,5
 165 476 165 476 235 476 c 0,6,7
 350 476 350 476 350 335 c 2,8,-1
 350 0 l 1,9,-1
 278 0 l 1,10,-1
 278 330 l 2,11,12
 278 375 278 375 261 393 c 128,-1,13
 244 411 244 411 210 411 c 0,14,15
 176 411 176 411 151 376.5 c 128,-1,16
 126 342 126 342 126 284 c 2,17,-1
 126 0 l 1,18,-1
 53 0 l 1,19,-1
 53 515 l 1,20,-1
 0 515 l 1,21,-1
 0 575 l 1,22,-1
 53 575 l 1,23,-1
 53 639 l 1,24,-1
 126 639 l 1,25,-1
 126 575 l 1,26,-1
 221 575 l 1,0,-1
EndSplineSet
EndChar

StartChar: hcircumflex
Encoding: 293 293 171
Width: 403
Flags: MW
HStem: 411 65<212 231.5> 619 20G<53 126 126 126> 660 120<-19 126 -19 126 57 131 57 202>
VStem: 53 73<0 284 416 639> 278 72<0 330 330 335 0 362>
LayerCount: 2
Fore
SplineSet
92 730 m 1,0,-1
 52 660 l 1,1,-1
 -19 660 l 1,2,-1
 57 780 l 1,3,-1
 126 780 l 1,4,-1
 202 660 l 1,5,-1
 131 660 l 1,6,-1
 92 730 l 1,0,-1
131 416 m 1,7,8
 165 476 165 476 235 476 c 0,9,10
 350 476 350 476 350 335 c 2,11,-1
 350 0 l 1,12,-1
 278 0 l 1,13,-1
 278 330 l 2,14,15
 278 375 278 375 261 393 c 128,-1,16
 244 411 244 411 210 411 c 0,17,18
 176 411 176 411 151 376.5 c 128,-1,19
 126 342 126 342 126 284 c 2,20,-1
 126 0 l 1,21,-1
 53 0 l 1,22,-1
 53 639 l 1,23,-1
 126 639 l 1,24,-1
 126 416 l 1,25,-1
 131 416 l 1,7,8
EndSplineSet
EndChar

StartChar: i
Encoding: 105 105 172
Width: 161
Flags: MW
HStem: 445 20G<44 117 117 117> 552 87<44 117 44 117>
VStem: 44 73<0 465 0 465 552 639>
LayerCount: 2
Fore
SplineSet
44 639 m 1,0,-1
 117 639 l 1,1,-1
 117 552 l 1,2,-1
 44 552 l 1,3,-1
 44 639 l 1,0,-1
44 465 m 1,4,-1
 117 465 l 1,5,-1
 117 0 l 1,6,-1
 44 0 l 1,7,-1
 44 465 l 1,4,-1
EndSplineSet
EndChar

StartChar: dotlessi
Encoding: 305 305 173
Width: 202
Flags: MW
HStem: 445 20G<65 137 137 137>
VStem: 65 72<0 465 0 465>
LayerCount: 2
Fore
SplineSet
65 465 m 1,0,-1
 137 465 l 1,1,-1
 137 0 l 1,2,-1
 65 0 l 1,3,-1
 65 465 l 1,0,-1
EndSplineSet
EndChar

StartChar: iacute
Encoding: 237 237 174
Width: 202
Flags: MW
HStem: 445 20G<65 137 137 137> 522 117<49 203 49 203>
VStem: 65 72<0 465 0 465>
LayerCount: 2
Fore
SplineSet
110 522 m 1,0,-1
 49 522 l 1,1,-1
 125 639 l 1,2,-1
 203 639 l 1,3,-1
 204 636 l 1,4,-1
 110 522 l 1,0,-1
65 0 m 1,5,-1
 65 465 l 1,6,-1
 137 465 l 1,7,-1
 137 0 l 1,8,-1
 65 0 l 1,5,-1
EndSplineSet
EndChar

StartChar: ibreve
Encoding: 301 301 175
Width: 202
Flags: MW
HStem: 445 20G<65 137 137 137> 553 57<86.5 116 86.5 135> 553 86<-9 135>
VStem: 65 72<0 465 0 465>
LayerCount: 2
Fore
SplineSet
210 639 m 1,0,1
 210 607 210 607 179.5 580 c 128,-1,2
 149 553 149 553 101 553 c 128,-1,3
 53 553 53 553 22 580 c 128,-1,4
 -9 607 -9 607 -9 639 c 1,5,-1
 49 639 l 1,6,7
 51 629 51 629 66 619.5 c 128,-1,8
 81 610 81 610 101.5 610 c 0,9,10
 122 610 122 610 137 619.5 c 128,-1,11
 152 629 152 629 154 639 c 1,12,-1
 210 639 l 1,0,1
65 465 m 1,13,-1
 137 465 l 1,14,-1
 137 0 l 1,15,-1
 65 0 l 1,16,-1
 65 465 l 1,13,-1
EndSplineSet
EndChar

StartChar: icircumflex
Encoding: 238 238 176
Width: 202
Flags: MW
HStem: 445 20G<65 137 137 137> 519 119<-10 136 -10 136 67 141 67 211>
VStem: 65 72<0 465 0 465>
LayerCount: 2
Fore
SplineSet
102 589 m 1,0,-1
 62 519 l 1,1,-1
 -10 519 l 1,2,-1
 67 638 l 1,3,-1
 136 638 l 1,4,-1
 211 519 l 1,5,-1
 141 519 l 1,6,-1
 102 589 l 1,0,-1
65 465 m 1,7,-1
 137 465 l 1,8,-1
 137 0 l 1,9,-1
 65 0 l 1,10,-1
 65 465 l 1,7,-1
EndSplineSet
EndChar

StartChar: idieresis
Encoding: 239 239 177
Width: 202
Flags: MW
HStem: 445 20G<65 137 137 137> 555 84<-4 73 -4 73 129 206 -4 129>
VStem: -4 77<555 639 555 639> 65 72<0 465 0 465> 129 77<555 639 555 639>
LayerCount: 2
Fore
SplineSet
-4 555 m 1,0,-1
 -4 639 l 1,1,-1
 73 639 l 1,2,-1
 73 555 l 1,3,-1
 -4 555 l 1,0,-1
129 555 m 1,4,-1
 129 639 l 1,5,-1
 206 639 l 1,6,-1
 206 555 l 1,7,-1
 129 555 l 1,4,-1
65 0 m 1,8,-1
 65 465 l 1,9,-1
 137 465 l 1,10,-1
 137 0 l 1,11,-1
 65 0 l 1,8,-1
EndSplineSet
EndChar

StartChar: igrave
Encoding: 236 236 178
Width: 202
Flags: MW
HStem: 445 20G<65 137 137 137> 522 117<-2 93 -2 154>
VStem: 65 72<0 465 0 465>
LayerCount: 2
Fore
SplineSet
93 522 m 1,0,-1
 -3 636 l 1,1,-1
 -2 639 l 1,2,-1
 78 639 l 1,3,-1
 154 522 l 1,4,-1
 93 522 l 1,0,-1
65 0 m 1,5,-1
 65 465 l 1,6,-1
 137 465 l 1,7,-1
 137 0 l 1,8,-1
 65 0 l 1,5,-1
EndSplineSet
EndChar

StartChar: ij
Encoding: 307 307 179
Width: 322
Flags: MW
HStem: -161 61<175 177.5 125 221> 445 20G<44 117 117 117 205 278 278 278> 552 87<44 117 44 117 205 278>
VStem: 44 73<0 465 0 465 552 639> 205 73<-57 -54 -54 465 552 639>
LayerCount: 2
Fore
SplineSet
44 552 m 1,0,-1
 44 639 l 1,1,-1
 117 639 l 1,2,-1
 117 552 l 1,3,-1
 44 552 l 1,0,-1
205 552 m 1,4,-1
 205 639 l 1,5,-1
 278 639 l 1,6,-1
 278 552 l 1,7,-1
 205 552 l 1,4,-1
44 0 m 1,8,-1
 44 465 l 1,9,-1
 117 465 l 1,10,-1
 117 0 l 1,11,-1
 44 0 l 1,8,-1
278 -54 m 2,12,13
 278 -99 278 -99 256 -130 c 128,-1,14
 234 -161 234 -161 193 -161 c 0,15,16
 152 -161 152 -161 125 -150 c 1,17,-1
 125 -100 l 1,18,-1
 164 -100 l 2,19,20
 205 -100 205 -100 205 -57 c 2,21,-1
 205 465 l 1,22,-1
 278 465 l 1,23,-1
 278 -54 l 2,12,13
EndSplineSet
EndChar

StartChar: imacron
Encoding: 299 299 180
Width: 202
Flags: MW
HStem: 445 20G<65 137 137 137> 530 63<-10 212 -10 212>
VStem: 65 72<0 465 0 465>
LayerCount: 2
Fore
SplineSet
-10 593 m 1,0,-1
 212 593 l 1,1,-1
 212 530 l 1,2,-1
 -10 530 l 1,3,-1
 -10 593 l 1,0,-1
65 465 m 1,4,-1
 137 465 l 1,5,-1
 137 0 l 1,6,-1
 65 0 l 1,7,-1
 65 465 l 1,4,-1
EndSplineSet
EndChar

StartChar: iogonek
Encoding: 303 303 181
Width: 161
Flags: MW
HStem: -161 58<91 164> 445 20G<44 117 117 117> 555 84<42 120 42 120>
VStem: 42 78<555 639 555 639> 44 73<0 465>
LayerCount: 2
Fore
SplineSet
42 555 m 1,0,-1
 42 639 l 1,1,-1
 120 639 l 1,2,-1
 120 555 l 1,3,-1
 42 555 l 1,0,-1
117 0 m 1,4,5
 95 -29 95 -29 95 -55 c 0,6,7
 95 -103 95 -103 135 -103 c 2,8,-1
 164 -103 l 1,9,-1
 164 -149 l 1,10,11
 131 -161 131 -161 103.5 -161 c 0,12,13
 76 -161 76 -161 51.5 -142 c 128,-1,14
 27 -123 27 -123 27 -79.5 c 0,15,16
 27 -36 27 -36 59 0 c 1,17,-1
 44 0 l 1,18,-1
 44 465 l 1,19,-1
 117 465 l 1,20,-1
 117 0 l 1,4,5
EndSplineSet
EndChar

StartChar: itilde
Encoding: 297 297 182
Width: 202
Flags: MW
HStem: 445 20G<65 137 137 137> 547 65<136 156.5 131.5 181.5> 575 64<45 66 20.5 70.5>
VStem: 65 72<0 465 0 465>
LayerCount: 2
Fore
SplineSet
230 639 m 1,0,1
 230 604 230 604 211 575.5 c 128,-1,2
 192 547 192 547 155 547 c 0,3,4
 136 547 136 547 103 561 c 128,-1,5
 70 575 70 575 53 575 c 0,6,7
 27 575 27 575 23 547 c 1,8,-1
 -28 547 l 1,9,10
 -28 582 -28 582 -9 610.5 c 128,-1,11
 10 639 10 639 47 639 c 0,12,13
 66 639 66 639 99 625.5 c 128,-1,14
 132 612 132 612 149 612 c 0,15,16
 175 612 175 612 179 639 c 1,17,-1
 230 639 l 1,0,1
65 465 m 1,18,-1
 137 465 l 1,19,-1
 137 0 l 1,20,-1
 65 0 l 1,21,-1
 65 465 l 1,18,-1
EndSplineSet
EndChar

StartChar: j
Encoding: 106 106 183
Width: 161
Flags: MW
HStem: -161 61<14.5 16.5 -36 60> 445 20G<44 117 117 117> 552 87<44 117 44 117>
VStem: 44 73<-57 -54 -54 465 552 639>
LayerCount: 2
Fore
SplineSet
44 639 m 1,0,-1
 117 639 l 1,1,-1
 117 552 l 1,2,-1
 44 552 l 1,3,-1
 44 639 l 1,0,-1
117 -54 m 2,4,5
 117 -99 117 -99 95 -130 c 128,-1,6
 73 -161 73 -161 32.5 -161 c 0,7,8
 -8 -161 -8 -161 -36 -150 c 1,9,-1
 -36 -100 l 1,10,-1
 3 -100 l 2,11,12
 44 -100 44 -100 44 -57 c 2,13,-1
 44 465 l 1,14,-1
 117 465 l 1,15,-1
 117 -54 l 2,4,5
EndSplineSet
EndChar

StartChar: jcircumflex
Encoding: 309 309 184
Width: 161
Flags: MW
HStem: -161 61<14.5 16.5 -36 60> 445 20G<44 117 117 117> 519 119<-30 115 -30 115 46 120 46 191>
VStem: 44 73<-57 -54 -54 465>
LayerCount: 2
Fore
SplineSet
81 589 m 1,0,-1
 41 519 l 1,1,-1
 -30 519 l 1,2,-1
 46 638 l 1,3,-1
 115 638 l 1,4,-1
 191 519 l 1,5,-1
 120 519 l 1,6,-1
 81 589 l 1,0,-1
117 -54 m 2,7,8
 117 -99 117 -99 95 -130 c 128,-1,9
 73 -161 73 -161 32.5 -161 c 0,10,11
 -8 -161 -8 -161 -36 -150 c 1,12,-1
 -36 -100 l 1,13,-1
 3 -100 l 2,14,15
 44 -100 44 -100 44 -57 c 2,16,-1
 44 465 l 1,17,-1
 117 465 l 1,18,-1
 117 -54 l 2,7,8
EndSplineSet
EndChar

StartChar: k
Encoding: 107 107 185
Width: 362
Flags: MW
HStem: 445 20G<276 356 356 356> 619 20G<53 126 126 126>
VStem: 53 73<0 158 249 639>
LayerCount: 2
Fore
SplineSet
356 465 m 1,0,-1
 219 274 l 1,1,-1
 363 0 l 1,2,-1
 281 0 l 1,3,-1
 175 212 l 1,4,-1
 126 158 l 1,5,-1
 126 0 l 1,6,-1
 53 0 l 1,7,-1
 53 639 l 1,8,-1
 126 639 l 1,9,-1
 126 249 l 1,10,-1
 276 465 l 1,11,-1
 356 465 l 1,0,-1
EndSplineSet
EndChar

StartChar: kcommaaccent
Encoding: 311 311 186
Width: 362
Flags: MW
HStem: -133 80<144 174 144 219> 445 20G<276 356 356 356> 619 20G<53 126 126 126>
VStem: 53 73<0 158 249 639> 144 75<-127 -53 -127 -53 -127 -53>
LayerCount: 2
Fore
SplineSet
356 465 m 1,0,-1
 219 274 l 1,1,-1
 363 0 l 1,2,-1
 281 0 l 1,3,-1
 175 212 l 1,4,-1
 126 158 l 1,5,-1
 126 0 l 1,6,-1
 53 0 l 1,7,-1
 53 639 l 1,8,-1
 126 639 l 1,9,-1
 126 249 l 1,10,-1
 276 465 l 1,11,-1
 356 465 l 1,0,-1
154 -196 m 1,12,-1
 174 -133 l 1,13,-1
 144 -133 l 1,14,-1
 144 -53 l 1,15,-1
 219 -53 l 1,16,-1
 219 -127 l 1,17,-1
 194 -196 l 1,18,-1
 154 -196 l 1,12,-1
EndSplineSet
EndChar

StartChar: kgreenlandic
Encoding: 312 312 187
Width: 361
Flags: MW
HStem: 445 20G<53 126 126 126 276 356 356 356>
VStem: 53 73<0 158 249 465>
LayerCount: 2
Fore
SplineSet
281 0 m 1,0,-1
 175 212 l 1,1,-1
 126 158 l 1,2,-1
 126 0 l 1,3,-1
 53 0 l 1,4,-1
 53 465 l 1,5,-1
 126 465 l 1,6,-1
 126 249 l 1,7,-1
 276 465 l 1,8,-1
 356 465 l 1,9,-1
 219 274 l 1,10,-1
 363 0 l 1,11,-1
 281 0 l 1,0,-1
EndSplineSet
EndChar

StartChar: l
Encoding: 108 108 188
Width: 161
Flags: MW
HStem: 619 20G<44 117 117 117>
VStem: 44 73<0 639 0 639>
LayerCount: 2
Fore
SplineSet
44 639 m 1,0,-1
 117 639 l 1,1,-1
 117 0 l 1,2,-1
 44 0 l 1,3,-1
 44 639 l 1,0,-1
EndSplineSet
EndChar

StartChar: lacute
Encoding: 314 314 189
Width: 161
Flags: MW
HStem: 619 20G<44 117 117 117> 664 117<28 184 28 184>
VStem: 44 73<0 639 0 639>
LayerCount: 2
Fore
SplineSet
89 664 m 1,0,-1
 28 664 l 1,1,-1
 104 781 l 1,2,-1
 184 781 l 1,3,-1
 184 778 l 1,4,-1
 89 664 l 1,0,-1
44 0 m 1,5,-1
 44 639 l 1,6,-1
 117 639 l 1,7,-1
 117 0 l 1,8,-1
 44 0 l 1,5,-1
EndSplineSet
EndChar

StartChar: lcaron
Encoding: 318 318 190
Width: 211
Flags: MW
HStem: 511 95<152 187 152 240> 511 128<44 187 44 152>
VStem: 44 73<0 639 0 639> 152 88<519 606 519 606 519 606>
LayerCount: 2
Fore
SplineSet
44 639 m 1,0,-1
 117 639 l 1,1,-1
 117 0 l 1,2,-1
 44 0 l 1,3,-1
 44 639 l 1,0,-1
152 401 m 1,4,-1
 187 511 l 1,5,-1
 152 511 l 1,6,-1
 152 606 l 1,7,-1
 240 606 l 1,8,-1
 240 519 l 1,9,-1
 198 401 l 1,10,-1
 152 401 l 1,4,-1
EndSplineSet
EndChar

StartChar: lcommaaccent
Encoding: 316 316 191
Width: 161
Flags: MW
HStem: -133 80<43 73 43 118> 619 20G<44 117 117 117>
VStem: 44 73<0 639 0 639>
LayerCount: 2
Fore
SplineSet
44 639 m 1,0,-1
 117 639 l 1,1,-1
 117 0 l 1,2,-1
 44 0 l 1,3,-1
 44 639 l 1,0,-1
54 -196 m 1,4,-1
 73 -133 l 1,5,-1
 43 -133 l 1,6,-1
 43 -53 l 1,7,-1
 118 -53 l 1,8,-1
 118 -127 l 1,9,-1
 93 -196 l 1,10,-1
 54 -196 l 1,4,-1
EndSplineSet
EndChar

StartChar: ldot
Encoding: 320 320 192
Width: 286
Flags: MW
HStem: 255 98<152 241 152 241> 619 20G<44 117 117 117>
VStem: 44 73<0 639 0 639> 152 89<255 353 255 353>
LayerCount: 2
Fore
SplineSet
44 639 m 1,0,-1
 117 639 l 1,1,-1
 117 0 l 1,2,-1
 44 0 l 1,3,-1
 44 639 l 1,0,-1
152 353 m 1,4,-1
 241 353 l 1,5,-1
 241 255 l 1,6,-1
 152 255 l 1,7,-1
 152 353 l 1,4,-1
EndSplineSet
Ligature2: "Ligature Substitution lookup 13 subtable" l periodcentered
EndChar

StartChar: lslash
Encoding: 322 322 193
Width: 161
Flags: MW
HStem: 619 20G<44 117 117 117>
VStem: 44 73<0 217 217 217 281 282 0 346 346 639>
LayerCount: 2
Fore
SplineSet
194 350 m 1,0,-1
 117 282 l 1,1,-1
 117 0 l 1,2,-1
 44 0 l 1,3,-1
 44 217 l 1,4,-1
 -19 163 l 1,5,-1
 -19 225 l 1,6,-1
 44 281 l 1,7,-1
 44 639 l 1,8,-1
 117 639 l 1,9,-1
 117 346 l 1,10,-1
 194 414 l 1,11,-1
 194 350 l 1,0,-1
EndSplineSet
EndChar

StartChar: m
Encoding: 109 109 194
Width: 604
Flags: MW
HStem: 411 65<207 223 419 435.5> 445 20G<53 108 108 108>
VStem: 53 73<0 284 0 465> 266 73<0 284 0 330 0 362> 478 73<0 330 330 335 0 362>
LayerCount: 2
Fore
SplineSet
123 411 m 1,0,1
 158 476 158 476 231 476 c 0,2,3
 304 476 304 476 328 408 c 1,4,5
 366 476 366 476 441 476 c 0,6,7
 551 476 551 476 551 335 c 2,8,-1
 551 0 l 1,9,-1
 478 0 l 1,10,-1
 478 330 l 2,11,12
 478 411 478 411 418 411 c 0,13,14
 385 411 385 411 362 376.5 c 128,-1,15
 339 342 339 342 339 284 c 2,16,-1
 339 0 l 1,17,-1
 266 0 l 1,18,-1
 266 330 l 2,19,20
 266 411 266 411 206 411 c 0,21,22
 172 411 172 411 149 376.5 c 128,-1,23
 126 342 126 342 126 284 c 2,24,-1
 126 0 l 1,25,-1
 53 0 l 1,26,-1
 53 465 l 1,27,-1
 108 465 l 1,28,-1
 118 411 l 1,29,-1
 123 411 l 1,0,1
EndSplineSet
EndChar

StartChar: n
Encoding: 110 110 195
Width: 403
Flags: MW
HStem: 411 65<212 231.5> 445 20G<53 108 108 108>
VStem: 53 73<0 284 0 465> 278 72<0 330 330 335 0 362>
LayerCount: 2
Fore
SplineSet
123 411 m 1,0,1
 160 476 160 476 235 476 c 0,2,3
 350 476 350 476 350 335 c 2,4,-1
 350 0 l 1,5,-1
 278 0 l 1,6,-1
 278 330 l 2,7,8
 278 375 278 375 261 393 c 128,-1,9
 244 411 244 411 210 411 c 0,10,11
 176 411 176 411 151 376.5 c 128,-1,12
 126 342 126 342 126 284 c 2,13,-1
 126 0 l 1,14,-1
 53 0 l 1,15,-1
 53 465 l 1,16,-1
 108 465 l 1,17,-1
 118 411 l 1,18,-1
 123 411 l 1,0,1
EndSplineSet
Substitution2: "'sups' Superscript lookup 4 subtable" nsuperior
Substitution2: "'aalt' Access All Alternates lookup 0 subtable" nsuperior
EndChar

StartChar: nacute
Encoding: 324 324 196
Width: 403
Flags: MW
HStem: 411 65<212 231.5> 445 20G<53 108 108 108> 522 117<149 304 149 304>
VStem: 53 73<0 284 0 465> 278 72<0 330 330 335 0 362>
LayerCount: 2
Fore
SplineSet
210 522 m 1,0,-1
 149 522 l 1,1,-1
 225 639 l 1,2,-1
 304 639 l 1,3,-1
 305 636 l 1,4,-1
 210 522 l 1,0,-1
123 411 m 1,5,6
 160 476 160 476 235 476 c 0,7,8
 350 476 350 476 350 335 c 2,9,-1
 350 0 l 1,10,-1
 278 0 l 1,11,-1
 278 330 l 2,12,13
 278 375 278 375 261 393 c 128,-1,14
 244 411 244 411 210 411 c 0,15,16
 176 411 176 411 151 376.5 c 128,-1,17
 126 342 126 342 126 284 c 2,18,-1
 126 0 l 1,19,-1
 53 0 l 1,20,-1
 53 465 l 1,21,-1
 108 465 l 1,22,-1
 118 411 l 1,23,-1
 123 411 l 1,5,6
EndSplineSet
EndChar

StartChar: napostrophe
Encoding: 329 329 197
Width: 507
Flags: MW
HStem: 411 65<316 334.5> 445 20G<156 211 211 211> 525 81<42 72 42 118>
VStem: 42 76<531 606 531 606 531 606> 156 73<0 284 0 465> 381 72<0 330 330 335 0 362>
LayerCount: 2
Fore
SplineSet
92 462 m 1,0,-1
 52 462 l 1,1,-1
 72 525 l 1,2,-1
 42 525 l 1,3,-1
 42 606 l 1,4,-1
 118 606 l 1,5,-1
 118 531 l 1,6,-1
 92 462 l 1,0,-1
226 411 m 1,7,8
 263 476 263 476 339 476 c 0,9,10
 453 476 453 476 453 335 c 2,11,-1
 453 0 l 1,12,-1
 381 0 l 1,13,-1
 381 330 l 2,14,15
 381 375 381 375 364 393 c 128,-1,16
 347 411 347 411 313.5 411 c 0,17,18
 280 411 280 411 254.5 376.5 c 128,-1,19
 229 342 229 342 229 284 c 2,20,-1
 229 0 l 1,21,-1
 156 0 l 1,22,-1
 156 465 l 1,23,-1
 211 465 l 1,24,-1
 221 411 l 1,25,-1
 226 411 l 1,7,8
EndSplineSet
EndChar

StartChar: ncaron
Encoding: 328 328 198
Width: 403
Flags: MW
HStem: 411 65<212 231.5> 445 20G<53 108 108 108> 520 119<92 236 92 166>
VStem: 53 73<0 284 0 465> 278 72<0 330 330 335 0 362>
LayerCount: 2
Fore
SplineSet
92 639 m 1,0,-1
 163 639 l 1,1,-1
 202 569 l 1,2,-1
 241 639 l 1,3,-1
 312 639 l 1,4,-1
 236 520 l 1,5,-1
 166 520 l 1,6,-1
 92 639 l 1,0,-1
123 411 m 1,7,8
 160 476 160 476 235 476 c 0,9,10
 350 476 350 476 350 335 c 2,11,-1
 350 0 l 1,12,-1
 278 0 l 1,13,-1
 278 330 l 2,14,15
 278 375 278 375 261 393 c 128,-1,16
 244 411 244 411 210 411 c 0,17,18
 176 411 176 411 151 376.5 c 128,-1,19
 126 342 126 342 126 284 c 2,20,-1
 126 0 l 1,21,-1
 53 0 l 1,22,-1
 53 465 l 1,23,-1
 108 465 l 1,24,-1
 118 411 l 1,25,-1
 123 411 l 1,7,8
EndSplineSet
EndChar

StartChar: ncommaaccent
Encoding: 326 326 199
Width: 403
Flags: MW
HStem: -133 80<164 194 164 240> 411 65<212 231.5> 445 20G<53 108 108 108>
VStem: 53 73<0 284 0 465> 164 76<-127 -53 -127 -53 -127 -53> 278 72<0 330 330 335 0 362>
LayerCount: 2
Fore
SplineSet
123 411 m 1,0,1
 160 476 160 476 235 476 c 0,2,3
 350 476 350 476 350 335 c 2,4,-1
 350 0 l 1,5,-1
 278 0 l 1,6,-1
 278 330 l 2,7,8
 278 375 278 375 261 393 c 128,-1,9
 244 411 244 411 210 411 c 0,10,11
 176 411 176 411 151 376.5 c 128,-1,12
 126 342 126 342 126 284 c 2,13,-1
 126 0 l 1,14,-1
 53 0 l 1,15,-1
 53 465 l 1,16,-1
 108 465 l 1,17,-1
 118 411 l 1,18,-1
 123 411 l 1,0,1
174 -196 m 1,19,-1
 194 -133 l 1,20,-1
 164 -133 l 1,21,-1
 164 -53 l 1,22,-1
 240 -53 l 1,23,-1
 240 -127 l 1,24,-1
 214 -196 l 1,25,-1
 174 -196 l 1,19,-1
EndSplineSet
EndChar

StartChar: eng
Encoding: 331 331 200
Width: 403
Flags: MW
HStem: -161 61<247.5 249.5 197 293.5> 411 65<212 231.5> 445 20G<53 108 108 108>
VStem: 53 73<0 284 0 465> 278 72<-57 -54 -54 330 330 335>
LayerCount: 2
Fore
SplineSet
123 411 m 1,0,1
 160 476 160 476 235 476 c 0,2,3
 350 476 350 476 350 335 c 2,4,-1
 350 -54 l 2,5,6
 350 -100 350 -100 328.5 -130.5 c 128,-1,7
 307 -161 307 -161 266 -161 c 0,8,9
 225 -161 225 -161 197 -150 c 1,10,-1
 197 -100 l 1,11,-1
 236 -100 l 2,12,13
 278 -100 278 -100 278 -57 c 2,14,-1
 278 330 l 2,15,16
 278 375 278 375 261 393 c 128,-1,17
 244 411 244 411 210 411 c 0,18,19
 176 411 176 411 151 376.5 c 128,-1,20
 126 342 126 342 126 284 c 2,21,-1
 126 0 l 1,22,-1
 53 0 l 1,23,-1
 53 465 l 1,24,-1
 108 465 l 1,25,-1
 118 411 l 1,26,-1
 123 411 l 1,0,1
EndSplineSet
EndChar

StartChar: ntilde
Encoding: 241 241 201
Width: 403
Flags: MW
HStem: 411 65<212 231.5> 445 20G<53 108 108 108> 547 65<236 257 232 282> 575 64<146 167 121.5 171>
VStem: 53 73<0 284 0 465> 278 72<0 330 330 335 0 362>
LayerCount: 2
Fore
SplineSet
331 639 m 1,0,1
 331 604 331 604 311.5 575.5 c 128,-1,2
 292 547 292 547 255 547 c 0,3,4
 236 547 236 547 203 561 c 128,-1,5
 170 575 170 575 154 575 c 0,6,7
 127 575 127 575 124 547 c 1,8,-1
 72 547 l 1,9,10
 72 582 72 582 91.5 610.5 c 128,-1,11
 111 639 111 639 148 639 c 0,12,13
 168 639 168 639 200 625.5 c 128,-1,14
 232 612 232 612 249 612 c 0,15,16
 276 612 276 612 279 639 c 1,17,-1
 331 639 l 1,0,1
123 411 m 1,18,19
 160 476 160 476 235 476 c 0,20,21
 350 476 350 476 350 335 c 2,22,-1
 350 0 l 1,23,-1
 278 0 l 1,24,-1
 278 330 l 2,25,26
 278 375 278 375 261 393 c 128,-1,27
 244 411 244 411 210 411 c 0,28,29
 176 411 176 411 151 376.5 c 128,-1,30
 126 342 126 342 126 284 c 2,31,-1
 126 0 l 1,32,-1
 53 0 l 1,33,-1
 53 465 l 1,34,-1
 108 465 l 1,35,-1
 118 411 l 1,36,-1
 123 411 l 1,18,19
EndSplineSet
EndChar

StartChar: o
Encoding: 111 111 202
Width: 403
Flags: MW
HStem: -11 65<171.5 232 171.5 256> 411 65<171.5 232>
VStem: 35 76<162.5 216 216 249 162.5 316> 292 76<216 249 249 302.5>
LayerCount: 2
Fore
SplineSet
201.5 476 m 0,0,1
 368 476 368 476 368 232.5 c 0,2,3
 368 -11 368 -11 201.5 -11 c 0,4,5
 35 -11 35 -11 35 232.5 c 0,6,7
 35 476 35 476 201.5 476 c 0,0,1
292 249 m 2,8,9
 292 411 292 411 201.5 411 c 0,10,11
 111 411 111 411 111 249 c 2,12,-1
 111 216 l 2,13,14
 111 54 111 54 201.5 54 c 0,15,16
 292 54 292 54 292 216 c 2,17,-1
 292 249 l 2,8,9
EndSplineSet
Substitution2: "Single Substitution lookup 14 subtable" ordmasculine
Substitution2: "'aalt' Access All Alternates lookup 0 subtable" ordmasculine
EndChar

StartChar: oacute
Encoding: 243 243 203
Width: 403
Flags: MW
HStem: -11 65<171.5 232 171.5 256> 411 65<171.5 232> 522 117<149 304 149 304>
VStem: 35 76<162.5 216 216 249 162.5 316> 292 76<216 249 249 302.5>
LayerCount: 2
Fore
SplineSet
210 522 m 1,0,-1
 149 522 l 1,1,-1
 225 639 l 1,2,-1
 304 639 l 1,3,-1
 305 636 l 1,4,-1
 210 522 l 1,0,-1
201.5 476 m 0,5,6
 368 476 368 476 368 232.5 c 0,7,8
 368 -11 368 -11 201.5 -11 c 0,9,10
 35 -11 35 -11 35 232.5 c 0,11,12
 35 476 35 476 201.5 476 c 0,5,6
292 249 m 2,13,14
 292 411 292 411 201.5 411 c 0,15,16
 111 411 111 411 111 249 c 2,17,-1
 111 216 l 2,18,19
 111 54 111 54 201.5 54 c 0,20,21
 292 54 292 54 292 216 c 2,22,-1
 292 249 l 2,13,14
EndSplineSet
EndChar

StartChar: obreve
Encoding: 335 335 204
Width: 403
Flags: MW
HStem: -11 65<171.5 232 171.5 256> 411 65<171.5 232> 553 57<186.5 217 186.5 236> 553 86<92 236>
VStem: 35 76<162.5 216 216 249 162.5 316> 292 76<216 249 249 302.5>
LayerCount: 2
Fore
SplineSet
311 639 m 1,0,1
 311 607 311 607 280.5 580 c 128,-1,2
 250 553 250 553 202 553 c 128,-1,3
 154 553 154 553 123 580 c 128,-1,4
 92 607 92 607 92 639 c 1,5,-1
 149 639 l 1,6,7
 152 629 152 629 166.5 619.5 c 128,-1,8
 181 610 181 610 202 610 c 128,-1,9
 223 610 223 610 238 619.5 c 128,-1,10
 253 629 253 629 255 639 c 1,11,-1
 311 639 l 1,0,1
201.5 476 m 0,12,13
 368 476 368 476 368 232.5 c 0,14,15
 368 -11 368 -11 201.5 -11 c 0,16,17
 35 -11 35 -11 35 232.5 c 0,18,19
 35 476 35 476 201.5 476 c 0,12,13
292 249 m 2,20,21
 292 411 292 411 201.5 411 c 0,22,23
 111 411 111 411 111 249 c 2,24,-1
 111 216 l 2,25,26
 111 54 111 54 201.5 54 c 0,27,28
 292 54 292 54 292 216 c 2,29,-1
 292 249 l 2,20,21
EndSplineSet
EndChar

StartChar: ocircumflex
Encoding: 244 244 205
Width: 403
Flags: MW
HStem: -11 65<171.5 232 171.5 256> 411 65<171.5 232> 519 119<92 237 92 237 167 241 167 312>
VStem: 35 76<162.5 216 216 249 162.5 316> 292 76<216 249 249 302.5>
LayerCount: 2
Fore
SplineSet
202 589 m 1,0,-1
 163 519 l 1,1,-1
 92 519 l 1,2,-1
 167 638 l 1,3,-1
 237 638 l 1,4,-1
 312 519 l 1,5,-1
 241 519 l 1,6,-1
 202 589 l 1,0,-1
201.5 476 m 0,7,8
 368 476 368 476 368 232.5 c 0,9,10
 368 -11 368 -11 201.5 -11 c 0,11,12
 35 -11 35 -11 35 232.5 c 0,13,14
 35 476 35 476 201.5 476 c 0,7,8
292 249 m 2,15,16
 292 411 292 411 201.5 411 c 0,17,18
 111 411 111 411 111 249 c 2,19,-1
 111 216 l 2,20,21
 111 54 111 54 201.5 54 c 0,22,23
 292 54 292 54 292 216 c 2,24,-1
 292 249 l 2,15,16
EndSplineSet
EndChar

StartChar: odieresis
Encoding: 246 246 206
Width: 403
Flags: MW
HStem: -11 65<171.5 232 171.5 256> 411 65<171.5 232> 555 84<96 173 96 173 229 307 96 229>
VStem: 35 76<162.5 216 216 249 162.5 316> 96 77<555 639 555 639> 229 78<555 639 555 639> 292 76<216 249 249 302.5>
LayerCount: 2
Fore
SplineSet
96 555 m 1,0,-1
 96 639 l 1,1,-1
 173 639 l 1,2,-1
 173 555 l 1,3,-1
 96 555 l 1,0,-1
229 555 m 1,4,-1
 229 639 l 1,5,-1
 307 639 l 1,6,-1
 307 555 l 1,7,-1
 229 555 l 1,4,-1
201.5 476 m 0,8,9
 368 476 368 476 368 232.5 c 0,10,11
 368 -11 368 -11 201.5 -11 c 0,12,13
 35 -11 35 -11 35 232.5 c 0,14,15
 35 476 35 476 201.5 476 c 0,8,9
292 249 m 2,16,17
 292 411 292 411 201.5 411 c 0,18,19
 111 411 111 411 111 249 c 2,20,-1
 111 216 l 2,21,22
 111 54 111 54 201.5 54 c 0,23,24
 292 54 292 54 292 216 c 2,25,-1
 292 249 l 2,16,17
EndSplineSet
EndChar

StartChar: ograve
Encoding: 242 242 207
Width: 403
Flags: MW
HStem: -11 65<171.5 232 171.5 256> 411 65<171.5 232> 522 117<98 194 98 255>
VStem: 35 76<162.5 216 216 249 162.5 316> 292 76<216 249 249 302.5>
LayerCount: 2
Fore
SplineSet
194 522 m 1,0,-1
 97 636 l 1,1,-1
 98 639 l 1,2,-1
 179 639 l 1,3,-1
 255 522 l 1,4,-1
 194 522 l 1,0,-1
201.5 476 m 0,5,6
 368 476 368 476 368 232.5 c 0,7,8
 368 -11 368 -11 201.5 -11 c 0,9,10
 35 -11 35 -11 35 232.5 c 0,11,12
 35 476 35 476 201.5 476 c 0,5,6
292 249 m 2,13,14
 292 411 292 411 201.5 411 c 0,15,16
 111 411 111 411 111 249 c 2,17,-1
 111 216 l 2,18,19
 111 54 111 54 201.5 54 c 0,20,21
 292 54 292 54 292 216 c 2,22,-1
 292 249 l 2,13,14
EndSplineSet
EndChar

StartChar: ohungarumlaut
Encoding: 337 337 208
Width: 403
Flags: MW
HStem: -11 65<171.5 232 171.5 256> 411 65<171.5 232> 522 117<117 251 171 178 232 251 287 293 232 232>
VStem: 35 76<162.5 216 216 249 162.5 316> 292 76<216 249 249 302.5>
LayerCount: 2
Fore
SplineSet
117 522 m 1,0,-1
 171 639 l 1,1,-1
 251 639 l 1,2,-1
 252 636 l 1,3,-1
 178 522 l 1,4,-1
 117 522 l 1,0,-1
232 522 m 1,5,-1
 287 639 l 1,6,-1
 367 639 l 1,7,-1
 368 636 l 1,8,-1
 293 522 l 1,9,-1
 232 522 l 1,5,-1
201.5 476 m 0,10,11
 368 476 368 476 368 232.5 c 0,12,13
 368 -11 368 -11 201.5 -11 c 0,14,15
 35 -11 35 -11 35 232.5 c 0,16,17
 35 476 35 476 201.5 476 c 0,10,11
292 249 m 2,18,19
 292 411 292 411 201.5 411 c 0,20,21
 111 411 111 411 111 249 c 2,22,-1
 111 216 l 2,23,24
 111 54 111 54 201.5 54 c 0,25,26
 292 54 292 54 292 216 c 2,27,-1
 292 249 l 2,18,19
EndSplineSet
EndChar

StartChar: omacron
Encoding: 333 333 209
Width: 403
Flags: MW
HStem: -11 65<171.5 232 171.5 256> 411 65<171.5 232> 530 63<91 313 91 313>
VStem: 35 76<162.5 216 216 249 162.5 316> 91 222<530 593 530 593> 292 76<216 249 249 302.5>
LayerCount: 2
Fore
SplineSet
91 593 m 1,0,-1
 313 593 l 1,1,-1
 313 530 l 1,2,-1
 91 530 l 1,3,-1
 91 593 l 1,0,-1
201.5 476 m 0,4,5
 368 476 368 476 368 232.5 c 0,6,7
 368 -11 368 -11 201.5 -11 c 0,8,9
 35 -11 35 -11 35 232.5 c 0,10,11
 35 476 35 476 201.5 476 c 0,4,5
292 249 m 2,12,13
 292 411 292 411 201.5 411 c 0,14,15
 111 411 111 411 111 249 c 2,16,-1
 111 216 l 2,17,18
 111 54 111 54 201.5 54 c 0,19,20
 292 54 292 54 292 216 c 2,21,-1
 292 249 l 2,12,13
EndSplineSet
EndChar

StartChar: oslash
Encoding: 248 248 210
Width: 443
Flags: MW
HStem: -11 65<208.5 251 208.5 275.5> 411 65<191 233>
VStem: 55 76<198.5 216 216 249 198.5 316> 311 76<216 249 249 266.5>
LayerCount: 2
Fore
SplineSet
345 416 m 1,0,1
 387 358 387 358 387 232 c 0,2,3
 387 -11 387 -11 221 -11 c 0,4,5
 164 -11 164 -11 127 17 c 1,6,-1
 103 -28 l 1,7,-1
 55 -28 l 1,8,-1
 96 49 l 1,9,10
 55 108 55 108 55 232 c 0,11,12
 55 476 55 476 221 476 c 0,13,14
 277 476 277 476 314 448 c 1,15,-1
 339 493 l 1,16,-1
 387 493 l 1,17,-1
 345 416 l 1,0,1
279 385 m 1,18,19
 256 411 256 411 221 411 c 0,20,21
 131 411 131 411 131 249 c 2,22,-1
 131 216 l 2,23,24
 131 159 131 159 140 128 c 1,25,-1
 279 385 l 1,18,19
163 80 m 1,26,27
 184 54 184 54 221 54 c 0,28,29
 311 54 311 54 311 216 c 2,30,-1
 311 249 l 2,31,32
 311 303 311 303 301 336 c 1,33,-1
 163 80 l 1,26,27
EndSplineSet
EndChar

StartChar: oslashacute
Encoding: 511 511 211
Width: 443
Flags: MW
HStem: -11 65<208.5 251 208.5 275.5> 411 65<191 233> 522 117<169 324 169 324>
VStem: 55 76<198.5 216 216 249 198.5 316> 311 76<216 249 249 266.5>
LayerCount: 2
Fore
SplineSet
230 522 m 1,0,-1
 169 522 l 1,1,-1
 245 639 l 1,2,-1
 324 639 l 1,3,-1
 325 636 l 1,4,-1
 230 522 l 1,0,-1
345 416 m 1,5,6
 387 358 387 358 387 232 c 0,7,8
 387 -11 387 -11 221 -11 c 0,9,10
 164 -11 164 -11 127 17 c 1,11,-1
 103 -28 l 1,12,-1
 55 -28 l 1,13,-1
 96 49 l 1,14,15
 55 108 55 108 55 232 c 0,16,17
 55 476 55 476 221 476 c 0,18,19
 277 476 277 476 314 448 c 1,20,-1
 339 493 l 1,21,-1
 387 493 l 1,22,-1
 345 416 l 1,5,6
279 385 m 1,23,24
 256 411 256 411 221 411 c 0,25,26
 131 411 131 411 131 249 c 2,27,-1
 131 216 l 2,28,29
 131 159 131 159 140 128 c 1,30,-1
 279 385 l 1,23,24
163 80 m 1,31,32
 184 54 184 54 221 54 c 0,33,34
 311 54 311 54 311 216 c 2,35,-1
 311 249 l 2,36,37
 311 303 311 303 301 336 c 1,38,-1
 163 80 l 1,31,32
EndSplineSet
EndChar

StartChar: otilde
Encoding: 245 245 212
Width: 403
Flags: MW
HStem: -11 65<171.5 232 171.5 256> 411 65<171.5 232> 547 65<236 257 232 282> 575 64<146 167 121.5 171>
VStem: 35 76<162.5 216 216 249 162.5 316> 292 76<216 249 249 302.5>
LayerCount: 2
Fore
SplineSet
331 639 m 1,0,1
 331 604 331 604 311.5 575.5 c 128,-1,2
 292 547 292 547 255 547 c 0,3,4
 236 547 236 547 203 561 c 128,-1,5
 170 575 170 575 154 575 c 0,6,7
 127 575 127 575 124 547 c 1,8,-1
 72 547 l 1,9,10
 72 582 72 582 91.5 610.5 c 128,-1,11
 111 639 111 639 148 639 c 0,12,13
 168 639 168 639 200 625.5 c 128,-1,14
 232 612 232 612 249 612 c 0,15,16
 276 612 276 612 279 639 c 1,17,-1
 331 639 l 1,0,1
201.5 476 m 0,18,19
 368 476 368 476 368 232.5 c 0,20,21
 368 -11 368 -11 201.5 -11 c 0,22,23
 35 -11 35 -11 35 232.5 c 0,24,25
 35 476 35 476 201.5 476 c 0,18,19
292 249 m 2,26,27
 292 411 292 411 201.5 411 c 0,28,29
 111 411 111 411 111 249 c 2,30,-1
 111 216 l 2,31,32
 111 54 111 54 201.5 54 c 0,33,34
 292 54 292 54 292 216 c 2,35,-1
 292 249 l 2,26,27
EndSplineSet
EndChar

StartChar: oe
Encoding: 339 339 213
Width: 684
Flags: MW
HStem: -11 65<183 242 449.5 506> 211 65<382 557 382 633 381 557> 411 65<183 242 158.5 243 448.5 505>
VStem: 47 76<162.5 216 216 249 162.5 316> 303 78<211 249 211 302.5> 557 76
LayerCount: 2
Fore
SplineSet
633 158 m 1,0,1
 633 81 633 81 591 35 c 128,-1,2
 549 -11 549 -11 481 -11 c 0,3,4
 384 -11 384 -11 342 57 c 1,5,6
 302 -11 302 -11 213 -11 c 0,7,8
 47 -11 47 -11 47 232.5 c 0,9,10
 47 476 47 476 213 476 c 0,11,12
 301 476 301 476 342 408 c 1,13,14
 386 476 386 476 480 476 c 0,15,16
 558 476 558 476 595.5 424 c 128,-1,17
 633 372 633 372 633 257 c 2,18,-1
 633 211 l 1,19,-1
 381 211 l 1,20,21
 382 130 382 130 406.5 92 c 128,-1,22
 431 54 431 54 483 54 c 0,23,24
 518 54 518 54 539.5 82 c 128,-1,25
 561 110 561 110 561 158 c 1,26,-1
 633 158 l 1,0,1
303 249 m 2,27,28
 303 411 303 411 213 411 c 128,-1,29
 123 411 123 411 123 249 c 2,30,-1
 123 216 l 2,31,32
 123 54 123 54 213 54 c 128,-1,33
 303 54 303 54 303 216 c 2,34,-1
 303 249 l 2,27,28
557 276 m 1,35,36
 557 411 557 411 480 411 c 0,37,38
 432 411 432 411 409.5 378 c 128,-1,39
 387 345 387 345 382 276 c 1,40,-1
 557 276 l 1,35,36
EndSplineSet
EndChar

StartChar: p
Encoding: 112 112 214
Width: 403
Flags: MW
HStem: -11 65<206.5 236.5 181 267.5> 411 54<53 122 53 122> 411 65<202.5 236.5>
VStem: 53 73<-153 41 162.5 216 216 249> 292 76<216 249 249 307>
LayerCount: 2
Fore
SplineSet
122 411 m 1,0,1
 156 476 156 476 224 476 c 128,-1,2
 292 476 292 476 330 416 c 128,-1,3
 368 356 368 356 368 233.5 c 0,4,5
 368 111 368 111 329.5 50 c 128,-1,6
 291 -11 291 -11 223.5 -11 c 0,7,8
 156 -11 156 -11 130 41 c 1,9,-1
 126 41 l 1,10,-1
 126 -153 l 1,11,-1
 53 -153 l 1,12,-1
 53 465 l 1,13,-1
 108 465 l 1,14,-1
 118 411 l 1,15,-1
 122 411 l 1,0,1
292 249 m 2,16,17
 292 334 292 334 271.5 372.5 c 128,-1,18
 251 411 251 411 209 411 c 0,19,20
 126 411 126 411 126 249 c 2,21,-1
 126 216 l 2,22,23
 126 54 126 54 209 54 c 0,24,25
 251 54 251 54 271.5 92.5 c 128,-1,26
 292 131 292 131 292 216 c 2,27,-1
 292 249 l 2,16,17
EndSplineSet
EndChar

StartChar: thorn
Encoding: 254 254 215
Width: 403
Flags: MW
HStem: -11 65<206.5 236.5 181 267.5> 411 65<203.5 236.5> 619 20G<53 126 126 126>
VStem: 53 73<-153 41 162.5 216 216 249 424 639> 292 76<216 249 249 307>
LayerCount: 2
Fore
SplineSet
129 423 m 1,0,1
 160 476 160 476 226 476 c 0,2,3
 292 476 292 476 330 416 c 128,-1,4
 368 356 368 356 368 233.5 c 0,5,6
 368 111 368 111 329.5 50 c 128,-1,7
 291 -11 291 -11 223.5 -11 c 0,8,9
 156 -11 156 -11 130 41 c 1,10,-1
 126 41 l 1,11,-1
 126 -153 l 1,12,-1
 53 -153 l 1,13,-1
 53 639 l 1,14,-1
 126 639 l 1,15,-1
 126 424 l 1,16,-1
 129 423 l 1,0,1
292 249 m 2,17,18
 292 334 292 334 271.5 372.5 c 128,-1,19
 251 411 251 411 209 411 c 0,20,21
 126 411 126 411 126 249 c 2,22,-1
 126 216 l 2,23,24
 126 54 126 54 209 54 c 0,25,26
 251 54 251 54 271.5 92.5 c 128,-1,27
 292 131 292 131 292 216 c 2,28,-1
 292 249 l 2,17,18
EndSplineSet
EndChar

StartChar: q
Encoding: 113 113 216
Width: 403
Flags: MW
HStem: -11 65<166.5 196.5> 411 54<281 350 286 350> 411 65<166.5 200.5 135 222>
VStem: 35 76<158 216 216 249 158 317> 278 72<-153 41 41 41 216 249 249 302.5>
LayerCount: 2
Fore
SplineSet
273 41 m 1,0,1
 247 -11 247 -11 179.5 -11 c 0,2,3
 112 -11 112 -11 73.5 50 c 128,-1,4
 35 111 35 111 35 233.5 c 0,5,6
 35 356 35 356 73 416 c 128,-1,7
 111 476 111 476 179 476 c 128,-1,8
 247 476 247 476 281 411 c 1,9,-1
 286 411 l 1,10,-1
 295 465 l 1,11,-1
 350 465 l 1,12,-1
 350 -153 l 1,13,-1
 278 -153 l 1,14,-1
 278 41 l 1,15,-1
 273 41 l 1,0,1
278 249 m 2,16,17
 278 411 278 411 194 411 c 0,18,19
 152 411 152 411 131.5 372.5 c 128,-1,20
 111 334 111 334 111 249 c 2,21,-1
 111 216 l 2,22,23
 111 131 111 131 131.5 92.5 c 128,-1,24
 152 54 152 54 194 54 c 0,25,26
 278 54 278 54 278 216 c 2,27,-1
 278 249 l 2,16,17
EndSplineSet
EndChar

StartChar: r
Encoding: 114 114 217
Width: 241
Flags: MW
HStem: 393 83<189 211.5 179.5 212 179.5 236> 445 20G<53 108 108 108> 449 20G<236 236>
VStem: 53 73<0 284 0 465>
LayerCount: 2
Fore
SplineSet
202 476 m 0,0,1
 215 476 215 476 236 469 c 1,2,-1
 236 393 l 1,3,-1
 212 393 l 2,4,5
 174 393 174 393 150 367 c 128,-1,6
 126 341 126 341 126 284 c 2,7,-1
 126 0 l 1,8,-1
 53 0 l 1,9,-1
 53 465 l 1,10,-1
 108 465 l 1,11,-1
 118 404 l 1,12,-1
 123 404 l 1,13,14
 146 476 146 476 202 476 c 0,0,1
EndSplineSet
EndChar

